<svg xmlns="http://www.w3.org/2000/svg" xmlns:xlink="http://www.w3.org/1999/xlink" width="1920" zoomAndPan="magnify" viewBox="0 0 1440 809.999993" height="1080" preserveAspectRatio="xMidYMid meet" version="1.0"><defs><g/><clipPath id="182dfb23d3"><path d="M 82.164062 205.730469 L 1361 205.730469 L 1361 620.90625 L 82.164062 620.90625 Z M 82.164062 205.730469 " clip-rule="nonzero"/></clipPath><clipPath id="c3fb319dc5"><path d="M 120.414062 205.730469 L 1321.914062 205.730469 C 1332.058594 205.730469 1341.789062 209.761719 1348.960938 216.933594 C 1356.136719 224.109375 1360.164062 233.835938 1360.164062 243.980469 L 1360.164062 582.65625 C 1360.164062 592.800781 1356.136719 602.527344 1348.960938 609.703125 C 1341.789062 616.875 1332.058594 620.90625 1321.914062 620.90625 L 120.414062 620.90625 C 110.269531 620.90625 100.542969 616.875 93.367188 609.703125 C 86.195312 602.527344 82.164062 592.800781 82.164062 582.65625 L 82.164062 243.980469 C 82.164062 233.835938 86.195312 224.109375 93.367188 216.933594 C 100.542969 209.761719 110.269531 205.730469 120.414062 205.730469 Z M 120.414062 205.730469 " clip-rule="nonzero"/></clipPath><clipPath id="830754cdc4"><path d="M 82.167969 205.730469 L 1360.164062 205.730469 L 1360.164062 621 L 82.167969 621 Z M 82.167969 205.730469 " clip-rule="nonzero"/></clipPath><clipPath id="1f6d50d6e8"><path d="M 120.417969 205.730469 L 1321.910156 205.730469 C 1332.054688 205.730469 1341.785156 209.761719 1348.957031 216.933594 C 1356.132812 224.109375 1360.160156 233.835938 1360.160156 243.980469 L 1360.160156 582.652344 C 1360.160156 592.796875 1356.132812 602.527344 1348.957031 609.699219 C 1341.785156 616.875 1332.054688 620.902344 1321.910156 620.902344 L 120.417969 620.902344 C 110.273438 620.902344 100.542969 616.875 93.371094 609.699219 C 86.199219 602.527344 82.167969 592.796875 82.167969 582.652344 L 82.167969 243.980469 C 82.167969 233.835938 86.199219 224.109375 93.371094 216.933594 C 100.542969 209.761719 110.273438 205.730469 120.417969 205.730469 Z M 120.417969 205.730469 " clip-rule="nonzero"/></clipPath><clipPath id="aed49c1f21"><path d="M 82.164062 174.6875 L 1361 174.6875 L 1361 589.863281 L 82.164062 589.863281 Z M 82.164062 174.6875 " clip-rule="nonzero"/></clipPath><clipPath id="33f80daa42"><path d="M 120.414062 174.6875 L 1321.914062 174.6875 C 1332.058594 174.6875 1341.789062 178.71875 1348.960938 185.890625 C 1356.136719 193.0625 1360.164062 202.792969 1360.164062 212.9375 L 1360.164062 551.613281 C 1360.164062 561.757812 1356.136719 571.484375 1348.960938 578.660156 C 1341.789062 585.832031 1332.058594 589.863281 1321.914062 589.863281 L 120.414062 589.863281 C 110.269531 589.863281 100.542969 585.832031 93.367188 578.660156 C 86.195312 571.484375 82.164062 561.757812 82.164062 551.613281 L 82.164062 212.9375 C 82.164062 202.792969 86.195312 193.0625 93.367188 185.890625 C 100.542969 178.71875 110.269531 174.6875 120.414062 174.6875 Z M 120.414062 174.6875 " clip-rule="nonzero"/></clipPath><clipPath id="926725b606"><path d="M 82.167969 174.6875 L 1360.164062 174.6875 L 1360.164062 590 L 82.167969 590 Z M 82.167969 174.6875 " clip-rule="nonzero"/></clipPath><clipPath id="97d0940760"><path d="M 120.417969 174.6875 L 1321.910156 174.6875 C 1332.054688 174.6875 1341.785156 178.71875 1348.957031 185.890625 C 1356.132812 193.0625 1360.160156 202.792969 1360.160156 212.9375 L 1360.160156 551.609375 C 1360.160156 561.753906 1356.132812 571.484375 1348.957031 578.65625 C 1341.785156 585.828125 1332.054688 589.859375 1321.910156 589.859375 L 120.417969 589.859375 C 110.273438 589.859375 100.542969 585.828125 93.371094 578.65625 C 86.199219 571.484375 82.167969 561.753906 82.167969 551.609375 L 82.167969 212.9375 C 82.167969 202.792969 86.199219 193.0625 93.371094 185.890625 C 100.542969 178.71875 110.273438 174.6875 120.417969 174.6875 Z M 120.417969 174.6875 " clip-rule="nonzero"/></clipPath></defs><g clip-path="url(#182dfb23d3)"><g clip-path="url(#c3fb319dc5)"><path fill="#005576" d="M 82.164062 205.730469 L 1360.121094 205.730469 L 1360.121094 620.90625 L 82.164062 620.90625 Z M 82.164062 205.730469 " fill-opacity="1" fill-rule="nonzero"/></g></g><g clip-path="url(#830754cdc4)"><g clip-path="url(#1f6d50d6e8)"><path stroke-linecap="butt" transform="matrix(0.75, 0, 0, 0.75, 82.168156, 205.73125)" fill="none" stroke-linejoin="miter" d="M 50.999752 -0.0010412 L 1652.989416 -0.0010412 C 1666.515459 -0.0010412 1679.489418 5.373959 1689.051918 14.93646 C 1698.619627 24.504168 1703.989419 37.472919 1703.989419 50.998961 L 1703.989419 502.561484 C 1703.989419 516.087526 1698.619627 529.061485 1689.051918 538.623986 C 1679.489418 548.191695 1666.515459 553.561487 1652.989416 553.561487 L 50.999752 553.561487 C 37.47371 553.561487 24.499751 548.191695 14.93725 538.623986 C 5.37475 529.061485 -0.000250318 516.087526 -0.000250318 502.561484 L -0.000250318 50.998961 C -0.000250318 37.472919 5.37475 24.504168 14.93725 14.93646 C 24.499751 5.373959 37.47371 -0.0010412 50.999752 -0.0010412 Z M 50.999752 -0.0010412 " stroke="#000000" stroke-width="26" stroke-opacity="1" stroke-miterlimit="4"/></g></g><g clip-path="url(#aed49c1f21)"><g clip-path="url(#33f80daa42)"><path fill="#00b7fe" d="M 82.164062 174.6875 L 1360.121094 174.6875 L 1360.121094 589.863281 L 82.164062 589.863281 Z M 82.164062 174.6875 " fill-opacity="1" fill-rule="nonzero"/></g></g><g clip-path="url(#926725b606)"><g clip-path="url(#97d0940760)"><path stroke-linecap="butt" transform="matrix(0.75, 0, 0, 0.75, 82.168156, 174.68777)" fill="none" stroke-linejoin="miter" d="M 50.999752 -0.000359482 L 1652.989416 -0.000359482 C 1666.515459 -0.000359482 1679.489418 5.374641 1689.051918 14.937141 C 1698.619627 24.499642 1703.989419 37.473601 1703.989419 50.999643 L 1703.989419 502.562166 C 1703.989419 516.088208 1698.619627 529.062167 1689.051918 538.624668 C 1679.489418 548.187168 1666.515459 553.562168 1652.989416 553.562168 L 50.999752 553.562168 C 37.47371 553.562168 24.499751 548.187168 14.93725 538.624668 C 5.37475 529.062167 -0.000250318 516.088208 -0.000250318 502.562166 L -0.000250318 50.999643 C -0.000250318 37.473601 5.37475 24.499642 14.93725 14.937141 C 24.499751 5.374641 37.47371 -0.000359482 50.999752 -0.000359482 Z M 50.999752 -0.000359482 " stroke="#000000" stroke-width="26" stroke-opacity="1" stroke-miterlimit="4"/></g></g><g fill="#000000" fill-opacity="1"><g transform="translate(366.072938, 470.430982)"><g><path d="M 65.03125 -75.203125 C 60.632812 -79.742188 55.96875 -83.960938 51.03125 -87.859375 C 46.09375 -91.753906 41.195312 -95.648438 36.34375 -99.546875 C 31.5 -103.453125 26.785156 -107.535156 22.203125 -111.796875 C 17.628906 -116.054688 13.421875 -120.734375 9.578125 -125.828125 C 5.546875 -131.097656 2.375 -136.867188 0.0625 -143.140625 C -2.238281 -149.421875 -2.675781 -155.941406 -1.25 -162.703125 C 0.175781 -169.992188 3.703125 -176.382812 9.328125 -181.875 C 14.960938 -187.375 21.050781 -191.6875 27.59375 -194.8125 C 34.695312 -197.945312 41.890625 -200.117188 49.171875 -201.328125 C 56.460938 -202.546875 63.84375 -203.304688 71.3125 -203.609375 C 78.789062 -203.921875 86.3125 -203.953125 93.875 -203.703125 C 101.4375 -203.460938 108.957031 -203.539062 116.4375 -203.9375 C 119.894531 -204.144531 122.492188 -203.15625 124.234375 -200.96875 C 125.984375 -198.789062 126.863281 -196.332031 126.875 -193.59375 C 126.882812 -190.863281 126.023438 -188.351562 124.296875 -186.0625 C 122.578125 -183.78125 119.988281 -182.539062 116.53125 -182.34375 C 111.238281 -181.957031 105.992188 -181.796875 100.796875 -181.859375 C 95.609375 -181.929688 90.367188 -182.050781 85.078125 -182.21875 C 77.972656 -182.363281 70.816406 -182.238281 63.609375 -181.84375 C 56.410156 -181.445312 49.351562 -179.957031 42.4375 -177.375 C 40.082031 -176.457031 37.539062 -175.304688 34.8125 -173.921875 C 32.082031 -172.546875 29.578125 -170.847656 27.296875 -168.828125 C 25.023438 -166.816406 23.164062 -164.625 21.71875 -162.25 C 20.269531 -159.875 19.644531 -157.320312 19.84375 -154.59375 C 20.039062 -152.039062 20.691406 -149.535156 21.796875 -147.078125 C 22.898438 -144.617188 24.320312 -142.207031 26.0625 -139.84375 C 27.800781 -137.476562 29.675781 -135.207031 31.6875 -133.03125 C 33.707031 -130.851562 35.632812 -128.851562 37.46875 -127.03125 C 41.675781 -122.863281 46.066406 -119.054688 50.640625 -115.609375 C 55.210938 -112.171875 59.785156 -108.640625 64.359375 -105.015625 C 69.117188 -101.203125 73.921875 -96.984375 78.765625 -92.359375 C 83.617188 -87.734375 87.832031 -82.738281 91.40625 -77.375 C 94.988281 -72.007812 97.65625 -66.320312 99.40625 -60.3125 C 101.164062 -54.300781 101.425781 -47.925781 100.1875 -41.1875 C 98.925781 -34.789062 96.53125 -29.351562 93 -24.875 C 89.46875 -20.394531 85.289062 -16.363281 80.46875 -12.78125 C 75.65625 -9.207031 70.566406 -5.992188 65.203125 -3.140625 C 59.835938 -0.296875 54.703125 2.59375 49.796875 5.53125 C 46.703125 7.375 43.828125 7.753906 41.171875 6.671875 C 38.523438 5.585938 36.515625 3.859375 35.140625 1.484375 C 33.765625 -0.878906 33.207031 -3.472656 33.46875 -6.296875 C 33.726562 -9.117188 35.40625 -11.453125 38.5 -13.296875 C 42.863281 -15.859375 47.226562 -18.242188 51.59375 -20.453125 C 55.96875 -22.660156 60.238281 -25.144531 64.40625 -27.90625 C 68.40625 -30.46875 71.898438 -33.53125 74.890625 -37.09375 C 77.890625 -40.664062 79.378906 -44.820312 79.359375 -49.5625 C 79.148438 -54.300781 77.625 -58.851562 74.78125 -63.21875 C 71.945312 -67.582031 68.695312 -71.578125 65.03125 -75.203125 Z M 65.03125 -75.203125 "/></g></g></g><g fill="#000000" fill-opacity="1"><g transform="translate(495.187875, 469.874482)"><g><path d="M 95.03125 -95.84375 C 98.488281 -95.863281 101.085938 -94.78125 102.828125 -92.59375 C 104.578125 -90.414062 105.457031 -87.957031 105.46875 -85.21875 C 105.476562 -82.488281 104.617188 -79.976562 102.890625 -77.6875 C 101.171875 -75.40625 98.582031 -74.253906 95.125 -74.234375 C 90.75 -74.035156 86.414062 -74.0625 82.125 -74.3125 C 77.84375 -74.570312 73.601562 -74.875 69.40625 -75.21875 C 69.644531 -60.820312 69.476562 -46.421875 68.90625 -32.015625 C 68.332031 -17.617188 66.890625 -3.300781 64.578125 10.9375 C 64.222656 14.03125 62.59375 16.3125 59.6875 17.78125 C 56.78125 19.257812 53.957031 19.550781 51.21875 18.65625 C 48.113281 17.75 45.960938 16.066406 44.765625 13.609375 C 43.578125 11.160156 43.25 8.382812 43.78125 5.28125 C 45.90625 -8.582031 47.070312 -22.441406 47.28125 -36.296875 C 47.5 -50.148438 47.398438 -64.097656 46.984375 -78.140625 C 40.046875 -79.203125 33.019531 -80.304688 25.90625 -81.453125 C 18.789062 -82.609375 11.769531 -83.628906 4.84375 -84.515625 C 1.738281 -84.867188 -0.503906 -86.546875 -1.890625 -89.546875 C -3.273438 -92.546875 -3.609375 -95.320312 -2.890625 -97.875 C -1.984375 -100.988281 -0.257812 -103.140625 2.28125 -104.328125 C 4.832031 -105.523438 7.566406 -105.945312 10.484375 -105.59375 C 16.503906 -104.707031 22.523438 -103.773438 28.546875 -102.796875 C 34.566406 -101.816406 40.679688 -100.890625 46.890625 -100.015625 C 46.691406 -100.921875 46.585938 -102.285156 46.578125 -104.109375 C 46.515625 -120.515625 46.398438 -136.738281 46.234375 -152.78125 C 46.078125 -168.820312 46.785156 -185.050781 48.359375 -201.46875 C 48.703125 -204.382812 49.828125 -206.9375 51.734375 -209.125 C 53.648438 -211.320312 56.15625 -212.429688 59.25 -212.453125 C 61.988281 -212.460938 64.585938 -211.378906 67.046875 -209.203125 C 69.515625 -207.023438 70.578125 -204.476562 70.234375 -201.5625 C 68.484375 -184.050781 67.691406 -166.679688 67.859375 -149.453125 C 68.023438 -132.234375 68.328125 -114.78125 68.765625 -97.09375 C 73.140625 -96.75 77.515625 -96.445312 81.890625 -96.1875 C 86.273438 -95.9375 90.65625 -95.820312 95.03125 -95.84375 Z M 95.03125 -95.84375 "/></g></g></g><g fill="#000000" fill-opacity="1"><g transform="translate(618.013862, 469.345088)"><g><path d="M 78.484375 -126.40625 C 84.316406 -127.15625 90.421875 -127.40625 96.796875 -127.15625 C 103.179688 -126.90625 109.296875 -125.835938 115.140625 -123.953125 C 120.984375 -122.066406 126.28125 -119.21875 131.03125 -115.40625 C 135.789062 -111.601562 139.460938 -106.609375 142.046875 -100.421875 C 143.878906 -96.054688 144.847656 -91.640625 144.953125 -87.171875 C 145.066406 -82.703125 144.445312 -78.414062 143.09375 -74.3125 C 141.75 -70.207031 139.757812 -66.28125 137.125 -62.53125 C 134.5 -58.78125 131.46875 -55.347656 128.03125 -52.234375 C 120.582031 -45.453125 112.398438 -39.671875 103.484375 -34.890625 C 94.566406 -30.117188 85.195312 -26.4375 75.375 -23.84375 C 71.1875 -22.726562 66.859375 -21.75 62.390625 -20.90625 C 57.929688 -20.070312 53.421875 -19.644531 48.859375 -19.625 C 44.304688 -19.613281 39.835938 -20.097656 35.453125 -21.078125 C 31.078125 -22.054688 26.972656 -23.722656 23.140625 -26.078125 C 20.390625 -27.703125 18.738281 -29.882812 18.1875 -32.625 C 17.082031 -35.71875 15.882812 -38.628906 14.59375 -41.359375 C 13.300781 -44.085938 12.054688 -46.90625 10.859375 -49.8125 C 9.660156 -52.726562 8.691406 -55.640625 7.953125 -58.546875 C 7.210938 -61.460938 6.832031 -64.472656 6.8125 -67.578125 C 6.789062 -73.773438 8.085938 -79.65625 10.703125 -85.21875 C 13.328125 -90.789062 16.910156 -95.6875 21.453125 -99.90625 C 29.078125 -107.226562 37.890625 -113.097656 47.890625 -117.515625 C 57.898438 -121.929688 68.097656 -124.894531 78.484375 -126.40625 Z M 109.484375 -103.015625 C 104.554688 -104.816406 99.265625 -105.707031 93.609375 -105.6875 C 87.597656 -105.832031 81.585938 -105.207031 75.578125 -103.8125 C 69.566406 -102.425781 63.832031 -100.535156 58.375 -98.140625 C 53.28125 -96.117188 48.050781 -93.316406 42.6875 -89.734375 C 37.320312 -86.160156 33.375 -81.816406 30.84375 -76.703125 C 29.394531 -73.960938 28.722656 -71.175781 28.828125 -68.34375 C 28.929688 -65.519531 29.398438 -62.695312 30.234375 -59.875 C 31.066406 -57.0625 32.171875 -54.242188 33.546875 -51.421875 C 34.929688 -48.597656 36.175781 -45.820312 37.28125 -43.09375 C 40.195312 -42.382812 42.019531 -42.03125 42.75 -42.03125 C 43.125 -41.84375 43.582031 -41.75 44.125 -41.75 C 44.675781 -41.75 45.132812 -41.753906 45.5 -41.765625 C 49.144531 -41.410156 52.421875 -41.515625 55.328125 -42.078125 C 57.328125 -42.085938 59.878906 -42.460938 62.984375 -43.203125 C 67.722656 -44.128906 72.273438 -45.378906 76.640625 -46.953125 C 81.015625 -48.523438 85.019531 -50.226562 88.65625 -52.0625 C 92.832031 -54.082031 96.921875 -56.285156 100.921875 -58.671875 C 104.921875 -61.066406 108.285156 -63.546875 111.015625 -66.109375 C 112.828125 -67.753906 114.546875 -69.492188 116.171875 -71.328125 C 117.085938 -72.234375 117.726562 -72.96875 118.09375 -73.53125 C 118.988281 -74.800781 119.707031 -75.753906 120.25 -76.390625 C 120.800781 -77.035156 121.253906 -77.816406 121.609375 -78.734375 C 122.335938 -80.015625 122.703125 -81.019531 122.703125 -81.75 C 122.878906 -82.113281 123.007812 -82.566406 123.09375 -83.109375 C 123.1875 -83.660156 123.328125 -84.117188 123.515625 -84.484375 L 123.5 -87.484375 C 123.3125 -88.210938 123.210938 -88.757812 123.203125 -89.125 C 123.203125 -89.488281 123.113281 -89.851562 122.9375 -90.21875 C 122.382812 -91.5 121.878906 -92.453125 121.421875 -93.078125 C 120.960938 -93.710938 120.457031 -94.394531 119.90625 -95.125 C 120.09375 -94.945312 119.863281 -95.222656 119.21875 -95.953125 C 118.570312 -96.679688 118.160156 -97.132812 117.984375 -97.3125 L 115.796875 -99.484375 C 114.878906 -100.035156 113.867188 -100.671875 112.765625 -101.390625 C 111.671875 -102.117188 110.578125 -102.660156 109.484375 -103.015625 Z M 109.484375 -103.015625 "/></g></g></g><g fill="#000000" fill-opacity="1"><g transform="translate(781.581315, 468.640094)"><g><path d="M 14.109375 -26.3125 C 14.078125 -34.15625 14.585938 -42.085938 15.640625 -50.109375 C 16.878906 -59.773438 18.113281 -69.394531 19.34375 -78.96875 C 20.582031 -88.550781 21.085938 -98.265625 20.859375 -108.109375 C 20.847656 -111.566406 21.929688 -114.210938 24.109375 -116.046875 C 26.285156 -117.878906 28.738281 -118.800781 31.46875 -118.8125 C 34.207031 -118.820312 36.765625 -117.921875 39.140625 -116.109375 C 41.523438 -114.296875 42.722656 -111.660156 42.734375 -108.203125 C 49.847656 -108.773438 56.59375 -109.070312 62.96875 -109.09375 C 70.257812 -108.945312 76.460938 -106.878906 81.578125 -102.890625 C 86.703125 -98.910156 90.554688 -93.550781 93.140625 -86.8125 C 95.359375 -80.625 96.660156 -74.25 97.046875 -67.6875 C 97.441406 -61.125 97.75 -54.5625 97.96875 -48 C 98.1875 -38.707031 98.492188 -29.457031 98.890625 -20.25 C 99.296875 -11.039062 99.519531 -1.785156 99.5625 7.515625 C 99.582031 11.160156 98.457031 13.847656 96.1875 15.578125 C 93.914062 17.316406 91.457031 18.191406 88.8125 18.203125 C 86.164062 18.222656 83.703125 17.375 81.421875 15.65625 C 79.140625 13.9375 77.988281 11.253906 77.96875 7.609375 C 77.9375 -1.148438 77.765625 -9.722656 77.453125 -18.109375 C 77.140625 -26.492188 76.78125 -35.0625 76.375 -43.8125 C 75.988281 -48.550781 75.832031 -53.425781 75.90625 -58.4375 C 75.976562 -63.445312 75.546875 -68.050781 74.609375 -72.25 C 74.054688 -74.789062 73.503906 -77.015625 72.953125 -78.921875 C 72.398438 -80.835938 71.390625 -82.703125 69.921875 -84.515625 C 69.554688 -85.242188 68.773438 -85.878906 67.578125 -86.421875 C 66.390625 -86.960938 65.34375 -87.234375 64.4375 -87.234375 C 61.695312 -87.222656 59.140625 -87.03125 56.765625 -86.65625 C 54.398438 -86.28125 51.945312 -85.722656 49.40625 -84.984375 C 48.3125 -84.609375 47.21875 -84.234375 46.125 -83.859375 C 45.03125 -83.492188 44.03125 -83.039062 43.125 -82.5 C 41.332031 -75.925781 40.035156 -69.675781 39.234375 -63.75 C 38.441406 -57.820312 37.691406 -51.847656 36.984375 -45.828125 C 36.460938 -41.453125 36.164062 -37.03125 36.09375 -32.5625 C 36.019531 -28.09375 35.859375 -23.671875 35.609375 -19.296875 C 35.359375 -14.921875 34.828125 -10.539062 34.015625 -6.15625 C 33.210938 -1.78125 31.820312 2.414062 29.84375 6.4375 C 28.207031 9.539062 26.019531 11.328125 23.28125 11.796875 C 20.550781 12.265625 18.046875 11.820312 15.765625 10.46875 C 13.484375 9.113281 11.742188 7.070312 10.546875 4.34375 C 9.347656 1.613281 9.472656 -1.304688 10.921875 -4.421875 C 12.546875 -7.710938 13.441406 -11.269531 13.609375 -15.09375 C 13.773438 -18.925781 13.941406 -22.664062 14.109375 -26.3125 Z M 14.109375 -26.3125 "/></g></g></g><g fill="#000000" fill-opacity="1"><g transform="translate(909.329097, 468.089487)"><g><path d="M 24.203125 -159.796875 C 25.972656 -171.472656 30.070312 -182.242188 36.5 -192.109375 C 42.925781 -201.984375 50.773438 -210.5 60.046875 -217.65625 C 65.304688 -221.863281 70.847656 -224.523438 76.671875 -225.640625 C 82.503906 -226.765625 88.53125 -225.609375 94.75 -222.171875 C 99.5 -219.453125 104.296875 -216.550781 109.140625 -213.46875 C 113.992188 -210.394531 117.796875 -206.40625 120.546875 -201.5 C 122.378906 -198.40625 122.753906 -195.535156 121.671875 -192.890625 C 120.585938 -190.242188 118.863281 -188.226562 116.5 -186.84375 C 114.132812 -185.46875 111.539062 -184.957031 108.71875 -185.3125 C 105.894531 -185.664062 103.65625 -187.390625 102 -190.484375 C 101.082031 -192.117188 99.800781 -193.523438 98.15625 -194.703125 C 96.507812 -195.890625 94.957031 -196.929688 93.5 -197.828125 C 91.84375 -198.734375 90.007812 -199.910156 88 -201.359375 C 85.988281 -202.816406 83.984375 -203.722656 81.984375 -204.078125 C 80.335938 -204.609375 78.691406 -204.460938 77.046875 -203.640625 C 75.410156 -202.816406 73.820312 -201.71875 72.28125 -200.34375 C 70.738281 -198.96875 69.285156 -197.5 67.921875 -195.9375 C 66.566406 -194.382812 65.34375 -193.0625 64.25 -191.96875 C 57.71875 -185.007812 52.785156 -177.507812 49.453125 -169.46875 C 46.117188 -161.4375 44.5625 -152.59375 44.78125 -142.9375 C 44.988281 -136.375 45.5625 -129.8125 46.5 -123.25 C 51.789062 -123.632812 57.125 -124.019531 62.5 -124.40625 C 67.875 -124.800781 73.207031 -125.191406 78.5 -125.578125 C 81.582031 -125.953125 84.175781 -124.957031 86.28125 -122.59375 C 88.394531 -120.238281 89.460938 -117.601562 89.484375 -114.6875 C 89.492188 -111.59375 88.453125 -109.082031 86.359375 -107.15625 C 84.265625 -105.226562 81.671875 -104.171875 78.578125 -103.984375 C 73.847656 -103.597656 69.066406 -103.210938 64.234375 -102.828125 C 59.398438 -102.441406 54.613281 -102.054688 49.875 -101.671875 C 50.4375 -98.566406 51 -95.46875 51.5625 -92.375 C 52.125 -89.28125 52.679688 -86.1875 53.234375 -83.09375 C 55.484375 -70.15625 57.773438 -57.398438 60.109375 -44.828125 C 62.441406 -32.265625 64.179688 -19.421875 65.328125 -6.296875 C 65.710938 -3.203125 64.722656 -0.601562 62.359375 1.5 C 59.992188 3.613281 57.351562 4.675781 54.4375 4.6875 C 51.332031 4.695312 48.820312 3.65625 46.90625 1.5625 C 44.988281 -0.519531 43.835938 -3.109375 43.453125 -6.203125 C 42.296875 -20.785156 40.320312 -35.132812 37.53125 -49.25 C 34.738281 -63.363281 32.125 -77.523438 29.6875 -91.734375 C 29.3125 -93.191406 29.078125 -94.648438 28.984375 -96.109375 C 28.890625 -97.566406 28.65625 -99.023438 28.28125 -100.484375 C 23 -100.097656 17.671875 -99.800781 12.296875 -99.59375 C 6.921875 -99.382812 1.492188 -99.269531 -3.984375 -99.25 C -7.441406 -99.238281 -10.039062 -100.363281 -11.78125 -102.625 C -13.53125 -104.894531 -14.410156 -107.394531 -14.421875 -110.125 C -14.429688 -112.863281 -13.570312 -115.378906 -11.84375 -117.671875 C -10.125 -119.960938 -7.535156 -121.113281 -4.078125 -121.125 C 5.585938 -121.164062 15.25 -121.476562 24.90625 -122.0625 C 23.96875 -128.445312 23.394531 -134.734375 23.1875 -140.921875 C 22.976562 -147.117188 23.316406 -153.410156 24.203125 -159.796875 Z M 24.203125 -159.796875 "/></g></g></g><g fill="#000000" fill-opacity="1"><g transform="translate(1014.108526, 467.637876)"><g><path d="M 12.84375 -2.796875 C 14.269531 -11.546875 15.921875 -20.164062 17.796875 -28.65625 C 19.671875 -37.144531 21.046875 -45.765625 21.921875 -54.515625 C 22.609375 -63.078125 22.707031 -71.503906 22.21875 -79.796875 C 21.726562 -88.097656 22.191406 -96.535156 23.609375 -105.109375 C 23.960938 -108.023438 25.640625 -110.21875 28.640625 -111.6875 C 31.648438 -113.15625 34.429688 -113.53125 36.984375 -112.8125 C 40.078125 -111.925781 42.222656 -110.207031 43.421875 -107.65625 C 44.617188 -105.113281 45.046875 -102.378906 44.703125 -99.453125 C 43.984375 -95.253906 43.675781 -90.96875 43.78125 -86.59375 C 43.894531 -82.21875 44.054688 -77.84375 44.265625 -73.46875 C 44.296875 -65.082031 43.785156 -56.695312 42.734375 -48.3125 C 41.671875 -39.550781 40.289062 -30.972656 38.59375 -22.578125 C 36.894531 -14.191406 35.335938 -5.707031 33.921875 2.875 C 33.390625 5.789062 31.664062 7.984375 28.75 9.453125 C 25.84375 10.921875 23.113281 11.296875 20.5625 10.578125 C 17.457031 9.679688 15.257812 7.957031 13.96875 5.40625 C 12.675781 2.863281 12.300781 0.128906 12.84375 -2.796875 Z M 25.4375 -128.625 C 24.144531 -128.988281 22.859375 -129.578125 21.578125 -130.390625 C 20.304688 -131.210938 19.394531 -132.253906 18.84375 -133.515625 C 18.289062 -134.972656 17.828125 -136.25 17.453125 -137.34375 C 17.085938 -138.4375 16.898438 -139.710938 16.890625 -141.171875 C 16.878906 -142.816406 17.148438 -144.457031 17.703125 -146.09375 C 18.410156 -149.375 19.859375 -151.75 22.046875 -153.21875 C 22.765625 -154.320312 23.757812 -155.148438 25.03125 -155.703125 C 27.039062 -156.984375 29.320312 -157.675781 31.875 -157.78125 C 34.425781 -157.882812 36.703125 -157.210938 38.703125 -155.765625 C 39.617188 -155.035156 40.535156 -154.257812 41.453125 -153.4375 C 42.367188 -152.625 43.101562 -151.582031 43.65625 -150.3125 C 44.019531 -149.394531 44.429688 -148.390625 44.890625 -147.296875 C 45.359375 -146.210938 45.5 -145.125 45.3125 -144.03125 C 45.144531 -142.757812 44.972656 -141.570312 44.796875 -140.46875 C 44.617188 -139.375 44.164062 -138.367188 43.4375 -137.453125 C 42.53125 -136.179688 41.800781 -135.269531 41.25 -134.71875 C 40.707031 -134.164062 39.804688 -133.429688 38.546875 -132.515625 C 37.816406 -131.773438 36.722656 -131.222656 35.265625 -130.859375 C 31.441406 -128.648438 28.164062 -127.90625 25.4375 -128.625 Z M 25.4375 -128.625 "/></g></g></g></svg>