<svg xmlns="http://www.w3.org/2000/svg" xmlns:xlink="http://www.w3.org/1999/xlink" width="1920" zoomAndPan="magnify" viewBox="0 0 1440 809.999993" height="1080" preserveAspectRatio="xMidYMid meet" version="1.0"><defs><g/><clipPath id="deacb53f06"><path d="M 82.164062 205.730469 L 1361 205.730469 L 1361 620.90625 L 82.164062 620.90625 Z M 82.164062 205.730469 " clip-rule="nonzero"/></clipPath><clipPath id="3b3ac5c3c2"><path d="M 120.414062 205.730469 L 1321.914062 205.730469 C 1332.058594 205.730469 1341.789062 209.761719 1348.960938 216.933594 C 1356.136719 224.109375 1360.164062 233.835938 1360.164062 243.980469 L 1360.164062 582.65625 C 1360.164062 592.800781 1356.136719 602.527344 1348.960938 609.703125 C 1341.789062 616.875 1332.058594 620.90625 1321.914062 620.90625 L 120.414062 620.90625 C 110.269531 620.90625 100.542969 616.875 93.367188 609.703125 C 86.195312 602.527344 82.164062 592.800781 82.164062 582.65625 L 82.164062 243.980469 C 82.164062 233.835938 86.195312 224.109375 93.367188 216.933594 C 100.542969 209.761719 110.269531 205.730469 120.414062 205.730469 Z M 120.414062 205.730469 " clip-rule="nonzero"/></clipPath><clipPath id="9fdb984e47"><path d="M 82.167969 205.730469 L 1360.164062 205.730469 L 1360.164062 621 L 82.167969 621 Z M 82.167969 205.730469 " clip-rule="nonzero"/></clipPath><clipPath id="f4fd48510d"><path d="M 120.417969 205.730469 L 1321.910156 205.730469 C 1332.054688 205.730469 1341.785156 209.761719 1348.957031 216.933594 C 1356.132812 224.109375 1360.160156 233.835938 1360.160156 243.980469 L 1360.160156 582.652344 C 1360.160156 592.796875 1356.132812 602.527344 1348.957031 609.699219 C 1341.785156 616.875 1332.054688 620.902344 1321.910156 620.902344 L 120.417969 620.902344 C 110.273438 620.902344 100.542969 616.875 93.371094 609.699219 C 86.199219 602.527344 82.167969 592.796875 82.167969 582.652344 L 82.167969 243.980469 C 82.167969 233.835938 86.199219 224.109375 93.371094 216.933594 C 100.542969 209.761719 110.273438 205.730469 120.417969 205.730469 Z M 120.417969 205.730469 " clip-rule="nonzero"/></clipPath><clipPath id="87942b7a12"><path d="M 82.164062 174.6875 L 1361 174.6875 L 1361 589.863281 L 82.164062 589.863281 Z M 82.164062 174.6875 " clip-rule="nonzero"/></clipPath><clipPath id="57f91fe558"><path d="M 120.414062 174.6875 L 1321.914062 174.6875 C 1332.058594 174.6875 1341.789062 178.71875 1348.960938 185.890625 C 1356.136719 193.0625 1360.164062 202.792969 1360.164062 212.9375 L 1360.164062 551.613281 C 1360.164062 561.757812 1356.136719 571.484375 1348.960938 578.660156 C 1341.789062 585.832031 1332.058594 589.863281 1321.914062 589.863281 L 120.414062 589.863281 C 110.269531 589.863281 100.542969 585.832031 93.367188 578.660156 C 86.195312 571.484375 82.164062 561.757812 82.164062 551.613281 L 82.164062 212.9375 C 82.164062 202.792969 86.195312 193.0625 93.367188 185.890625 C 100.542969 178.71875 110.269531 174.6875 120.414062 174.6875 Z M 120.414062 174.6875 " clip-rule="nonzero"/></clipPath><clipPath id="32817ff578"><path d="M 82.167969 174.6875 L 1360.164062 174.6875 L 1360.164062 590 L 82.167969 590 Z M 82.167969 174.6875 " clip-rule="nonzero"/></clipPath><clipPath id="d8f67240da"><path d="M 120.417969 174.6875 L 1321.910156 174.6875 C 1332.054688 174.6875 1341.785156 178.71875 1348.957031 185.890625 C 1356.132812 193.0625 1360.160156 202.792969 1360.160156 212.9375 L 1360.160156 551.609375 C 1360.160156 561.753906 1356.132812 571.484375 1348.957031 578.65625 C 1341.785156 585.828125 1332.054688 589.859375 1321.910156 589.859375 L 120.417969 589.859375 C 110.273438 589.859375 100.542969 585.828125 93.371094 578.65625 C 86.199219 571.484375 82.167969 561.753906 82.167969 551.609375 L 82.167969 212.9375 C 82.167969 202.792969 86.199219 193.0625 93.371094 185.890625 C 100.542969 178.71875 110.273438 174.6875 120.417969 174.6875 Z M 120.417969 174.6875 " clip-rule="nonzero"/></clipPath></defs><g clip-path="url(#deacb53f06)"><g clip-path="url(#3b3ac5c3c2)"><path fill="#005576" d="M 82.164062 205.730469 L 1360.121094 205.730469 L 1360.121094 620.90625 L 82.164062 620.90625 Z M 82.164062 205.730469 " fill-opacity="1" fill-rule="nonzero"/></g></g><g clip-path="url(#9fdb984e47)"><g clip-path="url(#f4fd48510d)"><path stroke-linecap="butt" transform="matrix(0.75, 0, 0, 0.75, 82.168156, 205.731221)" fill="none" stroke-linejoin="miter" d="M 50.999752 -0.0010028 L 1652.989416 -0.0010028 C 1666.515459 -0.0010028 1679.489418 5.373997 1689.051918 14.936498 C 1698.619627 24.504207 1703.989419 37.472957 1703.989419 50.999 L 1703.989419 502.561522 C 1703.989419 516.087565 1698.619627 529.061524 1689.051918 538.624024 C 1679.489418 548.191733 1666.515459 553.561525 1652.989416 553.561525 L 50.999752 553.561525 C 37.47371 553.561525 24.499751 548.191733 14.93725 538.624024 C 5.37475 529.061524 -0.000250318 516.087565 -0.000250318 502.561522 L -0.000250318 50.999 C -0.000250318 37.472957 5.37475 24.504207 14.93725 14.936498 C 24.499751 5.373997 37.47371 -0.0010028 50.999752 -0.0010028 Z M 50.999752 -0.0010028 " stroke="#000000" stroke-width="26" stroke-opacity="1" stroke-miterlimit="4"/></g></g><g clip-path="url(#87942b7a12)"><g clip-path="url(#57f91fe558)"><path fill="#00b7fe" d="M 82.164062 174.6875 L 1360.121094 174.6875 L 1360.121094 589.863281 L 82.164062 589.863281 Z M 82.164062 174.6875 " fill-opacity="1" fill-rule="nonzero"/></g></g><g clip-path="url(#32817ff578)"><g clip-path="url(#d8f67240da)"><path stroke-linecap="butt" transform="matrix(0.75, 0, 0, 0.75, 82.168156, 174.687784)" fill="none" stroke-linejoin="miter" d="M 50.999752 -0.000378682 L 1652.989416 -0.000378682 C 1666.515459 -0.000378682 1679.489418 5.374622 1689.051918 14.937122 C 1698.619627 24.499623 1703.989419 37.473582 1703.989419 50.999624 L 1703.989419 502.562147 C 1703.989419 516.088189 1698.619627 529.062148 1689.051918 538.624648 C 1679.489418 548.187149 1666.515459 553.562149 1652.989416 553.562149 L 50.999752 553.562149 C 37.47371 553.562149 24.499751 548.187149 14.93725 538.624648 C 5.37475 529.062148 -0.000250318 516.088189 -0.000250318 502.562147 L -0.000250318 50.999624 C -0.000250318 37.473582 5.37475 24.499623 14.93725 14.937122 C 24.499751 5.374622 37.47371 -0.000378682 50.999752 -0.000378682 Z M 50.999752 -0.000378682 " stroke="#000000" stroke-width="26" stroke-opacity="1" stroke-miterlimit="4"/></g></g><g fill="#000000" fill-opacity="1"><g transform="translate(178.398453, 471.614891)"><g><path d="M 3.125 -170.078125 C 0.1875 -169.703125 -2.382812 -170.703125 -4.59375 -173.078125 C -6.8125 -175.453125 -7.925781 -178.109375 -7.9375 -181.046875 C -7.945312 -184.160156 -6.851562 -186.6875 -4.65625 -188.625 C -2.46875 -190.5625 0.09375 -191.71875 3.03125 -192.09375 C 12.195312 -192.875 21.273438 -193.28125 30.265625 -193.3125 C 39.253906 -193.351562 48.335938 -193.117188 57.515625 -192.609375 C 60.078125 -193.535156 62.828125 -193.363281 65.765625 -192.09375 C 82.835938 -190.875 100.09375 -188.75 117.53125 -185.71875 C 120.46875 -185.175781 122.675781 -183.441406 124.15625 -180.515625 C 125.644531 -177.585938 125.9375 -174.835938 125.03125 -172.265625 C 124.125 -169.140625 122.429688 -166.972656 119.953125 -165.765625 C 117.484375 -164.566406 114.691406 -164.144531 111.578125 -164.5 C 104.597656 -165.75 97.710938 -166.816406 90.921875 -167.703125 C 84.128906 -168.585938 77.242188 -169.296875 70.265625 -169.828125 C 67.753906 -156.960938 66.296875 -144.109375 65.890625 -131.265625 C 65.484375 -118.429688 65.957031 -105.414062 67.3125 -92.21875 C 68.644531 -78.632812 70.53125 -65.195312 72.96875 -51.90625 C 75.414062 -38.613281 77.953125 -25.28125 80.578125 -11.90625 C 81.140625 -8.78125 80.828125 -5.976562 79.640625 -3.5 C 78.460938 -1.019531 76.320312 0.679688 73.21875 1.609375 C 70.46875 2.535156 67.664062 2.269531 64.8125 0.8125 C 61.96875 -0.632812 60.257812 -2.820312 59.6875 -5.75 C 56.6875 -20.601562 53.820312 -35.316406 51.09375 -49.890625 C 48.375 -64.460938 46.34375 -79.179688 45 -94.046875 C 43.84375 -107.054688 43.507812 -119.984375 44 -132.828125 C 44.5 -145.679688 45.914062 -158.4375 48.25 -171.09375 C 33.207031 -171.582031 18.164062 -171.242188 3.125 -170.078125 Z M 3.125 -170.078125 "/></g></g></g><g fill="#000000" fill-opacity="1"><g transform="translate(300.359618, 471.089224)"><g><path d="M 20.1875 -106.875 C 23.65625 -111.644531 27.8125 -115.875 32.65625 -119.5625 C 37.5 -123.257812 42.664062 -126.175781 48.15625 -128.3125 C 53.65625 -130.445312 59.335938 -131.570312 65.203125 -131.6875 C 71.078125 -131.8125 76.957031 -130.691406 82.84375 -128.328125 C 88.539062 -126.140625 93.6875 -123.175781 98.28125 -119.4375 C 102.882812 -115.695312 106.484375 -110.898438 109.078125 -105.046875 C 111.109375 -100.648438 112.316406 -95.882812 112.703125 -90.75 C 113.097656 -85.613281 111.742188 -80.929688 108.640625 -76.703125 C 105.910156 -72.835938 102.578125 -69.882812 98.640625 -67.84375 C 94.703125 -65.8125 90.488281 -64.328125 86 -63.390625 C 81.507812 -62.453125 76.925781 -61.972656 72.25 -61.953125 C 67.570312 -61.929688 63.125 -62.003906 58.90625 -62.171875 C 54.132812 -62.328125 49.40625 -62.671875 44.71875 -63.203125 C 40.03125 -63.734375 35.304688 -64.265625 30.546875 -64.796875 C 32.046875 -56.546875 35.007812 -49.21875 39.4375 -42.8125 C 43.875 -36.414062 49.859375 -31.582031 57.390625 -28.3125 C 59.421875 -27.59375 60.984375 -27.050781 62.078125 -26.6875 C 62.628906 -26.5 63.132812 -26.363281 63.59375 -26.28125 C 64.050781 -26.195312 64.554688 -26.15625 65.109375 -26.15625 C 66.578125 -25.976562 67.816406 -25.84375 68.828125 -25.75 C 69.835938 -25.65625 70.800781 -25.707031 71.71875 -25.90625 C 73 -26.09375 73.867188 -26.234375 74.328125 -26.328125 C 74.785156 -26.421875 75.289062 -26.5625 75.84375 -26.75 C 77.851562 -27.3125 79.632812 -27.960938 81.1875 -28.703125 C 82.75 -29.441406 84.625 -30.640625 86.8125 -32.296875 C 87.914062 -33.210938 89.378906 -34.59375 91.203125 -36.4375 C 93.023438 -38.28125 94.582031 -39.9375 95.875 -41.40625 C 97.695312 -43.988281 99.9375 -45.742188 102.59375 -46.671875 C 105.25 -47.597656 107.957031 -47.242188 110.71875 -45.609375 C 113.101562 -44.160156 114.804688 -41.921875 115.828125 -38.890625 C 116.847656 -35.859375 116.445312 -33.0625 114.625 -30.5 C 109.34375 -23.3125 103.085938 -17.175781 95.859375 -12.09375 C 88.628906 -7.019531 80.335938 -4.285156 70.984375 -3.890625 C 63.460938 -3.484375 56.207031 -4.78125 49.21875 -7.78125 C 42.238281 -10.78125 36.082031 -14.832031 30.75 -19.9375 C 24.113281 -26.34375 18.847656 -33.753906 14.953125 -42.171875 C 11.066406 -50.597656 8.921875 -59.207031 8.515625 -68 C 6.859375 -69.289062 5.613281 -70.894531 4.78125 -72.8125 C 3.945312 -74.726562 3.660156 -76.695312 3.921875 -78.71875 C 4.179688 -80.738281 4.859375 -82.617188 5.953125 -84.359375 C 7.054688 -86.109375 8.707031 -87.265625 10.90625 -87.828125 C 12.894531 -94.628906 15.988281 -100.976562 20.1875 -106.875 Z M 86.25 -100.546875 C 84.21875 -103.097656 81.09375 -105.375 76.875 -107.375 C 73.375 -108.832031 69.285156 -109.550781 64.609375 -109.53125 C 59.929688 -109.507812 55.945312 -108.671875 52.65625 -107.015625 C 48.4375 -104.972656 44.679688 -102.15625 41.390625 -98.5625 C 38.109375 -94.96875 35.46875 -90.960938 33.46875 -86.546875 C 37.875 -86.015625 42.28125 -85.484375 46.6875 -84.953125 C 51.09375 -84.429688 55.5 -84.085938 59.90625 -83.921875 C 62.289062 -83.929688 64.675781 -83.941406 67.0625 -83.953125 C 69.445312 -83.960938 71.832031 -84.066406 74.21875 -84.265625 C 74.945312 -84.265625 75.632812 -84.304688 76.28125 -84.390625 C 76.925781 -84.484375 77.613281 -84.535156 78.34375 -84.546875 C 80 -84.921875 81.238281 -85.15625 82.0625 -85.25 C 82.882812 -85.34375 83.75 -85.570312 84.65625 -85.9375 C 85.394531 -86.132812 86.3125 -86.414062 87.40625 -86.78125 C 88.320312 -87.15625 88.875 -87.4375 89.0625 -87.625 C 89.25 -87.8125 89.523438 -87.992188 89.890625 -88.171875 L 90.703125 -91.484375 C 90.328125 -92.210938 90.09375 -92.894531 90 -93.53125 C 89.90625 -94.175781 89.675781 -94.773438 89.3125 -95.328125 C 89.125 -95.878906 88.707031 -96.703125 88.0625 -97.796875 C 87.414062 -98.890625 86.8125 -99.804688 86.25 -100.546875 Z M 86.25 -100.546875 "/></g></g></g><g fill="#000000" fill-opacity="1"><g transform="translate(438.006204, 470.495952)"><g><path d="M 28.53125 -216.15625 C 31.832031 -216.164062 34.398438 -215.070312 36.234375 -212.875 C 38.078125 -210.6875 39.191406 -208.125 39.578125 -205.1875 C 41.484375 -187.769531 42.5625 -170.347656 42.8125 -152.921875 C 43.070312 -135.492188 42.921875 -118.0625 42.359375 -100.625 C 41.796875 -83.195312 40.90625 -65.765625 39.6875 -48.328125 C 38.476562 -30.890625 37.269531 -13.546875 36.0625 3.703125 C 35.707031 6.816406 34.570312 9.429688 32.65625 11.546875 C 30.738281 13.671875 28.222656 14.738281 25.109375 14.75 C 22.359375 14.757812 19.785156 13.710938 17.390625 11.609375 C 14.992188 9.515625 13.878906 6.910156 14.046875 3.796875 C 15.265625 -13.453125 16.523438 -30.796875 17.828125 -48.234375 C 19.128906 -65.671875 20.0625 -83.101562 20.625 -100.53125 C 21.1875 -117.96875 21.335938 -135.398438 21.078125 -152.828125 C 20.828125 -170.253906 19.75 -187.675781 17.84375 -205.09375 C 17.445312 -208.03125 18.4375 -210.601562 20.8125 -212.8125 C 23.195312 -215.03125 25.769531 -216.144531 28.53125 -216.15625 Z M 28.53125 -216.15625 "/></g></g></g><g fill="#000000" fill-opacity="1"><g transform="translate(511.259973, 470.18022)"><g><path d="M 20.1875 -106.875 C 23.65625 -111.644531 27.8125 -115.875 32.65625 -119.5625 C 37.5 -123.257812 42.664062 -126.175781 48.15625 -128.3125 C 53.65625 -130.445312 59.335938 -131.570312 65.203125 -131.6875 C 71.078125 -131.8125 76.957031 -130.691406 82.84375 -128.328125 C 88.539062 -126.140625 93.6875 -123.175781 98.28125 -119.4375 C 102.882812 -115.695312 106.484375 -110.898438 109.078125 -105.046875 C 111.109375 -100.648438 112.316406 -95.882812 112.703125 -90.75 C 113.097656 -85.613281 111.742188 -80.929688 108.640625 -76.703125 C 105.910156 -72.835938 102.578125 -69.882812 98.640625 -67.84375 C 94.703125 -65.8125 90.488281 -64.328125 86 -63.390625 C 81.507812 -62.453125 76.925781 -61.972656 72.25 -61.953125 C 67.570312 -61.929688 63.125 -62.003906 58.90625 -62.171875 C 54.132812 -62.328125 49.40625 -62.671875 44.71875 -63.203125 C 40.03125 -63.734375 35.304688 -64.265625 30.546875 -64.796875 C 32.046875 -56.546875 35.007812 -49.21875 39.4375 -42.8125 C 43.875 -36.414062 49.859375 -31.582031 57.390625 -28.3125 C 59.421875 -27.59375 60.984375 -27.050781 62.078125 -26.6875 C 62.628906 -26.5 63.132812 -26.363281 63.59375 -26.28125 C 64.050781 -26.195312 64.554688 -26.15625 65.109375 -26.15625 C 66.578125 -25.976562 67.816406 -25.84375 68.828125 -25.75 C 69.835938 -25.65625 70.800781 -25.707031 71.71875 -25.90625 C 73 -26.09375 73.867188 -26.234375 74.328125 -26.328125 C 74.785156 -26.421875 75.289062 -26.5625 75.84375 -26.75 C 77.851562 -27.3125 79.632812 -27.960938 81.1875 -28.703125 C 82.75 -29.441406 84.625 -30.640625 86.8125 -32.296875 C 87.914062 -33.210938 89.378906 -34.59375 91.203125 -36.4375 C 93.023438 -38.28125 94.582031 -39.9375 95.875 -41.40625 C 97.695312 -43.988281 99.9375 -45.742188 102.59375 -46.671875 C 105.25 -47.597656 107.957031 -47.242188 110.71875 -45.609375 C 113.101562 -44.160156 114.804688 -41.921875 115.828125 -38.890625 C 116.847656 -35.859375 116.445312 -33.0625 114.625 -30.5 C 109.34375 -23.3125 103.085938 -17.175781 95.859375 -12.09375 C 88.628906 -7.019531 80.335938 -4.285156 70.984375 -3.890625 C 63.460938 -3.484375 56.207031 -4.78125 49.21875 -7.78125 C 42.238281 -10.78125 36.082031 -14.832031 30.75 -19.9375 C 24.113281 -26.34375 18.847656 -33.753906 14.953125 -42.171875 C 11.066406 -50.597656 8.921875 -59.207031 8.515625 -68 C 6.859375 -69.289062 5.613281 -70.894531 4.78125 -72.8125 C 3.945312 -74.726562 3.660156 -76.695312 3.921875 -78.71875 C 4.179688 -80.738281 4.859375 -82.617188 5.953125 -84.359375 C 7.054688 -86.109375 8.707031 -87.265625 10.90625 -87.828125 C 12.894531 -94.628906 15.988281 -100.976562 20.1875 -106.875 Z M 86.25 -100.546875 C 84.21875 -103.097656 81.09375 -105.375 76.875 -107.375 C 73.375 -108.832031 69.285156 -109.550781 64.609375 -109.53125 C 59.929688 -109.507812 55.945312 -108.671875 52.65625 -107.015625 C 48.4375 -104.972656 44.679688 -102.15625 41.390625 -98.5625 C 38.109375 -94.96875 35.46875 -90.960938 33.46875 -86.546875 C 37.875 -86.015625 42.28125 -85.484375 46.6875 -84.953125 C 51.09375 -84.429688 55.5 -84.085938 59.90625 -83.921875 C 62.289062 -83.929688 64.675781 -83.941406 67.0625 -83.953125 C 69.445312 -83.960938 71.832031 -84.066406 74.21875 -84.265625 C 74.945312 -84.265625 75.632812 -84.304688 76.28125 -84.390625 C 76.925781 -84.484375 77.613281 -84.535156 78.34375 -84.546875 C 80 -84.921875 81.238281 -85.15625 82.0625 -85.25 C 82.882812 -85.34375 83.75 -85.570312 84.65625 -85.9375 C 85.394531 -86.132812 86.3125 -86.414062 87.40625 -86.78125 C 88.320312 -87.15625 88.875 -87.4375 89.0625 -87.625 C 89.25 -87.8125 89.523438 -87.992188 89.890625 -88.171875 L 90.703125 -91.484375 C 90.328125 -92.210938 90.09375 -92.894531 90 -93.53125 C 89.90625 -94.175781 89.675781 -94.773438 89.3125 -95.328125 C 89.125 -95.878906 88.707031 -96.703125 88.0625 -97.796875 C 87.414062 -98.890625 86.8125 -99.804688 86.25 -100.546875 Z M 86.25 -100.546875 "/></g></g></g><g fill="#000000" fill-opacity="1"><g transform="translate(648.906575, 469.586948)"><g><path d="M 14.875 70.390625 C 18.9375 74.222656 23.628906 76.90625 28.953125 78.4375 C 34.273438 79.976562 39.597656 80.460938 44.921875 79.890625 C 50.242188 79.316406 55.285156 77.734375 60.046875 75.140625 C 64.804688 72.554688 68.734375 68.960938 71.828125 64.359375 C 78.390625 54.984375 82.609375 44.644531 84.484375 33.34375 C 86.367188 22.050781 87.101562 10.71875 86.6875 -0.65625 C 77.882812 0.851562 68.847656 1.210938 59.578125 0.421875 C 50.316406 -0.359375 41.550781 -2.289062 33.28125 -5.375 C 29.050781 -7 25.050781 -8.945312 21.28125 -11.21875 C 17.507812 -13.5 14.515625 -16.75 12.296875 -20.96875 C 8.410156 -28.101562 6.726562 -35.984375 7.25 -44.609375 C 7.570312 -52.867188 8.953125 -60.898438 11.390625 -68.703125 C 13.835938 -76.515625 16.609375 -84.285156 19.703125 -92.015625 C 21.328125 -95.679688 23.09375 -99.582031 25 -103.71875 C 26.914062 -107.851562 29.421875 -111.578125 32.515625 -114.890625 C 35.628906 -118.390625 39.195312 -121.066406 43.21875 -122.921875 C 47.25 -124.773438 51.554688 -125.894531 56.140625 -126.28125 C 55.398438 -128.84375 55.390625 -131.269531 56.109375 -133.5625 C 56.835938 -135.863281 58.394531 -137.753906 60.78125 -139.234375 C 63.15625 -140.710938 65.945312 -141.09375 69.15625 -140.375 C 72.375 -139.65625 74.628906 -138.015625 75.921875 -135.453125 C 76.660156 -133.796875 77.351562 -132.144531 78 -130.5 C 78.65625 -128.851562 79.265625 -127.207031 79.828125 -125.5625 C 83.535156 -115.675781 86.921875 -105.691406 89.984375 -95.609375 C 93.054688 -85.523438 95.988281 -75.351562 98.78125 -65.09375 C 102.132812 -53 104.660156 -40.71875 106.359375 -28.25 C 108.066406 -15.78125 108.769531 -3.125 108.46875 9.71875 C 108.320312 16.875 107.757812 24.210938 106.78125 31.734375 C 105.800781 39.265625 104.132812 46.519531 101.78125 53.5 C 99.425781 60.476562 96.332031 67.140625 92.5 73.484375 C 88.675781 79.835938 83.75 85.320312 77.71875 89.9375 C 72.050781 94.363281 65.78125 97.550781 58.90625 99.5 C 52.03125 101.457031 45.0625 102.269531 38 101.9375 C 30.9375 101.601562 24.050781 100.070312 17.34375 97.34375 C 10.632812 94.625 4.703125 90.796875 -0.453125 85.859375 C -3.023438 83.484375 -4.132812 80.875 -3.78125 78.03125 C -3.4375 75.1875 -2.300781 72.796875 -0.375 70.859375 C 1.539062 68.921875 3.914062 67.765625 6.75 67.390625 C 9.59375 67.015625 12.300781 68.015625 14.875 70.390625 Z M 45.015625 -24.671875 C 51.453125 -23.054688 58.109375 -21.941406 64.984375 -21.328125 C 71.867188 -20.722656 78.519531 -21.164062 84.9375 -22.65625 C 83.800781 -32.007812 82.15625 -40.988281 80 -49.59375 C 77.851562 -58.207031 75.476562 -66.914062 72.875 -75.71875 C 71.382812 -80.851562 69.847656 -85.890625 68.265625 -90.828125 C 66.691406 -95.773438 65.066406 -100.726562 63.390625 -105.6875 C 62.835938 -105.300781 62.191406 -105.0625 61.453125 -104.96875 C 60.722656 -104.882812 59.898438 -104.742188 58.984375 -104.546875 C 53.484375 -104.523438 49.273438 -102.035156 46.359375 -97.078125 C 44.359375 -93.941406 42.722656 -90.628906 41.453125 -87.140625 C 41.085938 -86.210938 40.722656 -85.335938 40.359375 -84.515625 C 39.992188 -83.691406 39.628906 -82.820312 39.265625 -81.90625 C 36.546875 -75.289062 34.234375 -68.90625 32.328125 -62.75 C 30.429688 -56.59375 29.316406 -50.578125 28.984375 -44.703125 L 29 -39.75 C 29.195312 -38.46875 29.382812 -37.457031 29.5625 -36.71875 C 29.9375 -35.070312 30.171875 -34.0625 30.265625 -33.6875 C 30.359375 -33.320312 30.867188 -32.414062 31.796875 -30.96875 C 32.898438 -30.050781 33.910156 -29.316406 34.828125 -28.765625 C 35.742188 -28.222656 36.289062 -27.859375 36.46875 -27.671875 C 37.945312 -27.128906 39.375 -26.585938 40.75 -26.046875 C 42.132812 -25.503906 43.554688 -25.046875 45.015625 -24.671875 Z M 45.015625 -24.671875 "/></g></g></g><g fill="#000000" fill-opacity="1"><g transform="translate(778.572868, 469.028072)"><g><path d="M 15.75 -112.0625 C 15.925781 -115.5625 17.203125 -118.1875 19.578125 -119.9375 C 21.953125 -121.6875 24.515625 -122.566406 27.265625 -122.578125 C 30.015625 -122.585938 32.445312 -121.726562 34.5625 -120 C 36.6875 -118.269531 37.660156 -115.65625 37.484375 -112.15625 C 37.492188 -111.0625 37.457031 -109.914062 37.375 -108.71875 C 37.289062 -107.53125 37.25 -106.382812 37.25 -105.28125 C 43.101562 -108.25 49.28125 -110.800781 55.78125 -112.9375 C 62.289062 -115.070312 68.800781 -116.425781 75.3125 -117 C 81.820312 -117.582031 88.148438 -117.109375 94.296875 -115.578125 C 100.453125 -114.046875 106.113281 -111.085938 111.28125 -106.703125 C 113.851562 -104.328125 115.003906 -101.765625 114.734375 -99.015625 C 114.472656 -96.265625 113.382812 -93.921875 111.46875 -91.984375 C 109.550781 -90.046875 107.125 -88.84375 104.1875 -88.375 C 101.257812 -87.90625 98.414062 -88.757812 95.65625 -90.9375 C 93.625 -92.59375 91.367188 -93.78125 88.890625 -94.5 C 86.410156 -95.226562 83.75 -95.535156 80.90625 -95.421875 C 78.0625 -95.316406 75.21875 -94.984375 72.375 -94.421875 C 69.53125 -93.867188 66.832031 -93.21875 64.28125 -92.46875 C 54.5625 -89.3125 45.492188 -85.144531 37.078125 -79.96875 C 37.484375 -70.976562 38.070312 -61.992188 38.84375 -53.015625 C 39.613281 -45.484375 40.289062 -37.726562 40.875 -29.75 C 41.457031 -21.78125 43.050781 -14.222656 45.65625 -7.078125 C 46.757812 -3.773438 46.535156 -0.976562 44.984375 1.3125 C 43.441406 3.613281 41.34375 5.132812 38.6875 5.875 C 36.03125 6.625 33.273438 6.457031 30.421875 5.375 C 27.578125 4.289062 25.597656 2.097656 24.484375 -1.203125 C 23.003906 -5.421875 21.976562 -9.726562 21.40625 -14.125 C 20.832031 -18.53125 20.257812 -22.929688 19.6875 -27.328125 C 19.3125 -31.546875 18.882812 -35.804688 18.40625 -40.109375 C 17.925781 -44.421875 17.492188 -48.691406 17.109375 -52.921875 C 16.148438 -62.816406 15.507812 -72.671875 15.1875 -82.484375 C 14.875 -92.296875 15.0625 -102.15625 15.75 -112.0625 Z M 15.75 -112.0625 "/></g></g></g><g fill="#000000" fill-opacity="1"><g transform="translate(907.964004, 468.470381)"><g><path d="M 32.171875 -7.578125 C 25.921875 -10.296875 20.992188 -14.078125 17.390625 -18.921875 C 13.796875 -23.765625 11.296875 -29.117188 9.890625 -34.984375 C 8.492188 -40.847656 8.054688 -46.945312 8.578125 -53.28125 C 9.097656 -59.625 10.351562 -65.726562 12.34375 -71.59375 C 13.976562 -76.195312 15.835938 -80.976562 17.921875 -85.9375 C 20.015625 -90.90625 22.519531 -95.503906 25.4375 -99.734375 C 28.351562 -103.960938 31.820312 -107.597656 35.84375 -110.640625 C 39.863281 -113.691406 44.628906 -115.6875 50.140625 -116.625 C 55.828125 -117.5625 61.554688 -117.90625 67.328125 -117.65625 C 73.109375 -117.40625 78.84375 -116.832031 84.53125 -115.9375 C 87.101562 -115.582031 89.582031 -114.992188 91.96875 -114.171875 C 94.363281 -113.359375 96.753906 -112.5 99.140625 -111.59375 C 99.304688 -114.363281 100.535156 -116.664062 102.828125 -118.5 C 105.117188 -120.34375 107.546875 -121.269531 110.109375 -121.28125 C 113.234375 -121.300781 115.757812 -120.257812 117.6875 -118.15625 C 119.613281 -116.050781 120.773438 -113.53125 121.171875 -110.59375 C 122.117188 -102.164062 122.5625 -93.726562 122.5 -85.28125 C 122.445312 -76.84375 122.207031 -68.398438 121.78125 -59.953125 C 121.363281 -51.515625 121.035156 -43.078125 120.796875 -34.640625 C 120.554688 -26.203125 120.640625 -17.765625 121.046875 -9.328125 C 121.242188 -5.835938 120.195312 -3.21875 117.90625 -1.46875 C 115.625 0.28125 113.101562 1.160156 110.34375 1.171875 C 107.59375 1.191406 105.066406 0.335938 102.765625 -1.390625 C 100.472656 -3.128906 99.226562 -5.742188 99.03125 -9.234375 C 88.59375 -4.785156 77.503906 -2.210938 65.765625 -1.515625 C 54.023438 -0.828125 42.828125 -2.847656 32.171875 -7.578125 Z M 33.84375 -67.28125 C 32.75 -63.976562 31.75 -60.210938 30.84375 -55.984375 C 29.945312 -51.765625 29.691406 -47.726562 30.078125 -43.875 C 30.472656 -40.019531 31.679688 -36.492188 33.703125 -33.296875 C 35.734375 -30.097656 39.046875 -27.867188 43.640625 -26.609375 C 53.015625 -23.710938 62.421875 -22.925781 71.859375 -24.25 C 81.304688 -25.582031 90.144531 -28.921875 98.375 -34.265625 C 99.070312 -43.253906 99.628906 -51.972656 100.046875 -60.421875 C 100.472656 -68.867188 100.570312 -77.398438 100.34375 -86.015625 C 97.226562 -88.015625 94.054688 -89.789062 90.828125 -91.34375 C 87.609375 -92.894531 84.070312 -93.929688 80.21875 -94.453125 C 76.375 -94.992188 72.296875 -95.390625 67.984375 -95.640625 C 63.671875 -95.898438 59.492188 -95.835938 55.453125 -95.453125 C 55.085938 -95.453125 54.125 -95.21875 52.5625 -94.75 C 51.007812 -94.289062 50.140625 -93.96875 49.953125 -93.78125 C 48.128906 -92.851562 46.484375 -91.378906 45.015625 -89.359375 C 42.648438 -86.046875 40.554688 -82.503906 38.734375 -78.734375 C 36.921875 -74.960938 35.289062 -71.144531 33.84375 -67.28125 Z M 33.84375 -67.28125 "/></g></g></g><g fill="#000000" fill-opacity="1"><g transform="translate(1058.819339, 467.820178)"><g><path d="M 36.0625 3.421875 C 33.5 4.347656 30.695312 4.082031 27.65625 2.625 C 24.625 1.175781 22.921875 -1.015625 22.546875 -3.953125 C 19.910156 -20.078125 18.234375 -36.070312 17.515625 -51.9375 C 16.804688 -67.8125 16.414062 -83.820312 16.34375 -99.96875 C 16.332031 -102.71875 17.054688 -104.921875 18.515625 -106.578125 C 19.984375 -108.234375 21.726562 -109.34375 23.75 -109.90625 C 25.769531 -110.46875 27.878906 -110.566406 30.078125 -110.203125 C 32.273438 -109.847656 34.109375 -108.941406 35.578125 -107.484375 C 39.785156 -110.984375 44.269531 -114.03125 49.03125 -116.625 C 53.789062 -119.21875 58.597656 -120.9375 63.453125 -121.78125 C 68.316406 -122.625 73.132812 -122.367188 77.90625 -121.015625 C 82.675781 -119.660156 87.1875 -116.785156 91.4375 -112.390625 C 94.9375 -108.742188 97.976562 -104.859375 100.5625 -100.734375 C 103.144531 -96.617188 105.457031 -92.273438 107.5 -87.703125 C 110.21875 -94.679688 114.039062 -101.117188 118.96875 -107.015625 C 123.894531 -112.910156 130.207031 -116.878906 137.90625 -118.921875 C 143.59375 -120.410156 148.09375 -120.109375 151.40625 -118.015625 C 154.71875 -115.921875 157.847656 -112.675781 160.796875 -108.28125 C 163.929688 -103.71875 166.835938 -99.054688 169.515625 -94.296875 C 172.203125 -89.535156 174.75 -84.6875 177.15625 -79.75 C 179.5625 -74.800781 181.875 -69.851562 184.09375 -64.90625 C 186.320312 -59.96875 188.546875 -55.117188 190.765625 -50.359375 C 193.367188 -45.046875 195.640625 -39.78125 197.578125 -34.5625 C 199.523438 -29.34375 200.785156 -23.796875 201.359375 -17.921875 C 201.742188 -14.816406 200.703125 -12.203125 198.234375 -10.078125 C 195.765625 -7.953125 193.15625 -6.878906 190.40625 -6.859375 C 187.28125 -6.847656 184.75 -7.894531 182.8125 -10 C 180.882812 -12.113281 179.726562 -14.722656 179.34375 -17.828125 C 178.957031 -22.234375 177.789062 -26.492188 175.84375 -30.609375 C 173.90625 -34.734375 172.007812 -38.8125 170.15625 -42.84375 C 168.125 -47.050781 166.132812 -51.347656 164.1875 -55.734375 C 162.238281 -60.128906 160.25 -64.4375 158.21875 -68.65625 C 156.1875 -72.863281 154.015625 -77.070312 151.703125 -81.28125 C 149.390625 -85.488281 146.9375 -89.609375 144.34375 -93.640625 C 143.976562 -94.191406 143.609375 -94.738281 143.234375 -95.28125 C 142.867188 -95.820312 142.5 -96.367188 142.125 -96.921875 C 138.46875 -94.898438 135.816406 -92.960938 134.171875 -91.109375 C 132.535156 -89.265625 130.988281 -86.785156 129.53125 -83.671875 C 128.257812 -80.910156 127.21875 -78.015625 126.40625 -74.984375 C 125.59375 -71.960938 124.914062 -68.882812 124.375 -65.75 C 123.300781 -59.882812 122.503906 -53.738281 121.984375 -47.3125 C 121.640625 -42.53125 121.707031 -37.941406 122.1875 -33.546875 C 122.664062 -29.148438 122.457031 -24.5625 121.5625 -19.78125 C 121.019531 -16.84375 119.328125 -14.632812 116.484375 -13.15625 C 113.648438 -11.675781 110.859375 -11.300781 108.109375 -12.03125 C 105.535156 -12.75 103.644531 -14.066406 102.4375 -15.984375 C 101.238281 -17.910156 100.453125 -20.160156 100.078125 -22.734375 C 99.304688 -28.585938 98.445312 -34.632812 97.5 -40.875 C 96.5625 -47.113281 95.347656 -53.300781 93.859375 -59.4375 C 92.367188 -65.570312 90.460938 -71.519531 88.140625 -77.28125 C 85.816406 -83.050781 82.8125 -88.410156 79.125 -93.359375 C 76.539062 -96.648438 73.914062 -98.835938 71.25 -99.921875 C 68.59375 -101.015625 65.34375 -100.546875 61.5 -98.515625 C 57.289062 -96.285156 53.171875 -93.601562 49.140625 -90.46875 C 45.117188 -87.332031 41.554688 -83.835938 38.453125 -79.984375 C 38.691406 -68.234375 39.15625 -56.535156 39.84375 -44.890625 C 40.53125 -33.242188 41.816406 -21.644531 43.703125 -10.09375 C 44.097656 -6.976562 43.703125 -4.175781 42.515625 -1.6875 C 41.335938 0.789062 39.1875 2.492188 36.0625 3.421875 Z M 36.0625 3.421875 "/></g></g></g></svg>