<svg xmlns="http://www.w3.org/2000/svg" xmlns:xlink="http://www.w3.org/1999/xlink" width="1536" zoomAndPan="magnify" viewBox="0 0 1152 647.999998" height="864" preserveAspectRatio="xMidYMid meet" version="1.0"><defs><g/></defs><g fill="#ff3131" fill-opacity="1"><g transform="translate(19.939216, 536.438782)"><g><path d="M 70.09375 -122.703125 C 70.34375 -116.929688 70.289062 -111.148438 69.9375 -105.359375 C 69.582031 -99.578125 69.847656 -93.835938 70.734375 -88.140625 C 71.671875 -81.898438 72.613281 -75.660156 73.5625 -69.421875 C 74.507812 -63.191406 75.269531 -56.878906 75.84375 -50.484375 C 76.3125 -43.804688 76.84375 -37.132812 77.4375 -30.46875 C 78.03125 -23.800781 78.757812 -17.144531 79.625 -10.5 C 79.894531 -8.03125 79.28125 -6.082031 77.78125 -4.65625 C 76.289062 -3.238281 74.566406 -2.421875 72.609375 -2.203125 C 70.660156 -1.992188 68.800781 -2.421875 67.03125 -3.484375 C 65.257812 -4.546875 64.238281 -6.3125 63.96875 -8.78125 C 62.8125 -18.164062 61.921875 -27.507812 61.296875 -36.8125 C 60.671875 -46.113281 59.78125 -55.453125 58.625 -64.828125 C 49.78125 -61.210938 40.179688 -59.695312 29.828125 -60.28125 C 27.441406 -60.414062 24.914062 -60.570312 22.25 -60.75 C 19.59375 -60.925781 16.976562 -61.269531 14.40625 -61.78125 C 11.84375 -62.289062 9.378906 -63.070312 7.015625 -64.125 C 4.660156 -65.1875 2.585938 -66.675781 0.796875 -68.59375 C -0.867188 -70.519531 -2.070312 -72.757812 -2.8125 -75.3125 C -3.550781 -77.875 -3.90625 -80.507812 -3.875 -83.21875 C -3.84375 -85.9375 -3.609375 -88.640625 -3.171875 -91.328125 C -2.742188 -94.015625 -2.195312 -96.515625 -1.53125 -98.828125 C 0.28125 -105.234375 2.644531 -111.367188 5.5625 -117.234375 C 8.476562 -123.097656 11.96875 -128.5625 16.03125 -133.625 C 19.0625 -137.375 22.457031 -140.773438 26.21875 -143.828125 C 29.976562 -146.878906 34.0625 -149.375 38.46875 -151.3125 C 41.34375 -152.6875 44.40625 -153.617188 47.65625 -154.109375 C 50.90625 -154.609375 53.992188 -154.15625 56.921875 -152.75 C 59.703125 -151.46875 61.941406 -149.695312 63.640625 -147.4375 C 65.335938 -145.1875 66.632812 -142.65625 67.53125 -139.84375 C 68.425781 -137.039062 69.035156 -134.171875 69.359375 -131.234375 C 69.679688 -128.304688 69.925781 -125.460938 70.09375 -122.703125 Z M 54.375 -125.34375 C 54.226562 -126.644531 54.082031 -127.945312 53.9375 -129.25 C 53.800781 -130.5625 53.59375 -131.863281 53.3125 -133.15625 C 53.1875 -133.132812 53.050781 -133.476562 52.90625 -134.1875 C 52.757812 -134.90625 52.613281 -135.382812 52.46875 -135.625 C 51.769531 -137.132812 51.28125 -137.941406 51 -138.046875 L 48.203125 -138.328125 C 44.128906 -136.953125 40.566406 -135.109375 37.515625 -132.796875 C 34.472656 -130.484375 31.671875 -127.800781 29.109375 -124.75 C 22.472656 -116.625 17.570312 -107.703125 14.40625 -97.984375 C 13.695312 -95.941406 13.097656 -93.835938 12.609375 -91.671875 C 12.128906 -89.503906 11.875 -87.363281 11.84375 -85.25 C 11.945312 -84.332031 12.007812 -83.445312 12.03125 -82.59375 C 12.0625 -81.738281 12.1875 -80.925781 12.40625 -80.15625 L 14.203125 -78.1875 C 15.566406 -77.789062 16.445312 -77.550781 16.84375 -77.46875 C 17.25 -77.382812 17.660156 -77.300781 18.078125 -77.21875 C 22.890625 -76.550781 27.691406 -76.085938 32.484375 -75.828125 C 41.242188 -75.328125 49.109375 -76.984375 56.078125 -80.796875 C 55.734375 -82.742188 55.421875 -84.71875 55.140625 -86.71875 C 54.859375 -88.726562 54.671875 -90.722656 54.578125 -92.703125 C 54.578125 -95.078125 54.578125 -97.453125 54.578125 -99.828125 C 54.585938 -102.203125 54.609375 -104.515625 54.640625 -106.765625 C 54.691406 -109.804688 54.710938 -112.878906 54.703125 -115.984375 C 54.691406 -119.085938 54.582031 -122.207031 54.375 -125.34375 Z M 54.375 -125.34375 "/></g></g></g><g fill="#ff3131" fill-opacity="1"><g transform="translate(120.850024, 525.381848)"><g><path d="M 67.09375 -81.59375 C 70.382812 -80.375 73.875 -78.875 77.5625 -77.09375 C 81.257812 -75.320312 84.722656 -73.226562 87.953125 -70.8125 C 91.191406 -68.394531 94 -65.664062 96.375 -62.625 C 98.757812 -59.59375 100.300781 -56.128906 101 -52.234375 C 101.6875 -48.222656 101.140625 -44.4375 99.359375 -40.875 C 97.578125 -37.320312 95.238281 -34.265625 92.34375 -31.703125 C 91.394531 -30.796875 90.394531 -29.988281 89.34375 -29.28125 C 88.300781 -28.582031 87.226562 -27.835938 86.125 -27.046875 C 85.507812 -26.710938 84.859375 -26.34375 84.171875 -25.9375 C 83.484375 -25.539062 82.765625 -25.171875 82.015625 -24.828125 C 80.023438 -23.679688 78.222656 -22.625 76.609375 -21.65625 C 75.003906 -20.6875 73.390625 -19.785156 71.765625 -18.953125 C 68.273438 -17.117188 64.519531 -15.253906 60.5 -13.359375 C 56.476562 -11.460938 52.382812 -9.957031 48.21875 -8.84375 C 44.0625 -7.726562 39.894531 -7.238281 35.71875 -7.375 C 31.550781 -7.507812 27.554688 -8.757812 23.734375 -11.125 C 21.890625 -12.238281 20.90625 -13.941406 20.78125 -16.234375 C 20.664062 -18.523438 21.25 -20.472656 22.53125 -22.078125 C 24.039062 -23.960938 25.8125 -24.945312 27.84375 -25.03125 C 29.875 -25.125 31.816406 -24.546875 33.671875 -23.296875 L 36.703125 -22.84375 C 36.546875 -22.945312 36.863281 -23.007812 37.65625 -23.03125 C 38.457031 -23.0625 38.921875 -23.082031 39.046875 -23.09375 C 40.359375 -23.238281 41.257812 -23.398438 41.75 -23.578125 C 43.570312 -23.921875 45.597656 -24.476562 47.828125 -25.25 C 50.054688 -26.019531 52.109375 -26.835938 53.984375 -27.703125 C 58.265625 -29.617188 62.242188 -31.535156 65.921875 -33.453125 C 69.597656 -35.378906 73.226562 -37.457031 76.8125 -39.6875 C 77.8125 -40.332031 78.890625 -41.078125 80.046875 -41.921875 C 81.203125 -42.773438 82.140625 -43.578125 82.859375 -44.328125 C 83.328125 -44.765625 83.96875 -45.492188 84.78125 -46.515625 L 85.578125 -48.375 C 85.578125 -49.570312 85.503906 -50.222656 85.359375 -50.328125 L 84.34375 -52.40625 C 83.863281 -53.132812 83.398438 -53.738281 82.953125 -54.21875 C 82.515625 -54.707031 82.300781 -54.890625 82.3125 -54.765625 C 81.582031 -55.335938 80.882812 -55.921875 80.21875 -56.515625 C 79.5625 -57.109375 78.875 -57.691406 78.15625 -58.265625 C 75 -60.554688 71.546875 -62.550781 67.796875 -64.25 C 60.578125 -67.539062 53.566406 -70.078125 46.765625 -71.859375 C 42.972656 -72.753906 39.15625 -73.253906 35.3125 -73.359375 C 31.476562 -73.460938 27.628906 -73.703125 23.765625 -74.078125 C 19.640625 -74.285156 15.507812 -74.890625 11.375 -75.890625 C 7.25 -76.890625 3.644531 -78.800781 0.5625 -81.625 C -0.894531 -82.914062 -2.1875 -84.457031 -3.3125 -86.25 C -4.4375 -88.039062 -4.984375 -90 -4.953125 -92.125 C -4.867188 -93.84375 -4.816406 -95.523438 -4.796875 -97.171875 C -4.785156 -98.816406 -4.742188 -100.570312 -4.671875 -102.4375 C -4.367188 -105.632812 -4.144531 -108.957031 -4 -112.40625 C -3.851562 -115.851562 -3.015625 -119.050781 -1.484375 -122 C 0.335938 -125.769531 2.785156 -128.972656 5.859375 -131.609375 C 8.941406 -134.253906 12.296875 -136.5 15.921875 -138.34375 C 23.078125 -141.644531 30.597656 -143.796875 38.484375 -144.796875 C 46.367188 -145.796875 54.175781 -146.519531 61.90625 -146.96875 C 64.394531 -147.101562 66.382812 -146.394531 67.875 -144.84375 C 69.375 -143.289062 70.226562 -141.535156 70.4375 -139.578125 C 70.65625 -137.617188 70.195312 -135.785156 69.0625 -134.078125 C 67.925781 -132.378906 66.109375 -131.457031 63.609375 -131.3125 C 59.023438 -131.070312 54.410156 -130.757812 49.765625 -130.375 C 45.117188 -130 40.539062 -129.300781 36.03125 -128.28125 C 32.269531 -127.601562 28.332031 -126.476562 24.21875 -124.90625 C 20.101562 -123.332031 17 -121.242188 14.90625 -118.640625 C 13.738281 -117.328125 12.945312 -116.148438 12.53125 -115.109375 C 12.113281 -114.078125 11.816406 -112.566406 11.640625 -110.578125 C 11.328125 -108.554688 11.117188 -106.515625 11.015625 -104.453125 C 10.921875 -102.390625 10.859375 -100.304688 10.828125 -98.203125 C 10.765625 -97.535156 10.722656 -96.96875 10.703125 -96.5 C 10.691406 -96.039062 10.65625 -95.476562 10.59375 -94.8125 C 10.957031 -93.925781 11.359375 -93.273438 11.796875 -92.859375 C 12.234375 -92.441406 12.320312 -92.289062 12.0625 -92.40625 C 12.601562 -92.195312 13.082031 -91.976562 13.5 -91.75 C 13.925781 -91.53125 14.414062 -91.320312 14.96875 -91.125 C 15.644531 -90.9375 16.453125 -90.765625 17.390625 -90.609375 C 18.328125 -90.453125 19.273438 -90.289062 20.234375 -90.125 C 24.242188 -89.507812 28.296875 -89.195312 32.390625 -89.1875 C 36.484375 -89.175781 40.539062 -88.859375 44.5625 -88.234375 C 48.457031 -87.609375 52.285156 -86.707031 56.046875 -85.53125 C 59.804688 -84.363281 63.488281 -83.050781 67.09375 -81.59375 Z M 67.09375 -81.59375 "/></g></g></g><g fill="#ff3131" fill-opacity="1"><g transform="translate(235.454433, 512.824487)"><g><path d="M 77.265625 -107.84375 C 72.921875 -95.625 68.050781 -83.476562 62.65625 -71.40625 C 59.894531 -65.300781 57.113281 -59.054688 54.3125 -52.671875 C 51.507812 -46.296875 48.460938 -40.054688 45.171875 -33.953125 C 41.890625 -27.847656 38.171875 -22.0625 34.015625 -16.59375 C 29.859375 -11.125 25.117188 -6.1875 19.796875 -1.78125 C 17.878906 -0.113281 15.925781 0.429688 13.9375 -0.140625 C 11.957031 -0.710938 10.390625 -1.757812 9.234375 -3.28125 C 8.078125 -4.800781 7.515625 -6.617188 7.546875 -8.734375 C 7.585938 -10.859375 8.566406 -12.753906 10.484375 -14.421875 C 15.460938 -18.390625 19.773438 -23.046875 23.421875 -28.390625 C 27.066406 -33.742188 30.296875 -39.210938 33.109375 -44.796875 C 36.253906 -50.953125 39.171875 -57.113281 41.859375 -63.28125 C 44.554688 -69.445312 47.34375 -75.660156 50.21875 -81.921875 C 52.988281 -88.035156 55.484375 -94.179688 57.703125 -100.359375 C 59.929688 -106.546875 62.222656 -112.804688 64.578125 -119.140625 C 66.921875 -125.328125 69.476562 -131.410156 72.25 -137.390625 C 75.03125 -143.378906 78.65625 -148.859375 83.125 -153.828125 C 84.757812 -155.722656 86.640625 -156.625 88.765625 -156.53125 C 90.890625 -156.4375 92.742188 -155.78125 94.328125 -154.5625 C 95.910156 -153.351562 96.90625 -151.78125 97.3125 -149.84375 C 97.726562 -147.90625 97.117188 -145.988281 95.484375 -144.09375 C 90.898438 -138.976562 87.300781 -133.273438 84.6875 -126.984375 C 82.082031 -120.691406 79.609375 -114.3125 77.265625 -107.84375 Z M 79.453125 -73.4375 C 83.160156 -75.832031 86.992188 -77.015625 90.953125 -76.984375 C 94.910156 -76.960938 98.664062 -76.085938 102.21875 -74.359375 C 105.769531 -72.628906 108.90625 -70.226562 111.625 -67.15625 C 114.34375 -64.09375 116.367188 -60.65625 117.703125 -56.84375 C 118.859375 -53.539062 119.644531 -49.96875 120.0625 -46.125 C 120.488281 -42.28125 120.375 -38.503906 119.71875 -34.796875 C 119.070312 -31.097656 117.875 -27.597656 116.125 -24.296875 C 114.375 -21.003906 111.894531 -18.320312 108.6875 -16.25 C 105.101562 -14.019531 101.28125 -12.75 97.21875 -12.4375 C 93.164062 -12.125 89.164062 -12.539062 85.21875 -13.6875 C 80.457031 -15.007812 76.359375 -17.164062 72.921875 -20.15625 C 69.492188 -23.144531 67.117188 -27.078125 65.796875 -31.953125 C 65.566406 -32.859375 65.410156 -33.367188 65.328125 -33.484375 C 65.242188 -33.609375 65.1875 -33.800781 65.15625 -34.0625 C 64.707031 -38.226562 64.675781 -42.148438 65.0625 -45.828125 C 65.445312 -49.503906 66.238281 -53.085938 67.4375 -56.578125 C 68.644531 -60.078125 70.242188 -63.320312 72.234375 -66.3125 C 74.222656 -69.300781 76.628906 -71.675781 79.453125 -73.4375 Z M 100.65625 -30.03125 C 103.101562 -32.9375 104.453125 -36.546875 104.703125 -40.859375 C 104.960938 -45.179688 104.148438 -49.285156 102.265625 -53.171875 C 101.910156 -54.054688 101.769531 -54.4375 101.84375 -54.3125 C 101.925781 -54.195312 101.65625 -54.5625 101.03125 -55.40625 C 100.894531 -55.53125 100.515625 -56.019531 99.890625 -56.875 C 99.265625 -57.726562 99.179688 -57.914062 99.640625 -57.4375 C 98.609375 -58.382812 97.59375 -59.164062 96.59375 -59.78125 C 95.601562 -60.394531 94.425781 -60.894531 93.0625 -61.28125 C 92.382812 -61.476562 91.679688 -61.566406 90.953125 -61.546875 C 90.234375 -61.523438 89.753906 -61.441406 89.515625 -61.296875 C 89.265625 -61.128906 88.828125 -60.84375 88.203125 -60.4375 C 87.585938 -60.039062 87.050781 -59.554688 86.59375 -58.984375 C 85.3125 -57.390625 84.195312 -55.515625 83.25 -53.359375 C 82.300781 -51.210938 81.613281 -49.0625 81.1875 -46.90625 C 80.988281 -46.21875 80.859375 -45.578125 80.796875 -44.984375 C 80.734375 -44.390625 80.675781 -43.753906 80.625 -43.078125 C 80.507812 -42.804688 80.429688 -42.238281 80.390625 -41.375 C 80.359375 -40.507812 80.332031 -40.207031 80.3125 -40.46875 C 80.3125 -39.15625 80.453125 -37.851562 80.734375 -36.5625 C 81.117188 -35.414062 81.566406 -34.304688 82.078125 -33.234375 C 82.597656 -32.171875 83.28125 -31.359375 84.125 -30.796875 C 84.84375 -30.210938 85.785156 -29.722656 86.953125 -29.328125 C 88.117188 -28.929688 89.3125 -28.664062 90.53125 -28.53125 C 92.144531 -28.175781 93.421875 -27.953125 94.359375 -27.859375 C 95.296875 -27.765625 96.46875 -27.925781 97.875 -28.34375 C 98.976562 -28.988281 99.742188 -29.46875 100.171875 -29.78125 C 100.609375 -30.101562 100.769531 -30.1875 100.65625 -30.03125 Z M 21.25 -149.4375 C 23.632812 -149.300781 25.988281 -148.863281 28.3125 -148.125 C 30.632812 -147.394531 32.796875 -146.34375 34.796875 -144.96875 C 36.796875 -143.601562 38.625 -141.988281 40.28125 -140.125 C 41.9375 -138.269531 43.28125 -136.273438 44.3125 -134.140625 C 46.03125 -130.359375 47.0625 -126.3125 47.40625 -122 C 47.75 -117.6875 47.617188 -113.515625 47.015625 -109.484375 C 46.390625 -105.460938 45.363281 -101.488281 43.9375 -97.5625 C 42.519531 -93.644531 40.265625 -90.203125 37.171875 -87.234375 C 34.535156 -84.703125 31.273438 -82.789062 27.390625 -81.5 C 23.515625 -80.21875 19.78125 -79.707031 16.1875 -79.96875 C 12.863281 -80.144531 9.953125 -81.085938 7.453125 -82.796875 C 4.953125 -84.503906 2.878906 -86.582031 1.234375 -89.03125 C -0.410156 -91.488281 -1.703125 -94.25 -2.640625 -97.3125 C -3.578125 -100.375 -4.203125 -103.34375 -4.515625 -106.21875 C -5.117188 -111.6875 -5.101562 -117.257812 -4.46875 -122.9375 C -3.832031 -128.625 -2.125 -133.867188 0.65625 -138.671875 L 1.8125 -140.5625 C 6.65625 -147.03125 13.132812 -149.988281 21.25 -149.4375 Z M 31.953125 -116.75 C 31.921875 -118.1875 31.804688 -119.785156 31.609375 -121.546875 C 31.421875 -123.304688 31.15625 -124.570312 30.8125 -125.34375 C 30.394531 -126.75 30.09375 -127.703125 29.90625 -128.203125 C 29.71875 -128.703125 29.113281 -129.363281 28.09375 -130.1875 C 25.632812 -132.164062 23.160156 -133.347656 20.671875 -133.734375 C 18.191406 -134.117188 15.96875 -133.078125 14 -130.609375 C 13.21875 -129.347656 12.8125 -128.546875 12.78125 -128.203125 C 12.75 -127.867188 12.613281 -127.554688 12.375 -127.265625 C 12.394531 -127.128906 12.3125 -126.722656 12.125 -126.046875 C 11.9375 -125.367188 11.851562 -124.898438 11.875 -124.640625 C 11.675781 -124.097656 11.566406 -123.59375 11.546875 -123.125 C 11.535156 -122.664062 11.4375 -122.09375 11.25 -121.40625 C 11.1875 -120.75 11.117188 -120.117188 11.046875 -119.515625 C 10.984375 -118.910156 10.921875 -118.273438 10.859375 -117.609375 C 10.765625 -117.328125 10.695312 -116.753906 10.65625 -115.890625 C 10.625 -115.035156 10.65625 -114.75 10.75 -115.03125 C 10.601562 -113.945312 10.585938 -112.851562 10.703125 -111.75 C 10.828125 -110.644531 10.945312 -109.566406 11.0625 -108.515625 L 11.5 -104.609375 C 11.945312 -102.941406 12.265625 -101.851562 12.453125 -101.34375 C 12.640625 -100.832031 12.828125 -100.328125 13.015625 -99.828125 C 13.660156 -98.703125 14.171875 -97.929688 14.546875 -97.515625 C 14.921875 -97.097656 15.113281 -96.820312 15.125 -96.6875 C 16.40625 -96.03125 17.109375 -95.675781 17.234375 -95.625 C 17.367188 -95.582031 17.566406 -95.578125 17.828125 -95.609375 C 18.515625 -95.421875 19.171875 -95.492188 19.796875 -95.828125 C 20.941406 -96.203125 21.800781 -96.488281 22.375 -96.6875 C 22.945312 -96.882812 23.546875 -97.144531 24.171875 -97.46875 C 25.179688 -97.851562 26.109375 -98.425781 26.953125 -99.1875 C 28.953125 -102.570312 30.289062 -105.6875 30.96875 -108.53125 C 31.644531 -111.375 31.972656 -114.113281 31.953125 -116.75 Z M 31.953125 -116.75 "/></g></g></g><g fill="#ff3131" fill-opacity="1"><g transform="translate(371.186113, 497.952182)"><g/></g></g><g fill="#ff3131" fill-opacity="1"><g transform="translate(440.210392, 490.389098)"><g><path d="M 5.28125 -116.203125 C 5.664062 -124.691406 7.785156 -132.707031 11.640625 -140.25 C 15.503906 -147.800781 20.484375 -154.488281 26.578125 -160.3125 C 30.035156 -163.726562 33.804688 -166.050781 37.890625 -167.28125 C 41.972656 -168.519531 46.367188 -168.144531 51.078125 -166.15625 C 54.691406 -164.570312 58.347656 -162.863281 62.046875 -161.03125 C 65.753906 -159.195312 68.773438 -156.625 71.109375 -153.3125 C 72.648438 -151.238281 73.132812 -149.207031 72.5625 -147.21875 C 71.988281 -145.238281 70.90625 -143.671875 69.3125 -142.515625 C 67.726562 -141.359375 65.910156 -140.796875 63.859375 -140.828125 C 61.804688 -140.867188 60.078125 -141.9375 58.671875 -144.03125 C 57.878906 -145.125 56.847656 -146.03125 55.578125 -146.75 C 54.316406 -147.46875 53.132812 -148.097656 52.03125 -148.640625 C 50.78125 -149.171875 49.378906 -149.878906 47.828125 -150.765625 C 46.273438 -151.648438 44.765625 -152.144531 43.296875 -152.25 C 42.085938 -152.507812 40.925781 -152.28125 39.8125 -151.5625 C 38.695312 -150.851562 37.640625 -149.945312 36.640625 -148.84375 C 35.648438 -147.738281 34.722656 -146.578125 33.859375 -145.359375 C 33.003906 -144.148438 32.226562 -143.113281 31.53125 -142.25 C 27.375 -136.769531 24.40625 -131.03125 22.625 -125.03125 C 20.84375 -119.03125 20.398438 -112.582031 21.296875 -105.6875 C 21.921875 -101.007812 22.820312 -96.351562 24 -91.71875 C 27.757812 -92.394531 31.546875 -93.078125 35.359375 -93.765625 C 39.179688 -94.453125 42.96875 -95.128906 46.71875 -95.796875 C 48.90625 -96.304688 50.84375 -95.789062 52.53125 -94.25 C 54.21875 -92.71875 55.175781 -90.910156 55.40625 -88.828125 C 55.644531 -86.609375 55.085938 -84.734375 53.734375 -83.203125 C 52.390625 -81.671875 50.613281 -80.71875 48.40625 -80.34375 C 45.050781 -79.71875 41.65625 -79.082031 38.21875 -78.4375 C 34.789062 -77.789062 31.398438 -77.148438 28.046875 -76.515625 C 28.671875 -74.347656 29.300781 -72.175781 29.9375 -70 C 30.582031 -67.832031 31.21875 -65.65625 31.84375 -63.46875 C 34.425781 -54.382812 37.023438 -45.429688 39.640625 -36.609375 C 42.265625 -27.796875 44.476562 -18.734375 46.28125 -9.421875 C 46.789062 -7.242188 46.28125 -5.304688 44.75 -3.609375 C 43.21875 -1.921875 41.410156 -0.960938 39.328125 -0.734375 C 37.097656 -0.492188 35.21875 -1.050781 33.6875 -2.40625 C 32.15625 -3.757812 31.140625 -5.523438 30.640625 -7.703125 C 28.710938 -18.054688 26.210938 -28.179688 23.140625 -38.078125 C 20.078125 -47.972656 17.144531 -57.914062 14.34375 -67.90625 C 13.957031 -68.90625 13.675781 -69.925781 13.5 -70.96875 C 13.320312 -72.007812 13.046875 -73.035156 12.671875 -74.046875 C 8.910156 -73.367188 5.113281 -72.753906 1.28125 -72.203125 C -2.539062 -71.648438 -6.410156 -71.160156 -10.328125 -70.734375 C -12.804688 -70.460938 -14.75 -71.070312 -16.15625 -72.5625 C -17.570312 -74.0625 -18.382812 -75.789062 -18.59375 -77.75 C -18.8125 -79.707031 -18.394531 -81.566406 -17.34375 -83.328125 C -16.289062 -85.097656 -14.523438 -86.117188 -12.046875 -86.390625 C -5.128906 -87.148438 1.757812 -88.109375 8.625 -89.265625 C 7.46875 -93.753906 6.582031 -98.207031 5.96875 -102.625 C 5.363281 -107.039062 5.132812 -111.566406 5.28125 -116.203125 Z M 5.28125 -116.203125 "/></g></g></g><g fill="#ff3131" fill-opacity="1"><g transform="translate(512.169015, 482.504494)"><g><path d="M 46.65625 -96.375 C 50.769531 -97.351562 55.117188 -97.992188 59.703125 -98.296875 C 64.296875 -98.597656 68.753906 -98.296875 73.078125 -97.390625 C 77.398438 -96.484375 81.40625 -94.847656 85.09375 -92.484375 C 88.789062 -90.117188 91.789062 -86.816406 94.09375 -82.578125 C 95.738281 -79.578125 96.769531 -76.484375 97.1875 -73.296875 C 97.601562 -70.117188 97.484375 -67.003906 96.828125 -63.953125 C 96.171875 -60.910156 95.039062 -57.953125 93.4375 -55.078125 C 91.84375 -52.210938 89.929688 -49.53125 87.703125 -47.03125 C 82.878906 -41.625 77.457031 -36.875 71.4375 -32.78125 C 65.425781 -28.695312 58.992188 -25.351562 52.140625 -22.75 C 49.234375 -21.632812 46.21875 -20.609375 43.09375 -19.671875 C 39.96875 -18.734375 36.769531 -18.082031 33.5 -17.71875 C 30.238281 -17.363281 27 -17.375 23.78125 -17.75 C 20.570312 -18.125 17.515625 -19.015625 14.609375 -20.421875 C 12.515625 -21.367188 11.164062 -22.800781 10.5625 -24.71875 C 9.519531 -26.851562 8.4375 -28.847656 7.3125 -30.703125 C 6.1875 -32.554688 5.082031 -34.476562 4 -36.46875 C 2.925781 -38.46875 2.015625 -40.484375 1.265625 -42.515625 C 0.515625 -44.546875 0.0195312 -46.664062 -0.21875 -48.875 C -0.695312 -53.3125 -0.207031 -57.617188 1.25 -61.796875 C 2.707031 -65.984375 4.898438 -69.757812 7.828125 -73.125 C 12.734375 -78.9375 18.601562 -83.800781 25.4375 -87.71875 C 32.269531 -91.632812 39.34375 -94.519531 46.65625 -96.375 Z M 70.609375 -81.96875 C 66.941406 -82.882812 63.085938 -83.125 59.046875 -82.6875 C 54.722656 -82.351562 50.460938 -81.457031 46.265625 -80 C 42.078125 -78.550781 38.117188 -76.765625 34.390625 -74.640625 C 30.890625 -72.816406 27.351562 -70.421875 23.78125 -67.453125 C 20.21875 -64.484375 17.722656 -61.070312 16.296875 -57.21875 C 15.460938 -55.144531 15.191406 -53.097656 15.484375 -51.078125 C 15.773438 -49.066406 16.320312 -47.082031 17.125 -45.125 C 17.925781 -43.175781 18.925781 -41.242188 20.125 -39.328125 C 21.332031 -37.410156 22.441406 -35.519531 23.453125 -33.65625 C 25.585938 -33.363281 26.914062 -33.242188 27.4375 -33.296875 C 27.707031 -33.203125 28.035156 -33.175781 28.421875 -33.21875 C 28.816406 -33.257812 29.140625 -33.296875 29.390625 -33.328125 C 32.035156 -33.347656 34.382812 -33.671875 36.4375 -34.296875 C 37.863281 -34.453125 39.664062 -34.910156 41.84375 -35.671875 C 45.15625 -36.703125 48.3125 -37.941406 51.3125 -39.390625 C 54.320312 -40.835938 57.066406 -42.359375 59.546875 -43.953125 C 62.378906 -45.703125 65.140625 -47.582031 67.828125 -49.59375 C 70.515625 -51.613281 72.726562 -53.640625 74.46875 -55.671875 C 75.644531 -56.984375 76.753906 -58.359375 77.796875 -59.796875 C 78.378906 -60.515625 78.78125 -61.085938 79 -61.515625 C 79.539062 -62.492188 79.984375 -63.234375 80.328125 -63.734375 C 80.671875 -64.234375 80.941406 -64.828125 81.140625 -65.515625 C 81.546875 -66.484375 81.722656 -67.226562 81.671875 -67.75 C 81.773438 -68.03125 81.835938 -68.367188 81.859375 -68.765625 C 81.878906 -69.160156 81.941406 -69.492188 82.046875 -69.765625 L 81.8125 -71.90625 C 81.613281 -72.425781 81.5 -72.816406 81.46875 -73.078125 C 81.445312 -73.335938 81.359375 -73.585938 81.203125 -73.828125 C 80.703125 -74.710938 80.265625 -75.363281 79.890625 -75.78125 C 79.523438 -76.195312 79.113281 -76.644531 78.65625 -77.125 C 78.8125 -77.007812 78.628906 -77.1875 78.109375 -77.65625 C 77.597656 -78.125 77.269531 -78.414062 77.125 -78.53125 L 75.375 -79.9375 C 74.6875 -80.25 73.921875 -80.625 73.078125 -81.0625 C 72.234375 -81.5 71.410156 -81.800781 70.609375 -81.96875 Z M 70.609375 -81.96875 "/></g></g></g><g fill="#ff3131" fill-opacity="1"><g transform="translate(626.186556, 470.011438)"><g><path d="M 2.828125 -80.875 C 2.691406 -83.375 3.398438 -85.335938 4.953125 -86.765625 C 6.515625 -88.191406 8.269531 -89.007812 10.21875 -89.21875 C 12.175781 -89.4375 13.972656 -89.007812 15.609375 -87.9375 C 17.253906 -86.863281 18.144531 -85.070312 18.28125 -82.5625 C 18.363281 -81.789062 18.421875 -80.976562 18.453125 -80.125 C 18.484375 -79.269531 18.539062 -78.453125 18.625 -77.671875 C 22.5625 -80.210938 26.757812 -82.484375 31.21875 -84.484375 C 35.6875 -86.492188 40.210938 -87.945312 44.796875 -88.84375 C 49.390625 -89.75 53.929688 -89.882812 58.421875 -89.25 C 62.921875 -88.625 67.164062 -86.945312 71.15625 -84.21875 C 73.164062 -82.71875 74.175781 -80.976562 74.1875 -79 C 74.207031 -77.019531 73.609375 -75.269531 72.390625 -73.75 C 71.171875 -72.238281 69.535156 -71.203125 67.484375 -70.640625 C 65.441406 -70.085938 63.359375 -70.488281 61.234375 -71.84375 C 59.660156 -72.863281 57.960938 -73.535156 56.140625 -73.859375 C 54.328125 -74.191406 52.414062 -74.210938 50.40625 -73.921875 C 48.394531 -73.640625 46.394531 -73.191406 44.40625 -72.578125 C 42.425781 -71.972656 40.550781 -71.304688 38.78125 -70.578125 C 32.113281 -67.597656 25.984375 -63.957031 20.390625 -59.65625 C 21.347656 -53.289062 22.441406 -46.941406 23.671875 -40.609375 C 24.773438 -35.316406 25.832031 -29.851562 26.84375 -24.21875 C 27.863281 -18.59375 29.566406 -13.335938 31.953125 -8.453125 C 32.972656 -6.179688 33.019531 -4.171875 32.09375 -2.421875 C 31.164062 -0.671875 29.785156 0.5625 27.953125 1.28125 C 26.128906 2.007812 24.160156 2.09375 22.046875 1.53125 C 19.941406 0.976562 18.367188 -0.425781 17.328125 -2.6875 C 15.953125 -5.570312 14.894531 -8.554688 14.15625 -11.640625 C 13.425781 -14.734375 12.695312 -17.828125 11.96875 -20.921875 C 11.382812 -23.890625 10.757812 -26.882812 10.09375 -29.90625 C 9.425781 -32.9375 8.800781 -35.9375 8.21875 -38.90625 C 6.789062 -45.894531 5.597656 -52.863281 4.640625 -59.8125 C 3.679688 -66.757812 3.078125 -73.78125 2.828125 -80.875 Z M 2.828125 -80.875 "/></g></g></g><g fill="#ff3131" fill-opacity="1"><g transform="translate(715.164336, 460.262022)"><g/></g></g><g fill="#ff3131" fill-opacity="1"><g transform="translate(784.188648, 452.698934)"><g><path d="M 73.3125 -97.125 C 75.25 -96.28125 76.65625 -94.847656 77.53125 -92.828125 C 78.414062 -90.816406 78.304688 -88.828125 77.203125 -86.859375 C 74.453125 -81.804688 72.566406 -76.382812 71.546875 -70.59375 C 70.535156 -64.800781 69.28125 -59.125 67.78125 -53.5625 C 66.1875 -47.582031 64.34375 -41.769531 62.25 -36.125 C 60.164062 -30.488281 57.925781 -24.765625 55.53125 -18.953125 C 55.34375 -18.273438 55.109375 -17.691406 54.828125 -17.203125 C 54.554688 -16.710938 54.328125 -16.125 54.140625 -15.4375 C 54.890625 -13.40625 54.796875 -11.507812 53.859375 -9.75 C 52.929688 -8 51.59375 -6.703125 49.84375 -5.859375 C 45.488281 3.859375 41.09375 13.476562 36.65625 23 C 32.226562 32.53125 27.84375 42.148438 23.5 51.859375 C 22.445312 54.222656 20.921875 55.644531 18.921875 56.125 C 16.921875 56.613281 15.019531 56.457031 13.21875 55.65625 C 11.414062 54.863281 10.019531 53.566406 9.03125 51.765625 C 8.050781 49.960938 8.085938 47.878906 9.140625 45.515625 C 13.597656 35.535156 18.125 25.640625 22.71875 15.828125 C 27.320312 6.015625 31.847656 -3.882812 36.296875 -13.875 C 29.265625 -23.789062 22.484375 -33.835938 15.953125 -44.015625 C 9.429688 -54.191406 2.78125 -64.320312 -4 -74.40625 C -5.414062 -76.476562 -5.800781 -78.507812 -5.15625 -80.5 C -4.519531 -82.488281 -3.4375 -84.0625 -1.90625 -85.21875 C -0.382812 -86.382812 1.394531 -86.941406 3.4375 -86.890625 C 5.488281 -86.847656 7.226562 -85.789062 8.65625 -83.71875 C 14.5 -74.84375 20.28125 -66 26 -57.1875 C 31.71875 -48.382812 37.5625 -39.625 43.53125 -30.90625 C 47.382812 -40.300781 50.664062 -50.097656 53.375 -60.296875 C 54.75 -65.847656 56.015625 -71.492188 57.171875 -77.234375 C 58.328125 -82.972656 60.28125 -88.304688 63.03125 -93.234375 C 64.019531 -95.179688 65.457031 -96.554688 67.34375 -97.359375 C 69.226562 -98.160156 71.21875 -98.082031 73.3125 -97.125 Z M 73.3125 -97.125 "/></g></g></g><g fill="#ff3131" fill-opacity="1"><g transform="translate(879.035179, 442.306471)"><g><path d="M 46.65625 -96.375 C 50.769531 -97.351562 55.117188 -97.992188 59.703125 -98.296875 C 64.296875 -98.597656 68.753906 -98.296875 73.078125 -97.390625 C 77.398438 -96.484375 81.40625 -94.847656 85.09375 -92.484375 C 88.789062 -90.117188 91.789062 -86.816406 94.09375 -82.578125 C 95.738281 -79.578125 96.769531 -76.484375 97.1875 -73.296875 C 97.601562 -70.117188 97.484375 -67.003906 96.828125 -63.953125 C 96.171875 -60.910156 95.039062 -57.953125 93.4375 -55.078125 C 91.84375 -52.210938 89.929688 -49.53125 87.703125 -47.03125 C 82.878906 -41.625 77.457031 -36.875 71.4375 -32.78125 C 65.425781 -28.695312 58.992188 -25.351562 52.140625 -22.75 C 49.234375 -21.632812 46.21875 -20.609375 43.09375 -19.671875 C 39.96875 -18.734375 36.769531 -18.082031 33.5 -17.71875 C 30.238281 -17.363281 27 -17.375 23.78125 -17.75 C 20.570312 -18.125 17.515625 -19.015625 14.609375 -20.421875 C 12.515625 -21.367188 11.164062 -22.800781 10.5625 -24.71875 C 9.519531 -26.851562 8.4375 -28.847656 7.3125 -30.703125 C 6.1875 -32.554688 5.082031 -34.476562 4 -36.46875 C 2.925781 -38.46875 2.015625 -40.484375 1.265625 -42.515625 C 0.515625 -44.546875 0.0195312 -46.664062 -0.21875 -48.875 C -0.695312 -53.3125 -0.207031 -57.617188 1.25 -61.796875 C 2.707031 -65.984375 4.898438 -69.757812 7.828125 -73.125 C 12.734375 -78.9375 18.601562 -83.800781 25.4375 -87.71875 C 32.269531 -91.632812 39.34375 -94.519531 46.65625 -96.375 Z M 70.609375 -81.96875 C 66.941406 -82.882812 63.085938 -83.125 59.046875 -82.6875 C 54.722656 -82.351562 50.460938 -81.457031 46.265625 -80 C 42.078125 -78.550781 38.117188 -76.765625 34.390625 -74.640625 C 30.890625 -72.816406 27.351562 -70.421875 23.78125 -67.453125 C 20.21875 -64.484375 17.722656 -61.070312 16.296875 -57.21875 C 15.460938 -55.144531 15.191406 -53.097656 15.484375 -51.078125 C 15.773438 -49.066406 16.320312 -47.082031 17.125 -45.125 C 17.925781 -43.175781 18.925781 -41.242188 20.125 -39.328125 C 21.332031 -37.410156 22.441406 -35.519531 23.453125 -33.65625 C 25.585938 -33.363281 26.914062 -33.242188 27.4375 -33.296875 C 27.707031 -33.203125 28.035156 -33.175781 28.421875 -33.21875 C 28.816406 -33.257812 29.140625 -33.296875 29.390625 -33.328125 C 32.035156 -33.347656 34.382812 -33.671875 36.4375 -34.296875 C 37.863281 -34.453125 39.664062 -34.910156 41.84375 -35.671875 C 45.15625 -36.703125 48.3125 -37.941406 51.3125 -39.390625 C 54.320312 -40.835938 57.066406 -42.359375 59.546875 -43.953125 C 62.378906 -45.703125 65.140625 -47.582031 67.828125 -49.59375 C 70.515625 -51.613281 72.726562 -53.640625 74.46875 -55.671875 C 75.644531 -56.984375 76.753906 -58.359375 77.796875 -59.796875 C 78.378906 -60.515625 78.78125 -61.085938 79 -61.515625 C 79.539062 -62.492188 79.984375 -63.234375 80.328125 -63.734375 C 80.671875 -64.234375 80.941406 -64.828125 81.140625 -65.515625 C 81.546875 -66.484375 81.722656 -67.226562 81.671875 -67.75 C 81.773438 -68.03125 81.835938 -68.367188 81.859375 -68.765625 C 81.878906 -69.160156 81.941406 -69.492188 82.046875 -69.765625 L 81.8125 -71.90625 C 81.613281 -72.425781 81.5 -72.816406 81.46875 -73.078125 C 81.445312 -73.335938 81.359375 -73.585938 81.203125 -73.828125 C 80.703125 -74.710938 80.265625 -75.363281 79.890625 -75.78125 C 79.523438 -76.195312 79.113281 -76.644531 78.65625 -77.125 C 78.8125 -77.007812 78.628906 -77.1875 78.109375 -77.65625 C 77.597656 -78.125 77.269531 -78.414062 77.125 -78.53125 L 75.375 -79.9375 C 74.6875 -80.25 73.921875 -80.625 73.078125 -81.0625 C 72.234375 -81.5 71.410156 -81.800781 70.609375 -81.96875 Z M 70.609375 -81.96875 "/></g></g></g><g fill="#ff3131" fill-opacity="1"><g transform="translate(993.052752, 429.813411)"><g><path d="M 84.984375 -79.203125 C 86.328125 -67.992188 88.332031 -56.859375 91 -45.796875 C 93.664062 -34.742188 96.769531 -23.867188 100.3125 -13.171875 C 101.113281 -10.753906 100.914062 -8.648438 99.71875 -6.859375 C 98.53125 -5.078125 97.050781 -3.828125 95.28125 -3.109375 C 93.507812 -2.390625 91.671875 -2.320312 89.765625 -2.90625 C 87.859375 -3.488281 86.503906 -4.988281 85.703125 -7.40625 C 83.328125 -14.664062 81.160156 -21.820312 79.203125 -28.875 C 78.742188 -28.164062 78.351562 -27.492188 78.03125 -26.859375 C 77.707031 -26.222656 77.316406 -25.550781 76.859375 -24.84375 C 74.597656 -21.4375 71.894531 -18.40625 68.75 -15.75 C 65.613281 -13.09375 62.1875 -10.9375 58.46875 -9.28125 C 54.757812 -7.625 50.890625 -6.507812 46.859375 -5.9375 C 42.835938 -5.363281 38.816406 -5.382812 34.796875 -6 C 27.660156 -7.1875 22.003906 -9.992188 17.828125 -14.421875 C 13.648438 -18.859375 10.4375 -24.082031 8.1875 -30.09375 C 5.9375 -36.113281 4.3125 -42.472656 3.3125 -49.171875 C 2.320312 -55.867188 1.445312 -62.070312 0.6875 -67.78125 C 0.414062 -70.257812 0.992188 -72.203125 2.421875 -73.609375 C 3.859375 -75.023438 5.554688 -75.835938 7.515625 -76.046875 C 9.472656 -76.265625 11.332031 -75.84375 13.09375 -74.78125 C 14.851562 -73.726562 15.9375 -71.96875 16.34375 -69.5 C 17.050781 -64.289062 17.726562 -59.019531 18.375 -53.6875 C 19.019531 -48.351562 20.125 -43.394531 21.6875 -38.8125 C 22.488281 -36.257812 23.316406 -34.070312 24.171875 -32.25 C 25.035156 -30.425781 26.300781 -28.550781 27.96875 -26.625 C 28.71875 -25.789062 29.132812 -25.3125 29.21875 -25.1875 C 29.300781 -25.0625 29.476562 -24.945312 29.75 -24.84375 C 31.882812 -23.5 33.296875 -22.695312 33.984375 -22.4375 C 34.671875 -22.175781 35.476562 -21.96875 36.40625 -21.8125 C 42.0625 -20.84375 47.585938 -21.609375 52.984375 -24.109375 C 58.390625 -26.617188 62.515625 -30.535156 65.359375 -35.859375 C 66.972656 -39.210938 68.082031 -42.632812 68.6875 -46.125 C 69.300781 -49.625 69.613281 -53.125 69.625 -56.625 C 69.632812 -60.125 69.539062 -63.675781 69.34375 -67.28125 C 69.15625 -70.894531 69.128906 -74.488281 69.265625 -78.0625 C 68.828125 -81.976562 69.550781 -84.664062 71.4375 -86.125 C 73.320312 -87.59375 75.398438 -88.25 77.671875 -88.09375 C 79.015625 -87.851562 80.101562 -87.507812 80.9375 -87.0625 L 82.65625 -85.875 C 84.34375 -83.675781 85.117188 -81.453125 84.984375 -79.203125 Z M 84.984375 -79.203125 "/></g></g></g><g fill="#ff3131" fill-opacity="1"><g transform="translate(12.26877, 289.60224)"><g><path d="M 41.265625 -50.203125 C 43.304688 -49.441406 45.460938 -48.519531 47.734375 -47.4375 C 50.003906 -46.351562 52.132812 -45.066406 54.125 -43.578125 C 56.125 -42.085938 57.851562 -40.40625 59.3125 -38.53125 C 60.769531 -36.664062 61.707031 -34.535156 62.125 -32.140625 C 62.570312 -29.679688 62.242188 -27.351562 61.140625 -25.15625 C 60.046875 -22.96875 58.609375 -21.085938 56.828125 -19.515625 C 56.234375 -18.953125 55.613281 -18.453125 54.96875 -18.015625 C 54.332031 -17.585938 53.675781 -17.132812 53 -16.65625 C 52.613281 -16.445312 52.210938 -16.21875 51.796875 -15.96875 C 51.378906 -15.71875 50.929688 -15.484375 50.453125 -15.265625 C 49.234375 -14.578125 48.128906 -13.929688 47.140625 -13.328125 C 46.148438 -12.734375 45.160156 -12.175781 44.171875 -11.65625 C 42.015625 -10.53125 39.703125 -9.382812 37.234375 -8.21875 C 34.765625 -7.050781 32.242188 -6.125 29.671875 -5.4375 C 27.109375 -4.75 24.539062 -4.445312 21.96875 -4.53125 C 19.40625 -4.625 16.953125 -5.390625 14.609375 -6.828125 C 13.472656 -7.523438 12.867188 -8.578125 12.796875 -9.984375 C 12.722656 -11.398438 13.078125 -12.59375 13.859375 -13.5625 C 14.785156 -14.726562 15.875 -15.34375 17.125 -15.40625 C 18.382812 -15.46875 19.582031 -15.101562 20.71875 -14.3125 L 22.59375 -14.046875 C 22.5 -14.117188 22.691406 -14.160156 23.171875 -14.171875 C 23.660156 -14.179688 23.945312 -14.191406 24.03125 -14.203125 C 24.832031 -14.296875 25.390625 -14.398438 25.703125 -14.515625 C 26.816406 -14.722656 28.054688 -15.0625 29.421875 -15.53125 C 30.785156 -16 32.050781 -16.503906 33.21875 -17.046875 C 35.851562 -18.222656 38.300781 -19.398438 40.5625 -20.578125 C 42.820312 -21.765625 45.0625 -23.050781 47.28125 -24.4375 C 47.882812 -24.832031 48.539062 -25.289062 49.25 -25.8125 C 49.96875 -26.332031 50.546875 -26.820312 50.984375 -27.28125 C 51.265625 -27.550781 51.660156 -27.992188 52.171875 -28.609375 L 52.65625 -29.765625 C 52.65625 -30.492188 52.609375 -30.890625 52.515625 -30.953125 L 51.890625 -32.25 C 51.597656 -32.707031 51.3125 -33.082031 51.03125 -33.375 C 50.757812 -33.664062 50.628906 -33.769531 50.640625 -33.6875 C 50.203125 -34.039062 49.773438 -34.398438 49.359375 -34.765625 C 48.953125 -35.140625 48.523438 -35.492188 48.078125 -35.828125 C 46.140625 -37.253906 44.023438 -38.488281 41.734375 -39.53125 C 37.285156 -41.5625 32.96875 -43.117188 28.78125 -44.203125 C 26.445312 -44.753906 24.097656 -45.0625 21.734375 -45.125 C 19.367188 -45.195312 17 -45.347656 14.625 -45.578125 C 12.09375 -45.710938 9.550781 -46.082031 7 -46.6875 C 4.457031 -47.300781 2.238281 -48.484375 0.34375 -50.234375 C -0.550781 -51.015625 -1.34375 -51.957031 -2.03125 -53.0625 C -2.726562 -54.164062 -3.0625 -55.367188 -3.03125 -56.671875 C -2.988281 -57.742188 -2.960938 -58.785156 -2.953125 -59.796875 C -2.941406 -60.816406 -2.921875 -61.894531 -2.890625 -63.03125 C -2.691406 -65 -2.546875 -67.046875 -2.453125 -69.171875 C -2.359375 -71.296875 -1.847656 -73.265625 -0.921875 -75.078125 C 0.203125 -77.378906 1.710938 -79.34375 3.609375 -80.96875 C 5.503906 -82.601562 7.570312 -83.992188 9.8125 -85.140625 C 14.207031 -87.160156 18.828125 -88.472656 23.671875 -89.078125 C 28.523438 -89.691406 33.332031 -90.140625 38.09375 -90.421875 C 39.625 -90.503906 40.847656 -90.070312 41.765625 -89.125 C 42.679688 -88.175781 43.207031 -87.097656 43.34375 -85.890625 C 43.476562 -84.679688 43.195312 -83.550781 42.5 -82.5 C 41.800781 -81.445312 40.6875 -80.878906 39.15625 -80.796875 C 36.3125 -80.648438 33.460938 -80.457031 30.609375 -80.21875 C 27.765625 -79.988281 24.953125 -79.5625 22.171875 -78.9375 C 19.867188 -78.519531 17.445312 -77.828125 14.90625 -76.859375 C 12.375 -75.890625 10.460938 -74.601562 9.171875 -73 C 8.453125 -72.195312 7.960938 -71.472656 7.703125 -70.828125 C 7.441406 -70.191406 7.257812 -69.257812 7.15625 -68.03125 C 6.976562 -66.789062 6.851562 -65.539062 6.78125 -64.28125 C 6.71875 -63.019531 6.675781 -61.734375 6.65625 -60.421875 C 6.625 -60.015625 6.597656 -59.664062 6.578125 -59.375 C 6.566406 -59.09375 6.550781 -58.75 6.53125 -58.34375 C 6.75 -57.800781 6.992188 -57.398438 7.265625 -57.140625 C 7.546875 -56.878906 7.597656 -56.785156 7.421875 -56.859375 C 7.753906 -56.734375 8.050781 -56.601562 8.3125 -56.46875 C 8.570312 -56.332031 8.867188 -56.195312 9.203125 -56.0625 C 9.617188 -55.957031 10.113281 -55.851562 10.6875 -55.75 C 11.269531 -55.644531 11.851562 -55.546875 12.4375 -55.453125 C 14.925781 -55.078125 17.425781 -54.882812 19.9375 -54.875 C 22.457031 -54.863281 24.957031 -54.671875 27.4375 -54.296875 C 29.820312 -53.910156 32.171875 -53.351562 34.484375 -52.625 C 36.804688 -51.90625 39.066406 -51.097656 41.265625 -50.203125 Z M 41.265625 -50.203125 "/></g></g></g><g fill="#ff3131" fill-opacity="1"><g transform="translate(82.783561, 281.875839)"><g><path d="M 47.546875 -66.375 C 44.867188 -58.851562 41.875 -51.378906 38.5625 -43.953125 C 36.863281 -40.191406 35.148438 -36.347656 33.421875 -32.421875 C 31.703125 -28.492188 29.828125 -24.648438 27.796875 -20.890625 C 25.773438 -17.128906 23.484375 -13.566406 20.921875 -10.203125 C 18.367188 -6.835938 15.457031 -3.796875 12.1875 -1.078125 C 11 -0.0664062 9.796875 0.265625 8.578125 -0.078125 C 7.359375 -0.429688 6.394531 -1.078125 5.6875 -2.015625 C 4.976562 -2.960938 4.632812 -4.082031 4.65625 -5.375 C 4.675781 -6.675781 5.273438 -7.84375 6.453125 -8.875 C 9.515625 -11.320312 12.164062 -14.1875 14.40625 -17.46875 C 16.644531 -20.757812 18.628906 -24.125 20.359375 -27.5625 C 22.304688 -31.351562 24.101562 -35.144531 25.75 -38.9375 C 27.40625 -42.738281 29.117188 -46.5625 30.890625 -50.40625 C 32.597656 -54.164062 34.132812 -57.945312 35.5 -61.75 C 36.875 -65.5625 38.28125 -69.414062 39.71875 -73.3125 C 41.164062 -77.113281 42.742188 -80.851562 44.453125 -84.53125 C 46.160156 -88.21875 48.394531 -91.585938 51.15625 -94.640625 C 52.15625 -95.816406 53.304688 -96.375 54.609375 -96.3125 C 55.921875 -96.25 57.066406 -95.847656 58.046875 -95.109375 C 59.023438 -94.367188 59.632812 -93.398438 59.875 -92.203125 C 60.125 -91.003906 59.75 -89.820312 58.75 -88.65625 C 55.925781 -85.5 53.710938 -81.988281 52.109375 -78.125 C 50.503906 -74.257812 48.984375 -70.34375 47.546875 -66.375 Z M 48.90625 -45.1875 C 51.164062 -46.65625 53.515625 -47.378906 55.953125 -47.359375 C 58.390625 -47.347656 60.703125 -46.8125 62.890625 -45.75 C 65.078125 -44.6875 67.003906 -43.207031 68.671875 -41.3125 C 70.335938 -39.425781 71.59375 -37.316406 72.4375 -34.984375 C 73.144531 -32.941406 73.625 -30.738281 73.875 -28.375 C 74.132812 -26.007812 74.066406 -23.6875 73.671875 -21.40625 C 73.273438 -19.132812 72.535156 -16.984375 71.453125 -14.953125 C 70.367188 -12.921875 68.84375 -11.273438 66.875 -10.015625 C 64.675781 -8.640625 62.328125 -7.851562 59.828125 -7.65625 C 57.328125 -7.46875 54.863281 -7.726562 52.4375 -8.4375 C 49.5 -9.238281 46.976562 -10.5625 44.875 -12.40625 C 42.769531 -14.25 41.304688 -16.664062 40.484375 -19.65625 C 40.347656 -20.21875 40.253906 -20.535156 40.203125 -20.609375 C 40.148438 -20.691406 40.113281 -20.8125 40.09375 -20.96875 C 39.8125 -23.53125 39.789062 -25.941406 40.03125 -28.203125 C 40.269531 -30.460938 40.757812 -32.664062 41.5 -34.8125 C 42.238281 -36.96875 43.21875 -38.960938 44.4375 -40.796875 C 45.65625 -42.640625 47.144531 -44.101562 48.90625 -45.1875 Z M 61.9375 -18.484375 C 63.445312 -20.273438 64.273438 -22.5 64.421875 -25.15625 C 64.578125 -27.8125 64.082031 -30.332031 62.9375 -32.71875 C 62.707031 -33.257812 62.617188 -33.492188 62.671875 -33.421875 C 62.722656 -33.347656 62.554688 -33.578125 62.171875 -34.109375 C 62.078125 -34.179688 61.835938 -34.476562 61.453125 -35 C 61.066406 -35.519531 61.015625 -35.632812 61.296875 -35.34375 C 60.671875 -35.925781 60.050781 -36.40625 59.4375 -36.78125 C 58.832031 -37.164062 58.109375 -37.472656 57.265625 -37.703125 C 56.847656 -37.816406 56.414062 -37.867188 55.96875 -37.859375 C 55.519531 -37.859375 55.226562 -37.804688 55.09375 -37.703125 C 54.925781 -37.609375 54.65625 -37.4375 54.28125 -37.1875 C 53.90625 -36.945312 53.570312 -36.648438 53.28125 -36.296875 C 52.488281 -35.304688 51.800781 -34.148438 51.21875 -32.828125 C 50.632812 -31.503906 50.210938 -30.179688 49.953125 -28.859375 C 49.835938 -28.429688 49.757812 -28.035156 49.71875 -27.671875 C 49.675781 -27.316406 49.632812 -26.929688 49.59375 -26.515625 C 49.539062 -26.335938 49.5 -25.984375 49.46875 -25.453125 C 49.445312 -24.929688 49.425781 -24.75 49.40625 -24.90625 C 49.40625 -24.09375 49.492188 -23.289062 49.671875 -22.5 C 49.910156 -21.789062 50.1875 -21.109375 50.5 -20.453125 C 50.820312 -19.804688 51.25 -19.304688 51.78125 -18.953125 C 52.207031 -18.585938 52.78125 -18.285156 53.5 -18.046875 C 54.226562 -17.804688 54.960938 -17.644531 55.703125 -17.5625 C 56.703125 -17.34375 57.488281 -17.203125 58.0625 -17.140625 C 58.632812 -17.078125 59.351562 -17.179688 60.21875 -17.453125 C 60.894531 -17.847656 61.367188 -18.140625 61.640625 -18.328125 C 61.910156 -18.523438 62.007812 -18.578125 61.9375 -18.484375 Z M 13.078125 -91.9375 C 14.535156 -91.863281 15.984375 -91.597656 17.421875 -91.140625 C 18.859375 -90.691406 20.191406 -90.046875 21.421875 -89.203125 C 22.648438 -88.367188 23.769531 -87.375 24.78125 -86.21875 C 25.800781 -85.070312 26.628906 -83.847656 27.265625 -82.546875 C 28.328125 -80.210938 28.960938 -77.71875 29.171875 -75.0625 C 29.390625 -72.40625 29.304688 -69.84375 28.921875 -67.375 C 28.546875 -64.894531 27.921875 -62.445312 27.046875 -60.03125 C 26.179688 -57.625 24.785156 -55.503906 22.859375 -53.671875 C 21.253906 -52.109375 19.253906 -50.929688 16.859375 -50.140625 C 14.472656 -49.359375 12.175781 -49.046875 9.96875 -49.203125 C 7.914062 -49.304688 6.125 -49.882812 4.59375 -50.9375 C 3.0625 -51.988281 1.785156 -53.269531 0.765625 -54.78125 C -0.253906 -56.289062 -1.050781 -57.988281 -1.625 -59.875 C -2.195312 -61.757812 -2.582031 -63.582031 -2.78125 -65.34375 C -3.144531 -68.71875 -3.132812 -72.148438 -2.75 -75.640625 C -2.363281 -79.140625 -1.316406 -82.367188 0.390625 -85.328125 L 1.109375 -86.484375 C 4.085938 -90.472656 8.078125 -92.289062 13.078125 -91.9375 Z M 19.671875 -71.84375 C 19.648438 -72.726562 19.578125 -73.710938 19.453125 -74.796875 C 19.335938 -75.890625 19.175781 -76.664062 18.96875 -77.125 C 18.707031 -77.976562 18.519531 -78.5625 18.40625 -78.875 C 18.289062 -79.195312 17.921875 -79.609375 17.296875 -80.109375 C 15.785156 -81.316406 14.265625 -82.039062 12.734375 -82.28125 C 11.203125 -82.519531 9.828125 -81.882812 8.609375 -80.375 C 8.128906 -79.582031 7.878906 -79.085938 7.859375 -78.890625 C 7.835938 -78.691406 7.757812 -78.5 7.625 -78.3125 C 7.632812 -78.226562 7.578125 -77.976562 7.453125 -77.5625 C 7.335938 -77.144531 7.289062 -76.851562 7.3125 -76.6875 C 7.1875 -76.34375 7.117188 -76.03125 7.109375 -75.75 C 7.097656 -75.46875 7.035156 -75.117188 6.921875 -74.703125 C 6.878906 -74.296875 6.835938 -73.90625 6.796875 -73.53125 C 6.753906 -73.164062 6.71875 -72.773438 6.6875 -72.359375 C 6.625 -72.191406 6.582031 -71.84375 6.5625 -71.3125 C 6.539062 -70.789062 6.566406 -70.609375 6.640625 -70.765625 C 6.535156 -70.109375 6.519531 -69.441406 6.59375 -68.765625 C 6.675781 -68.085938 6.75 -67.425781 6.8125 -66.78125 L 7.078125 -64.375 C 7.359375 -63.351562 7.550781 -62.679688 7.65625 -62.359375 C 7.769531 -62.046875 7.882812 -61.734375 8 -61.421875 C 8.40625 -60.734375 8.722656 -60.257812 8.953125 -60 C 9.191406 -59.75 9.316406 -59.582031 9.328125 -59.5 C 10.097656 -59.09375 10.523438 -58.875 10.609375 -58.84375 C 10.691406 -58.8125 10.8125 -58.804688 10.96875 -58.828125 C 11.382812 -58.703125 11.789062 -58.742188 12.1875 -58.953125 C 12.894531 -59.191406 13.421875 -59.367188 13.765625 -59.484375 C 14.109375 -59.609375 14.476562 -59.773438 14.875 -59.984375 C 15.5 -60.210938 16.066406 -60.5625 16.578125 -61.03125 C 17.804688 -63.101562 18.628906 -65.015625 19.046875 -66.765625 C 19.472656 -68.523438 19.679688 -70.21875 19.671875 -71.84375 Z M 19.671875 -71.84375 "/></g></g></g><g fill="#ff3131" fill-opacity="1"><g transform="translate(166.297722, 272.72508)"><g/></g></g><g fill="#ff3131" fill-opacity="1"><g transform="translate(208.767577, 268.0716)"><g><path d="M 3.25 -71.5 C 3.488281 -76.71875 4.796875 -81.648438 7.171875 -86.296875 C 9.546875 -90.941406 12.609375 -95.050781 16.359375 -98.625 C 18.472656 -100.738281 20.785156 -102.175781 23.296875 -102.9375 C 25.816406 -103.707031 28.53125 -103.472656 31.4375 -102.234375 C 33.65625 -101.253906 35.898438 -100.203125 38.171875 -99.078125 C 40.453125 -97.953125 42.316406 -96.367188 43.765625 -94.328125 C 44.710938 -93.054688 45.007812 -91.8125 44.65625 -90.59375 C 44.300781 -89.375 43.632812 -88.40625 42.65625 -87.6875 C 41.675781 -86.976562 40.554688 -86.632812 39.296875 -86.65625 C 38.035156 -86.6875 36.96875 -87.335938 36.09375 -88.609375 C 35.613281 -89.296875 34.984375 -89.859375 34.203125 -90.296875 C 33.429688 -90.742188 32.695312 -91.132812 32 -91.46875 C 31.238281 -91.78125 30.382812 -92.207031 29.4375 -92.75 C 28.488281 -93.300781 27.554688 -93.613281 26.640625 -93.6875 C 25.898438 -93.84375 25.1875 -93.695312 24.5 -93.25 C 23.8125 -92.8125 23.160156 -92.253906 22.546875 -91.578125 C 21.929688 -90.910156 21.359375 -90.195312 20.828125 -89.4375 C 20.304688 -88.6875 19.832031 -88.050781 19.40625 -87.53125 C 16.851562 -84.15625 15.023438 -80.617188 13.921875 -76.921875 C 12.828125 -73.222656 12.550781 -69.257812 13.09375 -65.03125 C 13.488281 -62.15625 14.046875 -59.289062 14.765625 -56.4375 C 17.078125 -56.851562 19.40625 -57.269531 21.75 -57.6875 C 24.101562 -58.101562 26.4375 -58.523438 28.75 -58.953125 C 30.101562 -59.253906 31.296875 -58.9375 32.328125 -58 C 33.367188 -57.0625 33.957031 -55.953125 34.09375 -54.671875 C 34.238281 -53.304688 33.894531 -52.144531 33.0625 -51.1875 C 32.238281 -50.238281 31.148438 -49.65625 29.796875 -49.4375 C 27.722656 -49.050781 25.628906 -48.660156 23.515625 -48.265625 C 21.410156 -47.867188 19.328125 -47.472656 17.265625 -47.078125 C 17.640625 -45.753906 18.023438 -44.421875 18.421875 -43.078125 C 18.816406 -41.734375 19.207031 -40.390625 19.59375 -39.046875 C 21.175781 -33.460938 22.773438 -27.957031 24.390625 -22.53125 C 26.003906 -17.113281 27.363281 -11.539062 28.46875 -5.8125 C 28.789062 -4.457031 28.476562 -3.257812 27.53125 -2.21875 C 26.582031 -1.175781 25.46875 -0.585938 24.1875 -0.453125 C 22.832031 -0.304688 21.679688 -0.648438 20.734375 -1.484375 C 19.796875 -2.316406 19.164062 -3.40625 18.84375 -4.75 C 17.664062 -11.113281 16.128906 -17.335938 14.234375 -23.421875 C 12.347656 -29.515625 10.546875 -35.632812 8.828125 -41.78125 C 8.585938 -42.394531 8.410156 -43.019531 8.296875 -43.65625 C 8.191406 -44.289062 8.023438 -44.925781 7.796875 -45.5625 C 5.484375 -45.144531 3.148438 -44.765625 0.796875 -44.421875 C -1.554688 -44.078125 -3.9375 -43.773438 -6.34375 -43.515625 C -7.875 -43.347656 -9.078125 -43.722656 -9.953125 -44.640625 C -10.828125 -45.566406 -11.328125 -46.632812 -11.453125 -47.84375 C -11.585938 -49.050781 -11.328125 -50.195312 -10.671875 -51.28125 C -10.023438 -52.363281 -8.9375 -52.988281 -7.40625 -53.15625 C -3.15625 -53.625 1.082031 -54.210938 5.3125 -54.921875 C 4.601562 -57.679688 4.0625 -60.421875 3.6875 -63.140625 C 3.3125 -65.867188 3.164062 -68.65625 3.25 -71.5 Z M 3.25 -71.5 "/></g></g></g><g fill="#ff3131" fill-opacity="1"><g transform="translate(253.0429, 263.220293)"><g><path d="M 28.71875 -59.3125 C 31.238281 -59.914062 33.910156 -60.3125 36.734375 -60.5 C 39.554688 -60.6875 42.296875 -60.5 44.953125 -59.9375 C 47.617188 -59.375 50.085938 -58.363281 52.359375 -56.90625 C 54.628906 -55.445312 56.476562 -53.414062 57.90625 -50.8125 C 58.914062 -48.96875 59.546875 -47.066406 59.796875 -45.109375 C 60.054688 -43.148438 59.984375 -41.234375 59.578125 -39.359375 C 59.179688 -37.484375 58.488281 -35.660156 57.5 -33.890625 C 56.507812 -32.117188 55.328125 -30.46875 53.953125 -28.9375 C 50.992188 -25.601562 47.664062 -22.675781 43.96875 -20.15625 C 40.269531 -17.644531 36.304688 -15.59375 32.078125 -14 C 30.285156 -13.3125 28.425781 -12.675781 26.5 -12.09375 C 24.582031 -11.519531 22.617188 -11.125 20.609375 -10.90625 C 18.609375 -10.6875 16.617188 -10.691406 14.640625 -10.921875 C 12.671875 -11.160156 10.785156 -11.707031 8.984375 -12.5625 C 7.703125 -13.144531 6.875 -14.03125 6.5 -15.21875 C 5.863281 -16.53125 5.195312 -17.753906 4.5 -18.890625 C 3.8125 -20.035156 3.132812 -21.222656 2.46875 -22.453125 C 1.8125 -23.679688 1.253906 -24.914062 0.796875 -26.15625 C 0.335938 -27.40625 0.0351562 -28.710938 -0.109375 -30.078125 C -0.410156 -32.804688 -0.117188 -35.457031 0.765625 -38.03125 C 1.648438 -40.601562 3 -42.925781 4.8125 -45 C 7.832031 -48.570312 11.441406 -51.5625 15.640625 -53.96875 C 19.847656 -56.382812 24.207031 -58.164062 28.71875 -59.3125 Z M 43.4375 -50.4375 C 41.1875 -51.007812 38.816406 -51.15625 36.328125 -50.875 C 33.671875 -50.664062 31.050781 -50.113281 28.46875 -49.21875 C 25.894531 -48.332031 23.457031 -47.234375 21.15625 -45.921875 C 19 -44.796875 16.820312 -43.320312 14.625 -41.5 C 12.4375 -39.675781 10.910156 -37.578125 10.046875 -35.203125 C 9.523438 -33.941406 9.347656 -32.6875 9.515625 -31.4375 C 9.691406 -30.195312 10.03125 -28.972656 10.53125 -27.765625 C 11.039062 -26.566406 11.660156 -25.378906 12.390625 -24.203125 C 13.128906 -23.023438 13.804688 -21.863281 14.421875 -20.71875 C 15.742188 -20.53125 16.566406 -20.457031 16.890625 -20.5 C 17.054688 -20.425781 17.257812 -20.398438 17.5 -20.421875 C 17.738281 -20.453125 17.9375 -20.476562 18.09375 -20.5 C 19.707031 -20.519531 21.148438 -20.71875 22.421875 -21.09375 C 23.304688 -21.195312 24.40625 -21.484375 25.71875 -21.953125 C 27.769531 -22.585938 29.722656 -23.347656 31.578125 -24.234375 C 33.429688 -25.117188 35.113281 -26.050781 36.625 -27.03125 C 38.375 -28.125 40.070312 -29.289062 41.71875 -30.53125 C 43.375 -31.769531 44.738281 -33.015625 45.8125 -34.265625 C 46.550781 -35.078125 47.234375 -35.921875 47.859375 -36.796875 C 48.210938 -37.242188 48.460938 -37.597656 48.609375 -37.859375 C 48.953125 -38.460938 49.226562 -38.914062 49.4375 -39.21875 C 49.644531 -39.53125 49.804688 -39.898438 49.921875 -40.328125 C 50.179688 -40.910156 50.289062 -41.363281 50.25 -41.6875 C 50.3125 -41.851562 50.347656 -42.0625 50.359375 -42.3125 C 50.378906 -42.5625 50.421875 -42.765625 50.484375 -42.921875 L 50.34375 -44.25 C 50.21875 -44.570312 50.144531 -44.8125 50.125 -44.96875 C 50.113281 -45.132812 50.054688 -45.289062 49.953125 -45.4375 C 49.648438 -45.96875 49.382812 -46.363281 49.15625 -46.625 C 48.925781 -46.882812 48.675781 -47.160156 48.40625 -47.453125 C 48.5 -47.378906 48.382812 -47.488281 48.0625 -47.78125 C 47.75 -48.070312 47.546875 -48.257812 47.453125 -48.34375 L 46.375 -49.1875 C 45.957031 -49.382812 45.488281 -49.613281 44.96875 -49.875 C 44.445312 -50.144531 43.9375 -50.332031 43.4375 -50.4375 Z M 43.4375 -50.4375 "/></g></g></g><g fill="#ff3131" fill-opacity="1"><g transform="translate(323.196598, 255.533458)"><g><path d="M 1.71875 -49.765625 C 1.632812 -51.304688 2.070312 -52.515625 3.03125 -53.390625 C 4 -54.265625 5.082031 -54.765625 6.28125 -54.890625 C 7.488281 -55.023438 8.59375 -54.757812 9.59375 -54.09375 C 10.601562 -53.4375 11.15625 -52.34375 11.25 -50.8125 C 11.300781 -50.34375 11.332031 -49.84375 11.34375 -49.3125 C 11.363281 -48.78125 11.398438 -48.273438 11.453125 -47.796875 C 13.878906 -49.367188 16.46875 -50.769531 19.21875 -52 C 21.96875 -53.238281 24.753906 -54.128906 27.578125 -54.671875 C 30.398438 -55.210938 33.191406 -55.289062 35.953125 -54.90625 C 38.722656 -54.53125 41.332031 -53.503906 43.78125 -51.828125 C 45.019531 -50.910156 45.644531 -49.835938 45.65625 -48.609375 C 45.664062 -47.390625 45.296875 -46.3125 44.546875 -45.375 C 43.796875 -44.445312 42.785156 -43.8125 41.515625 -43.46875 C 40.253906 -43.125 38.972656 -43.375 37.671875 -44.21875 C 36.710938 -44.832031 35.671875 -45.238281 34.546875 -45.4375 C 33.429688 -45.644531 32.253906 -45.660156 31.015625 -45.484375 C 29.773438 -45.304688 28.546875 -45.023438 27.328125 -44.640625 C 26.117188 -44.265625 24.960938 -43.859375 23.859375 -43.421875 C 19.773438 -41.597656 16.003906 -39.363281 12.546875 -36.71875 C 13.148438 -32.800781 13.820312 -28.890625 14.5625 -24.984375 C 15.25 -21.722656 15.898438 -18.359375 16.515625 -14.890625 C 17.140625 -11.429688 18.1875 -8.203125 19.65625 -5.203125 C 20.289062 -3.804688 20.320312 -2.566406 19.75 -1.484375 C 19.175781 -0.410156 18.328125 0.347656 17.203125 0.796875 C 16.078125 1.253906 14.863281 1.304688 13.5625 0.953125 C 12.269531 0.609375 11.304688 -0.257812 10.671875 -1.65625 C 9.816406 -3.425781 9.164062 -5.257812 8.71875 -7.15625 C 8.269531 -9.0625 7.816406 -10.960938 7.359375 -12.859375 C 7.003906 -14.691406 6.617188 -16.539062 6.203125 -18.40625 C 5.796875 -20.269531 5.410156 -22.113281 5.046875 -23.9375 C 4.171875 -28.238281 3.4375 -32.523438 2.84375 -36.796875 C 2.25 -41.078125 1.875 -45.398438 1.71875 -49.765625 Z M 1.71875 -49.765625 "/></g></g></g><g fill="#ff3131" fill-opacity="1"><g transform="translate(377.943635, 249.534751)"><g/></g></g><g fill="#ff3131" fill-opacity="1"><g transform="translate(420.413471, 244.881273)"><g><path d="M 15.9375 -0.171875 C 14.863281 0.359375 13.628906 0.378906 12.234375 -0.109375 C 10.835938 -0.609375 9.988281 -1.492188 9.6875 -2.765625 C 7.789062 -9.703125 6.320312 -16.625 5.28125 -23.53125 C 4.238281 -30.445312 3.332031 -37.4375 2.5625 -44.5 C 2.425781 -45.71875 2.640625 -46.71875 3.203125 -47.5 C 3.765625 -48.289062 4.472656 -48.851562 5.328125 -49.1875 C 6.179688 -49.53125 7.097656 -49.675781 8.078125 -49.625 C 9.054688 -49.570312 9.90625 -49.257812 10.625 -48.6875 C 12.3125 -50.40625 14.132812 -51.941406 16.09375 -53.296875 C 18.050781 -54.648438 20.070312 -55.625 22.15625 -56.21875 C 24.238281 -56.8125 26.359375 -56.914062 28.515625 -56.53125 C 30.671875 -56.15625 32.78125 -55.109375 34.84375 -53.390625 C 36.539062 -51.953125 38.046875 -50.394531 39.359375 -48.71875 C 40.679688 -47.039062 41.894531 -45.242188 43 -43.328125 C 43.863281 -46.515625 45.238281 -49.507812 47.125 -52.3125 C 49.019531 -55.113281 51.601562 -57.144531 54.875 -58.40625 C 57.289062 -59.320312 59.273438 -59.394531 60.828125 -58.625 C 62.378906 -57.851562 63.898438 -56.578125 65.390625 -54.796875 C 66.960938 -52.941406 68.445312 -51.035156 69.84375 -49.078125 C 71.238281 -47.117188 72.578125 -45.109375 73.859375 -43.046875 C 75.148438 -40.992188 76.394531 -38.9375 77.59375 -36.875 C 78.789062 -34.820312 79.984375 -32.804688 81.171875 -30.828125 C 82.546875 -28.617188 83.78125 -26.414062 84.875 -24.21875 C 85.96875 -22.03125 86.773438 -19.664062 87.296875 -17.125 C 87.609375 -15.78125 87.269531 -14.585938 86.28125 -13.546875 C 85.289062 -12.503906 84.195312 -11.914062 83 -11.78125 C 81.632812 -11.632812 80.484375 -11.972656 79.546875 -12.796875 C 78.609375 -13.628906 77.984375 -14.71875 77.671875 -16.0625 C 77.296875 -17.976562 76.585938 -19.789062 75.546875 -21.5 C 74.503906 -23.207031 73.484375 -24.898438 72.484375 -26.578125 C 71.398438 -28.328125 70.332031 -30.117188 69.28125 -31.953125 C 68.226562 -33.785156 67.160156 -35.578125 66.078125 -37.328125 C 64.992188 -39.085938 63.847656 -40.832031 62.640625 -42.5625 C 61.429688 -44.289062 60.175781 -45.976562 58.875 -47.625 C 58.675781 -47.84375 58.484375 -48.0625 58.296875 -48.28125 C 58.109375 -48.507812 57.925781 -48.738281 57.75 -48.96875 C 56.238281 -47.894531 55.164062 -46.914062 54.53125 -46.03125 C 53.894531 -45.15625 53.328125 -44.003906 52.828125 -42.578125 C 52.410156 -41.316406 52.09375 -40.003906 51.875 -38.640625 C 51.65625 -37.273438 51.5 -35.894531 51.40625 -34.5 C 51.195312 -31.882812 51.128906 -29.160156 51.203125 -26.328125 C 51.273438 -24.210938 51.515625 -22.203125 51.921875 -20.296875 C 52.328125 -18.398438 52.453125 -16.390625 52.296875 -14.265625 C 52.179688 -12.960938 51.535156 -11.914062 50.359375 -11.125 C 49.191406 -10.34375 47.988281 -10.050781 46.75 -10.25 C 45.59375 -10.445312 44.707031 -10.9375 44.09375 -11.71875 C 43.476562 -12.5 43.03125 -13.441406 42.75 -14.546875 C 42.144531 -17.085938 41.492188 -19.695312 40.796875 -22.375 C 40.097656 -25.0625 39.28125 -27.710938 38.34375 -30.328125 C 37.414062 -32.953125 36.3125 -35.472656 35.03125 -37.890625 C 33.75 -40.304688 32.1875 -42.507812 30.34375 -44.5 C 29.039062 -45.820312 27.785156 -46.660156 26.578125 -47.015625 C 25.367188 -47.367188 23.972656 -47.015625 22.390625 -45.953125 C 20.648438 -44.785156 18.972656 -43.421875 17.359375 -41.859375 C 15.742188 -40.296875 14.335938 -38.601562 13.140625 -36.78125 C 13.785156 -31.65625 14.523438 -26.554688 15.359375 -21.484375 C 16.203125 -16.410156 17.304688 -11.390625 18.671875 -6.421875 C 18.984375 -5.078125 18.9375 -3.832031 18.53125 -2.6875 C 18.125 -1.550781 17.257812 -0.710938 15.9375 -0.171875 Z M 15.9375 -0.171875 "/></g></g></g><g fill="#ff3131" fill-opacity="1"><g transform="translate(514.760459, 234.543546)"><g><path d="M 45.09375 -59.765625 C 46.300781 -59.253906 47.171875 -58.375 47.703125 -57.125 C 48.242188 -55.882812 48.179688 -54.660156 47.515625 -53.453125 C 45.816406 -50.335938 44.65625 -47 44.03125 -43.4375 C 43.40625 -39.882812 42.628906 -36.390625 41.703125 -32.953125 C 40.722656 -29.273438 39.59375 -25.695312 38.3125 -22.21875 C 37.039062 -18.75 35.660156 -15.234375 34.171875 -11.671875 C 34.054688 -11.242188 33.910156 -10.878906 33.734375 -10.578125 C 33.566406 -10.285156 33.425781 -9.925781 33.3125 -9.5 C 33.78125 -8.25 33.726562 -7.082031 33.15625 -6 C 32.582031 -4.925781 31.75 -4.128906 30.65625 -3.609375 C 27.988281 2.367188 25.289062 8.289062 22.5625 14.15625 C 19.832031 20.019531 17.132812 25.9375 14.46875 31.90625 C 13.800781 33.363281 12.859375 34.238281 11.640625 34.53125 C 10.421875 34.832031 9.253906 34.738281 8.140625 34.25 C 7.023438 33.769531 6.160156 32.972656 5.546875 31.859375 C 4.941406 30.742188 4.96875 29.457031 5.625 28 C 8.363281 21.851562 11.148438 15.765625 13.984375 9.734375 C 16.816406 3.703125 19.597656 -2.390625 22.328125 -8.546875 C 18.003906 -14.640625 13.832031 -20.816406 9.8125 -27.078125 C 5.800781 -33.335938 1.710938 -39.578125 -2.453125 -45.796875 C -3.328125 -47.066406 -3.566406 -48.3125 -3.171875 -49.53125 C -2.773438 -50.75 -2.109375 -51.710938 -1.171875 -52.421875 C -0.234375 -53.140625 0.863281 -53.484375 2.125 -53.453125 C 3.382812 -53.429688 4.453125 -52.785156 5.328125 -51.515625 C 8.921875 -46.054688 12.476562 -40.613281 16 -35.1875 C 19.519531 -29.769531 23.117188 -24.378906 26.796875 -19.015625 C 29.160156 -24.796875 31.175781 -30.820312 32.84375 -37.09375 C 33.6875 -40.507812 34.460938 -43.984375 35.171875 -47.515625 C 35.878906 -51.054688 37.085938 -54.335938 38.796875 -57.359375 C 39.390625 -58.566406 40.269531 -59.414062 41.4375 -59.90625 C 42.601562 -60.394531 43.820312 -60.347656 45.09375 -59.765625 Z M 45.09375 -59.765625 "/></g></g></g><g fill="#ff3131" fill-opacity="1"><g transform="translate(573.118452, 228.149182)"><g/></g></g><g fill="#ff3131" fill-opacity="1"><g transform="translate(615.588328, 223.4957)"><g><path d="M 13.484375 -45.9375 C 16.171875 -48.019531 19.109375 -49.882812 22.296875 -51.53125 C 25.492188 -53.1875 28.828125 -54.164062 32.296875 -54.46875 C 31.222656 -61.25 30.21875 -67.992188 29.28125 -74.703125 C 28.34375 -81.421875 27.457031 -88.191406 26.625 -95.015625 C 26.457031 -96.535156 26.8125 -97.726562 27.6875 -98.59375 C 28.570312 -99.46875 29.613281 -99.96875 30.8125 -100.09375 C 32.019531 -100.226562 33.164062 -99.96875 34.25 -99.3125 C 35.332031 -98.65625 35.957031 -97.566406 36.125 -96.046875 C 37.070312 -88.117188 38.144531 -80.179688 39.34375 -72.234375 C 40.539062 -64.285156 41.738281 -56.351562 42.9375 -48.4375 C 44.132812 -40.53125 45.242188 -32.59375 46.265625 -24.625 C 47.296875 -16.65625 48.132812 -8.6875 48.78125 -0.71875 C 48.863281 0.8125 48.425781 2.035156 47.46875 2.953125 C 46.519531 3.867188 45.441406 4.394531 44.234375 4.53125 C 43.023438 4.664062 41.894531 4.40625 40.84375 3.75 C 39.800781 3.09375 39.234375 1.957031 39.140625 0.34375 C 39.078125 -0.21875 39.015625 -0.78125 38.953125 -1.34375 C 38.890625 -1.90625 38.867188 -2.46875 38.890625 -3.03125 C 38.085938 -3.019531 37.300781 -2.992188 36.53125 -2.953125 C 35.757812 -2.910156 35.015625 -2.851562 34.296875 -2.78125 C 33.328125 -2.675781 32.363281 -2.566406 31.40625 -2.453125 C 30.445312 -2.347656 29.519531 -2.289062 28.625 -2.28125 C 26.507812 -2.207031 24.394531 -2.175781 22.28125 -2.1875 C 20.175781 -2.207031 18.085938 -2.472656 16.015625 -2.984375 C 13.910156 -3.554688 11.910156 -4.328125 10.015625 -5.296875 C 8.128906 -6.273438 6.515625 -7.664062 5.171875 -9.46875 C 3.660156 -11.332031 2.359375 -13.378906 1.265625 -15.609375 C 0.171875 -17.847656 -0.429688 -20.21875 -0.546875 -22.71875 C -0.648438 -25.226562 -0.335938 -27.582031 0.390625 -29.78125 C 1.128906 -31.976562 2.140625 -34.039062 3.421875 -35.96875 C 4.710938 -37.894531 6.222656 -39.679688 7.953125 -41.328125 C 9.691406 -42.972656 11.535156 -44.507812 13.484375 -45.9375 Z M 37.96875 -12.578125 C 36.789062 -23.328125 35.367188 -34.09375 33.703125 -44.875 C 31.035156 -44.738281 28.457031 -43.988281 25.96875 -42.625 C 23.476562 -41.257812 21.222656 -39.769531 19.203125 -38.15625 C 18.085938 -37.300781 16.875 -36.335938 15.5625 -35.265625 C 14.257812 -34.191406 13.09375 -33.003906 12.0625 -31.703125 C 11.03125 -30.410156 10.222656 -29.046875 9.640625 -27.609375 C 9.066406 -26.171875 8.867188 -24.648438 9.046875 -23.046875 C 9.285156 -21.597656 9.773438 -20.082031 10.515625 -18.5 C 11.265625 -16.925781 12.175781 -15.671875 13.25 -14.734375 C 14.332031 -13.796875 15.5 -13.128906 16.75 -12.734375 C 18.007812 -12.335938 19.34375 -12.054688 20.75 -11.890625 C 22.394531 -11.753906 23.960938 -11.726562 25.453125 -11.8125 C 26.941406 -11.894531 28.492188 -11.984375 30.109375 -12.078125 C 31.390625 -12.210938 32.679688 -12.289062 33.984375 -12.3125 C 35.285156 -12.332031 36.613281 -12.421875 37.96875 -12.578125 Z M 37.96875 -12.578125 "/></g></g></g><g fill="#ff3131" fill-opacity="1"><g transform="translate(675.149966, 216.969451)"><g><path d="M 5.53125 -1.84375 C 5.738281 -5.75 6.0625 -9.613281 6.5 -13.4375 C 6.9375 -17.257812 7.144531 -21.117188 7.125 -25.015625 C 7.03125 -28.835938 6.679688 -32.5625 6.078125 -36.1875 C 5.484375 -39.8125 5.300781 -43.539062 5.53125 -47.375 C 5.550781 -48.6875 6.1875 -49.734375 7.4375 -50.515625 C 8.6875 -51.304688 9.894531 -51.601562 11.0625 -51.40625 C 12.46875 -51.144531 13.488281 -50.484375 14.125 -49.421875 C 14.769531 -48.359375 15.085938 -47.171875 15.078125 -45.859375 C 14.960938 -43.984375 15.03125 -42.085938 15.28125 -40.171875 C 15.539062 -38.253906 15.804688 -36.335938 16.078125 -34.421875 C 16.484375 -30.734375 16.648438 -27.015625 16.578125 -23.265625 C 16.515625 -19.347656 16.304688 -15.5 15.953125 -11.71875 C 15.597656 -7.945312 15.300781 -4.148438 15.0625 -0.328125 C 14.96875 0.992188 14.3125 2.046875 13.09375 2.828125 C 11.882812 3.609375 10.703125 3.898438 9.546875 3.703125 C 8.140625 3.453125 7.09375 2.796875 6.40625 1.734375 C 5.71875 0.679688 5.425781 -0.507812 5.53125 -1.84375 Z M 5.234375 -57.828125 C 4.660156 -57.921875 4.070312 -58.117188 3.46875 -58.421875 C 2.875 -58.734375 2.421875 -59.148438 2.109375 -59.671875 C 1.796875 -60.285156 1.53125 -60.828125 1.3125 -61.296875 C 1.101562 -61.765625 0.960938 -62.316406 0.890625 -62.953125 C 0.816406 -63.679688 0.859375 -64.421875 1.015625 -65.171875 C 1.179688 -66.648438 1.707031 -67.757812 2.59375 -68.5 C 2.863281 -69.019531 3.273438 -69.429688 3.828125 -69.734375 C 4.640625 -70.390625 5.601562 -70.796875 6.71875 -70.953125 C 7.84375 -71.117188 8.878906 -70.9375 9.828125 -70.40625 C 10.265625 -70.125 10.703125 -69.820312 11.140625 -69.5 C 11.585938 -69.175781 11.96875 -68.753906 12.28125 -68.234375 C 12.46875 -67.835938 12.6875 -67.410156 12.9375 -66.953125 C 13.195312 -66.492188 13.3125 -66.023438 13.28125 -65.546875 C 13.257812 -64.960938 13.234375 -64.425781 13.203125 -63.9375 C 13.179688 -63.445312 13.035156 -62.988281 12.765625 -62.5625 C 12.421875 -61.945312 12.140625 -61.503906 11.921875 -61.234375 C 11.710938 -60.972656 11.34375 -60.613281 10.8125 -60.15625 C 10.539062 -59.789062 10.085938 -59.5 9.453125 -59.28125 C 7.890625 -58.132812 6.484375 -57.648438 5.234375 -57.828125 Z M 5.234375 -57.828125 "/></g></g></g><g fill="#ff3131" fill-opacity="1"><g transform="translate(707.148127, 213.463369)"><g><path d="M 1.71875 -49.765625 C 1.632812 -51.304688 2.070312 -52.515625 3.03125 -53.390625 C 4 -54.265625 5.082031 -54.765625 6.28125 -54.890625 C 7.488281 -55.023438 8.59375 -54.757812 9.59375 -54.09375 C 10.601562 -53.4375 11.15625 -52.34375 11.25 -50.8125 C 11.300781 -50.34375 11.332031 -49.84375 11.34375 -49.3125 C 11.363281 -48.78125 11.398438 -48.273438 11.453125 -47.796875 C 13.878906 -49.367188 16.46875 -50.769531 19.21875 -52 C 21.96875 -53.238281 24.753906 -54.128906 27.578125 -54.671875 C 30.398438 -55.210938 33.191406 -55.289062 35.953125 -54.90625 C 38.722656 -54.53125 41.332031 -53.503906 43.78125 -51.828125 C 45.019531 -50.910156 45.644531 -49.835938 45.65625 -48.609375 C 45.664062 -47.390625 45.296875 -46.3125 44.546875 -45.375 C 43.796875 -44.445312 42.785156 -43.8125 41.515625 -43.46875 C 40.253906 -43.125 38.972656 -43.375 37.671875 -44.21875 C 36.710938 -44.832031 35.671875 -45.238281 34.546875 -45.4375 C 33.429688 -45.644531 32.253906 -45.660156 31.015625 -45.484375 C 29.773438 -45.304688 28.546875 -45.023438 27.328125 -44.640625 C 26.117188 -44.265625 24.960938 -43.859375 23.859375 -43.421875 C 19.773438 -41.597656 16.003906 -39.363281 12.546875 -36.71875 C 13.148438 -32.800781 13.820312 -28.890625 14.5625 -24.984375 C 15.25 -21.722656 15.898438 -18.359375 16.515625 -14.890625 C 17.140625 -11.429688 18.1875 -8.203125 19.65625 -5.203125 C 20.289062 -3.804688 20.320312 -2.566406 19.75 -1.484375 C 19.175781 -0.410156 18.328125 0.347656 17.203125 0.796875 C 16.078125 1.253906 14.863281 1.304688 13.5625 0.953125 C 12.269531 0.609375 11.304688 -0.257812 10.671875 -1.65625 C 9.816406 -3.425781 9.164062 -5.257812 8.71875 -7.15625 C 8.269531 -9.0625 7.816406 -10.960938 7.359375 -12.859375 C 7.003906 -14.691406 6.617188 -16.539062 6.203125 -18.40625 C 5.796875 -20.269531 5.410156 -22.113281 5.046875 -23.9375 C 4.171875 -28.238281 3.4375 -32.523438 2.84375 -36.796875 C 2.25 -41.078125 1.875 -45.398438 1.71875 -49.765625 Z M 1.71875 -49.765625 "/></g></g></g><g fill="#ff3131" fill-opacity="1"><g transform="translate(761.895184, 207.46466)"><g><path d="M 37.40625 -46.625 C 38.925781 -46.789062 40.117188 -46.429688 40.984375 -45.546875 C 41.859375 -44.671875 42.359375 -43.628906 42.484375 -42.421875 C 42.617188 -41.210938 42.359375 -40.066406 41.703125 -38.984375 C 41.054688 -37.910156 39.972656 -37.289062 38.453125 -37.125 C 36.535156 -36.820312 34.625 -36.625 32.71875 -36.53125 C 30.820312 -36.445312 28.941406 -36.382812 27.078125 -36.34375 C 27.847656 -30.007812 28.441406 -23.65625 28.859375 -17.28125 C 29.285156 -10.914062 29.316406 -4.546875 28.953125 1.828125 C 28.941406 3.203125 28.332031 4.28125 27.125 5.0625 C 25.914062 5.851562 24.675781 6.113281 23.40625 5.84375 C 22.007812 5.582031 20.988281 4.9375 20.34375 3.90625 C 19.707031 2.882812 19.4375 1.679688 19.53125 0.296875 C 19.820312 -5.898438 19.691406 -12.054688 19.140625 -18.171875 C 18.585938 -24.285156 17.894531 -30.425781 17.0625 -36.59375 C 13.957031 -36.738281 10.8125 -36.898438 7.625 -37.078125 C 4.4375 -37.253906 1.296875 -37.378906 -1.796875 -37.453125 C -3.160156 -37.460938 -4.21875 -38.09375 -4.96875 -39.34375 C -5.71875 -40.601562 -6 -41.8125 -5.8125 -42.96875 C -5.5625 -44.382812 -4.898438 -45.410156 -3.828125 -46.046875 C -2.765625 -46.691406 -1.582031 -47.007812 -0.28125 -47 C 2.414062 -46.882812 5.113281 -46.75 7.8125 -46.59375 C 10.507812 -46.445312 13.242188 -46.320312 16.015625 -46.21875 C 15.890625 -46.613281 15.78125 -47.207031 15.6875 -48 C 14.894531 -55.226562 14.09375 -62.367188 13.28125 -69.421875 C 12.46875 -76.484375 12.03125 -83.664062 11.96875 -90.96875 C 11.988281 -92.269531 12.363281 -93.445312 13.09375 -94.5 C 13.832031 -95.550781 14.882812 -96.15625 16.25 -96.3125 C 17.445312 -96.4375 18.640625 -96.078125 19.828125 -95.234375 C 21.023438 -94.390625 21.613281 -93.316406 21.59375 -92.015625 C 21.632812 -84.222656 22.085938 -76.535156 22.953125 -68.953125 C 23.816406 -61.378906 24.757812 -53.71875 25.78125 -45.96875 C 27.726562 -46.007812 29.671875 -46.070312 31.609375 -46.15625 C 33.546875 -46.25 35.476562 -46.40625 37.40625 -46.625 Z M 37.40625 -46.625 "/></g></g></g><g fill="#ff3131" fill-opacity="1"><g transform="translate(814.114587, 201.742909)"><g><path d="M 45.09375 -59.765625 C 46.300781 -59.253906 47.171875 -58.375 47.703125 -57.125 C 48.242188 -55.882812 48.179688 -54.660156 47.515625 -53.453125 C 45.816406 -50.335938 44.65625 -47 44.03125 -43.4375 C 43.40625 -39.882812 42.628906 -36.390625 41.703125 -32.953125 C 40.722656 -29.273438 39.59375 -25.695312 38.3125 -22.21875 C 37.039062 -18.75 35.660156 -15.234375 34.171875 -11.671875 C 34.054688 -11.242188 33.910156 -10.878906 33.734375 -10.578125 C 33.566406 -10.285156 33.425781 -9.925781 33.3125 -9.5 C 33.78125 -8.25 33.726562 -7.082031 33.15625 -6 C 32.582031 -4.925781 31.75 -4.128906 30.65625 -3.609375 C 27.988281 2.367188 25.289062 8.289062 22.5625 14.15625 C 19.832031 20.019531 17.132812 25.9375 14.46875 31.90625 C 13.800781 33.363281 12.859375 34.238281 11.640625 34.53125 C 10.421875 34.832031 9.253906 34.738281 8.140625 34.25 C 7.023438 33.769531 6.160156 32.972656 5.546875 31.859375 C 4.941406 30.742188 4.96875 29.457031 5.625 28 C 8.363281 21.851562 11.148438 15.765625 13.984375 9.734375 C 16.816406 3.703125 19.597656 -2.390625 22.328125 -8.546875 C 18.003906 -14.640625 13.832031 -20.816406 9.8125 -27.078125 C 5.800781 -33.335938 1.710938 -39.578125 -2.453125 -45.796875 C -3.328125 -47.066406 -3.566406 -48.3125 -3.171875 -49.53125 C -2.773438 -50.75 -2.109375 -51.710938 -1.171875 -52.421875 C -0.234375 -53.140625 0.863281 -53.484375 2.125 -53.453125 C 3.382812 -53.429688 4.453125 -52.785156 5.328125 -51.515625 C 8.921875 -46.054688 12.476562 -40.613281 16 -35.1875 C 19.519531 -29.769531 23.117188 -24.378906 26.796875 -19.015625 C 29.160156 -24.796875 31.175781 -30.820312 32.84375 -37.09375 C 33.6875 -40.507812 34.460938 -43.984375 35.171875 -47.515625 C 35.878906 -51.054688 37.085938 -54.335938 38.796875 -57.359375 C 39.390625 -58.566406 40.269531 -59.414062 41.4375 -59.90625 C 42.601562 -60.394531 43.820312 -60.347656 45.09375 -59.765625 Z M 45.09375 -59.765625 "/></g></g></g><g fill="#ff3131" fill-opacity="1"><g transform="translate(872.47258, 195.348545)"><g/></g></g><g fill="#ff3131" fill-opacity="1"><g transform="translate(914.942455, 190.695064)"><g><path d="M 2.515625 -95.90625 C 3.960938 -96.070312 5.140625 -95.710938 6.046875 -94.828125 C 6.960938 -93.953125 7.566406 -92.882812 7.859375 -91.625 C 9.503906 -84.09375 10.785156 -76.515625 11.703125 -68.890625 C 12.617188 -61.273438 13.351562 -53.640625 13.90625 -45.984375 C 14.457031 -38.335938 14.867188 -30.671875 15.140625 -22.984375 C 15.421875 -15.296875 15.691406 -7.648438 15.953125 -0.046875 C 15.941406 1.335938 15.566406 2.539062 14.828125 3.5625 C 14.085938 4.582031 13.035156 5.164062 11.671875 5.3125 C 10.460938 5.445312 9.285156 5.109375 8.140625 4.296875 C 7.003906 3.484375 6.398438 2.390625 6.328125 1.015625 C 6.054688 -6.585938 5.804688 -14.238281 5.578125 -21.9375 C 5.347656 -29.632812 4.953125 -37.304688 4.390625 -44.953125 C 3.835938 -52.609375 3.101562 -60.242188 2.1875 -67.859375 C 1.269531 -75.472656 -0.00390625 -83.046875 -1.640625 -90.578125 C -1.929688 -91.847656 -1.609375 -93.019531 -0.671875 -94.09375 C 0.253906 -95.175781 1.316406 -95.78125 2.515625 -95.90625 Z M 2.515625 -95.90625 "/></g></g></g><g fill="#ff3131" fill-opacity="1"><g transform="translate(945.135148, 187.386809)"><g><path d="M 5.53125 -1.84375 C 5.738281 -5.75 6.0625 -9.613281 6.5 -13.4375 C 6.9375 -17.257812 7.144531 -21.117188 7.125 -25.015625 C 7.03125 -28.835938 6.679688 -32.5625 6.078125 -36.1875 C 5.484375 -39.8125 5.300781 -43.539062 5.53125 -47.375 C 5.550781 -48.6875 6.1875 -49.734375 7.4375 -50.515625 C 8.6875 -51.304688 9.894531 -51.601562 11.0625 -51.40625 C 12.46875 -51.144531 13.488281 -50.484375 14.125 -49.421875 C 14.769531 -48.359375 15.085938 -47.171875 15.078125 -45.859375 C 14.960938 -43.984375 15.03125 -42.085938 15.28125 -40.171875 C 15.539062 -38.253906 15.804688 -36.335938 16.078125 -34.421875 C 16.484375 -30.734375 16.648438 -27.015625 16.578125 -23.265625 C 16.515625 -19.347656 16.304688 -15.5 15.953125 -11.71875 C 15.597656 -7.945312 15.300781 -4.148438 15.0625 -0.328125 C 14.96875 0.992188 14.3125 2.046875 13.09375 2.828125 C 11.882812 3.609375 10.703125 3.898438 9.546875 3.703125 C 8.140625 3.453125 7.09375 2.796875 6.40625 1.734375 C 5.71875 0.679688 5.425781 -0.507812 5.53125 -1.84375 Z M 5.234375 -57.828125 C 4.660156 -57.921875 4.070312 -58.117188 3.46875 -58.421875 C 2.875 -58.734375 2.421875 -59.148438 2.109375 -59.671875 C 1.796875 -60.285156 1.53125 -60.828125 1.3125 -61.296875 C 1.101562 -61.765625 0.960938 -62.316406 0.890625 -62.953125 C 0.816406 -63.679688 0.859375 -64.421875 1.015625 -65.171875 C 1.179688 -66.648438 1.707031 -67.757812 2.59375 -68.5 C 2.863281 -69.019531 3.273438 -69.429688 3.828125 -69.734375 C 4.640625 -70.390625 5.601562 -70.796875 6.71875 -70.953125 C 7.84375 -71.117188 8.878906 -70.9375 9.828125 -70.40625 C 10.265625 -70.125 10.703125 -69.820312 11.140625 -69.5 C 11.585938 -69.175781 11.96875 -68.753906 12.28125 -68.234375 C 12.46875 -67.835938 12.6875 -67.410156 12.9375 -66.953125 C 13.195312 -66.492188 13.3125 -66.023438 13.28125 -65.546875 C 13.257812 -64.960938 13.234375 -64.425781 13.203125 -63.9375 C 13.179688 -63.445312 13.035156 -62.988281 12.765625 -62.5625 C 12.421875 -61.945312 12.140625 -61.503906 11.921875 -61.234375 C 11.710938 -60.972656 11.34375 -60.613281 10.8125 -60.15625 C 10.539062 -59.789062 10.085938 -59.5 9.453125 -59.28125 C 7.890625 -58.132812 6.484375 -57.648438 5.234375 -57.828125 Z M 5.234375 -57.828125 "/></g></g></g><g fill="#ff3131" fill-opacity="1"><g transform="translate(977.133309, 183.880728)"><g><path d="M 3.25 -71.5 C 3.488281 -76.71875 4.796875 -81.648438 7.171875 -86.296875 C 9.546875 -90.941406 12.609375 -95.050781 16.359375 -98.625 C 18.472656 -100.738281 20.785156 -102.175781 23.296875 -102.9375 C 25.816406 -103.707031 28.53125 -103.472656 31.4375 -102.234375 C 33.65625 -101.253906 35.898438 -100.203125 38.171875 -99.078125 C 40.453125 -97.953125 42.316406 -96.367188 43.765625 -94.328125 C 44.710938 -93.054688 45.007812 -91.8125 44.65625 -90.59375 C 44.300781 -89.375 43.632812 -88.40625 42.65625 -87.6875 C 41.675781 -86.976562 40.554688 -86.632812 39.296875 -86.65625 C 38.035156 -86.6875 36.96875 -87.335938 36.09375 -88.609375 C 35.613281 -89.296875 34.984375 -89.859375 34.203125 -90.296875 C 33.429688 -90.742188 32.695312 -91.132812 32 -91.46875 C 31.238281 -91.78125 30.382812 -92.207031 29.4375 -92.75 C 28.488281 -93.300781 27.554688 -93.613281 26.640625 -93.6875 C 25.898438 -93.84375 25.1875 -93.695312 24.5 -93.25 C 23.8125 -92.8125 23.160156 -92.253906 22.546875 -91.578125 C 21.929688 -90.910156 21.359375 -90.195312 20.828125 -89.4375 C 20.304688 -88.6875 19.832031 -88.050781 19.40625 -87.53125 C 16.851562 -84.15625 15.023438 -80.617188 13.921875 -76.921875 C 12.828125 -73.222656 12.550781 -69.257812 13.09375 -65.03125 C 13.488281 -62.15625 14.046875 -59.289062 14.765625 -56.4375 C 17.078125 -56.851562 19.40625 -57.269531 21.75 -57.6875 C 24.101562 -58.101562 26.4375 -58.523438 28.75 -58.953125 C 30.101562 -59.253906 31.296875 -58.9375 32.328125 -58 C 33.367188 -57.0625 33.957031 -55.953125 34.09375 -54.671875 C 34.238281 -53.304688 33.894531 -52.144531 33.0625 -51.1875 C 32.238281 -50.238281 31.148438 -49.65625 29.796875 -49.4375 C 27.722656 -49.050781 25.628906 -48.660156 23.515625 -48.265625 C 21.410156 -47.867188 19.328125 -47.472656 17.265625 -47.078125 C 17.640625 -45.753906 18.023438 -44.421875 18.421875 -43.078125 C 18.816406 -41.734375 19.207031 -40.390625 19.59375 -39.046875 C 21.175781 -33.460938 22.773438 -27.957031 24.390625 -22.53125 C 26.003906 -17.113281 27.363281 -11.539062 28.46875 -5.8125 C 28.789062 -4.457031 28.476562 -3.257812 27.53125 -2.21875 C 26.582031 -1.175781 25.46875 -0.585938 24.1875 -0.453125 C 22.832031 -0.304688 21.679688 -0.648438 20.734375 -1.484375 C 19.796875 -2.316406 19.164062 -3.40625 18.84375 -4.75 C 17.664062 -11.113281 16.128906 -17.335938 14.234375 -23.421875 C 12.347656 -29.515625 10.546875 -35.632812 8.828125 -41.78125 C 8.585938 -42.394531 8.410156 -43.019531 8.296875 -43.65625 C 8.191406 -44.289062 8.023438 -44.925781 7.796875 -45.5625 C 5.484375 -45.144531 3.148438 -44.765625 0.796875 -44.421875 C -1.554688 -44.078125 -3.9375 -43.773438 -6.34375 -43.515625 C -7.875 -43.347656 -9.078125 -43.722656 -9.953125 -44.640625 C -10.828125 -45.566406 -11.328125 -46.632812 -11.453125 -47.84375 C -11.585938 -49.050781 -11.328125 -50.195312 -10.671875 -51.28125 C -10.023438 -52.363281 -8.9375 -52.988281 -7.40625 -53.15625 C -3.15625 -53.625 1.082031 -54.210938 5.3125 -54.921875 C 4.601562 -57.679688 4.0625 -60.421875 3.6875 -63.140625 C 3.3125 -65.867188 3.164062 -68.65625 3.25 -71.5 Z M 3.25 -71.5 "/></g></g></g><g fill="#ff3131" fill-opacity="1"><g transform="translate(1021.408652, 179.029418)"><g><path d="M 3.90625 -47.6875 C 5.207031 -49.945312 6.832031 -51.992188 8.78125 -53.828125 C 10.726562 -55.671875 12.851562 -57.1875 15.15625 -58.375 C 17.457031 -59.5625 19.890625 -60.316406 22.453125 -60.640625 C 25.023438 -60.960938 27.648438 -60.742188 30.328125 -59.984375 C 32.941406 -59.285156 35.335938 -58.222656 37.515625 -56.796875 C 39.691406 -55.367188 41.488281 -53.429688 42.90625 -50.984375 C 43.988281 -49.160156 44.734375 -47.132812 45.140625 -44.90625 C 45.554688 -42.675781 45.179688 -40.5625 44.015625 -38.5625 C 42.992188 -36.75 41.664062 -35.304688 40.03125 -34.234375 C 38.40625 -33.160156 36.632812 -32.316406 34.71875 -31.703125 C 32.800781 -31.085938 30.816406 -30.664062 28.765625 -30.4375 C 26.722656 -30.21875 24.769531 -30.046875 22.90625 -29.921875 C 20.8125 -29.785156 18.726562 -29.722656 16.65625 -29.734375 C 14.59375 -29.742188 12.503906 -29.753906 10.390625 -29.765625 C 11.421875 -26.222656 13.050781 -23.148438 15.28125 -20.546875 C 17.519531 -17.953125 20.363281 -16.113281 23.8125 -15.03125 C 24.726562 -14.8125 25.441406 -14.648438 25.953125 -14.546875 C 26.191406 -14.484375 26.414062 -14.445312 26.625 -14.4375 C 26.832031 -14.425781 27.054688 -14.429688 27.296875 -14.453125 C 27.941406 -14.441406 28.484375 -14.4375 28.921875 -14.4375 C 29.367188 -14.445312 29.789062 -14.515625 30.1875 -14.640625 C 30.75 -14.785156 31.125 -14.882812 31.3125 -14.9375 C 31.507812 -15 31.722656 -15.085938 31.953125 -15.203125 C 32.804688 -15.523438 33.554688 -15.882812 34.203125 -16.28125 C 34.859375 -16.6875 35.625 -17.304688 36.5 -18.140625 C 36.945312 -18.585938 37.523438 -19.253906 38.234375 -20.140625 C 38.953125 -21.035156 39.554688 -21.835938 40.046875 -22.546875 C 40.710938 -23.742188 41.609375 -24.609375 42.734375 -25.140625 C 43.859375 -25.679688 45.0625 -25.648438 46.34375 -25.046875 C 47.457031 -24.523438 48.304688 -23.625 48.890625 -22.34375 C 49.472656 -21.0625 49.429688 -19.820312 48.765625 -18.625 C 46.773438 -15.25 44.316406 -12.28125 41.390625 -9.71875 C 38.460938 -7.15625 34.960938 -5.570312 30.890625 -4.96875 C 27.617188 -4.4375 24.382812 -4.664062 21.1875 -5.65625 C 17.988281 -6.65625 15.101562 -8.15625 12.53125 -10.15625 C 9.332031 -12.632812 6.6875 -15.628906 4.59375 -19.140625 C 2.507812 -22.648438 1.179688 -26.320312 0.609375 -30.15625 C -0.179688 -30.632812 -0.800781 -31.273438 -1.25 -32.078125 C -1.707031 -32.878906 -1.925781 -33.726562 -1.90625 -34.625 C -1.882812 -35.519531 -1.671875 -36.375 -1.265625 -37.1875 C -0.867188 -38.007812 -0.203125 -38.59375 0.734375 -38.9375 C 1.285156 -42.007812 2.34375 -44.925781 3.90625 -47.6875 Z M 33.109375 -47.96875 C 32.109375 -49.007812 30.640625 -49.863281 28.703125 -50.53125 C 27.109375 -51.007812 25.285156 -51.132812 23.234375 -50.90625 C 21.179688 -50.6875 19.472656 -50.132812 18.109375 -49.25 C 16.367188 -48.175781 14.863281 -46.773438 13.59375 -45.046875 C 12.320312 -43.316406 11.34375 -41.445312 10.65625 -39.4375 C 12.613281 -39.394531 14.566406 -39.359375 16.515625 -39.328125 C 18.472656 -39.304688 20.414062 -39.359375 22.34375 -39.484375 C 23.382812 -39.597656 24.425781 -39.710938 25.46875 -39.828125 C 26.519531 -39.941406 27.566406 -40.097656 28.609375 -40.296875 C 28.921875 -40.328125 29.21875 -40.378906 29.5 -40.453125 C 29.78125 -40.523438 30.082031 -40.578125 30.40625 -40.609375 C 31.09375 -40.847656 31.613281 -41.007812 31.96875 -41.09375 C 32.332031 -41.175781 32.710938 -41.316406 33.109375 -41.515625 C 33.421875 -41.628906 33.800781 -41.796875 34.25 -42.015625 C 34.632812 -42.203125 34.863281 -42.34375 34.9375 -42.4375 C 35.019531 -42.53125 35.132812 -42.625 35.28125 -42.71875 L 35.484375 -44.203125 C 35.285156 -44.515625 35.148438 -44.804688 35.078125 -45.078125 C 35.003906 -45.359375 34.878906 -45.609375 34.703125 -45.828125 C 34.585938 -46.054688 34.363281 -46.394531 34.03125 -46.84375 C 33.695312 -47.289062 33.390625 -47.664062 33.109375 -47.96875 Z M 33.109375 -47.96875 "/></g></g></g></svg>