<svg xmlns="http://www.w3.org/2000/svg" xmlns:xlink="http://www.w3.org/1999/xlink" width="1920" zoomAndPan="magnify" viewBox="0 0 1440 809.999993" height="1080" preserveAspectRatio="xMidYMid meet" version="1.0"><defs><g/><clipPath id="a2b0e08486"><path d="M 82.164062 205.730469 L 1361 205.730469 L 1361 620.90625 L 82.164062 620.90625 Z M 82.164062 205.730469 " clip-rule="nonzero"/></clipPath><clipPath id="756ee2b0d2"><path d="M 120.414062 205.730469 L 1321.914062 205.730469 C 1332.058594 205.730469 1341.789062 209.761719 1348.960938 216.933594 C 1356.136719 224.109375 1360.164062 233.835938 1360.164062 243.980469 L 1360.164062 582.65625 C 1360.164062 592.800781 1356.136719 602.527344 1348.960938 609.703125 C 1341.789062 616.875 1332.058594 620.90625 1321.914062 620.90625 L 120.414062 620.90625 C 110.269531 620.90625 100.542969 616.875 93.367188 609.703125 C 86.195312 602.527344 82.164062 592.800781 82.164062 582.65625 L 82.164062 243.980469 C 82.164062 233.835938 86.195312 224.109375 93.367188 216.933594 C 100.542969 209.761719 110.269531 205.730469 120.414062 205.730469 Z M 120.414062 205.730469 " clip-rule="nonzero"/></clipPath><clipPath id="2aa4d20d0f"><path d="M 82.167969 205.730469 L 1360.164062 205.730469 L 1360.164062 621 L 82.167969 621 Z M 82.167969 205.730469 " clip-rule="nonzero"/></clipPath><clipPath id="e2090972c9"><path d="M 120.417969 205.730469 L 1321.910156 205.730469 C 1332.054688 205.730469 1341.785156 209.761719 1348.957031 216.933594 C 1356.132812 224.109375 1360.160156 233.835938 1360.160156 243.980469 L 1360.160156 582.652344 C 1360.160156 592.796875 1356.132812 602.527344 1348.957031 609.699219 C 1341.785156 616.875 1332.054688 620.902344 1321.910156 620.902344 L 120.417969 620.902344 C 110.273438 620.902344 100.542969 616.875 93.371094 609.699219 C 86.199219 602.527344 82.167969 592.796875 82.167969 582.652344 L 82.167969 243.980469 C 82.167969 233.835938 86.199219 224.109375 93.371094 216.933594 C 100.542969 209.761719 110.273438 205.730469 120.417969 205.730469 Z M 120.417969 205.730469 " clip-rule="nonzero"/></clipPath><clipPath id="7b1b3ce937"><path d="M 82.164062 174.6875 L 1361 174.6875 L 1361 589.863281 L 82.164062 589.863281 Z M 82.164062 174.6875 " clip-rule="nonzero"/></clipPath><clipPath id="6eee7f0ebd"><path d="M 120.414062 174.6875 L 1321.914062 174.6875 C 1332.058594 174.6875 1341.789062 178.71875 1348.960938 185.890625 C 1356.136719 193.0625 1360.164062 202.792969 1360.164062 212.9375 L 1360.164062 551.613281 C 1360.164062 561.757812 1356.136719 571.484375 1348.960938 578.660156 C 1341.789062 585.832031 1332.058594 589.863281 1321.914062 589.863281 L 120.414062 589.863281 C 110.269531 589.863281 100.542969 585.832031 93.367188 578.660156 C 86.195312 571.484375 82.164062 561.757812 82.164062 551.613281 L 82.164062 212.9375 C 82.164062 202.792969 86.195312 193.0625 93.367188 185.890625 C 100.542969 178.71875 110.269531 174.6875 120.414062 174.6875 Z M 120.414062 174.6875 " clip-rule="nonzero"/></clipPath><clipPath id="c325d2c8d9"><path d="M 82.167969 174.6875 L 1360.164062 174.6875 L 1360.164062 590 L 82.167969 590 Z M 82.167969 174.6875 " clip-rule="nonzero"/></clipPath><clipPath id="3fc73af41f"><path d="M 120.417969 174.6875 L 1321.910156 174.6875 C 1332.054688 174.6875 1341.785156 178.71875 1348.957031 185.890625 C 1356.132812 193.0625 1360.160156 202.792969 1360.160156 212.9375 L 1360.160156 551.609375 C 1360.160156 561.753906 1356.132812 571.484375 1348.957031 578.65625 C 1341.785156 585.828125 1332.054688 589.859375 1321.910156 589.859375 L 120.417969 589.859375 C 110.273438 589.859375 100.542969 585.828125 93.371094 578.65625 C 86.199219 571.484375 82.167969 561.753906 82.167969 551.609375 L 82.167969 212.9375 C 82.167969 202.792969 86.199219 193.0625 93.371094 185.890625 C 100.542969 178.71875 110.273438 174.6875 120.417969 174.6875 Z M 120.417969 174.6875 " clip-rule="nonzero"/></clipPath></defs><g clip-path="url(#a2b0e08486)"><g clip-path="url(#756ee2b0d2)"><path fill="#005576" d="M 82.164062 205.730469 L 1360.121094 205.730469 L 1360.121094 620.90625 L 82.164062 620.90625 Z M 82.164062 205.730469 " fill-opacity="1" fill-rule="nonzero"/></g></g><g clip-path="url(#2aa4d20d0f)"><g clip-path="url(#e2090972c9)"><path stroke-linecap="butt" transform="matrix(0.75, 0, 0, 0.75, 82.168156, 205.73125)" fill="none" stroke-linejoin="miter" d="M 50.999752 -0.0010412 L 1652.989416 -0.0010412 C 1666.515459 -0.0010412 1679.489418 5.373959 1689.051918 14.93646 C 1698.619627 24.504168 1703.989419 37.472919 1703.989419 50.998961 L 1703.989419 502.561484 C 1703.989419 516.087526 1698.619627 529.061485 1689.051918 538.623986 C 1679.489418 548.191695 1666.515459 553.561487 1652.989416 553.561487 L 50.999752 553.561487 C 37.47371 553.561487 24.499751 548.191695 14.93725 538.623986 C 5.37475 529.061485 -0.000250318 516.087526 -0.000250318 502.561484 L -0.000250318 50.998961 C -0.000250318 37.472919 5.37475 24.504168 14.93725 14.93646 C 24.499751 5.373959 37.47371 -0.0010412 50.999752 -0.0010412 Z M 50.999752 -0.0010412 " stroke="#000000" stroke-width="26" stroke-opacity="1" stroke-miterlimit="4"/></g></g><g clip-path="url(#7b1b3ce937)"><g clip-path="url(#6eee7f0ebd)"><path fill="#00b7fe" d="M 82.164062 174.6875 L 1360.121094 174.6875 L 1360.121094 589.863281 L 82.164062 589.863281 Z M 82.164062 174.6875 " fill-opacity="1" fill-rule="nonzero"/></g></g><g clip-path="url(#c325d2c8d9)"><g clip-path="url(#3fc73af41f)"><path stroke-linecap="butt" transform="matrix(0.75, 0, 0, 0.75, 82.168156, 174.68777)" fill="none" stroke-linejoin="miter" d="M 50.999752 -0.000359482 L 1652.989416 -0.000359482 C 1666.515459 -0.000359482 1679.489418 5.374641 1689.051918 14.937141 C 1698.619627 24.499642 1703.989419 37.473601 1703.989419 50.999643 L 1703.989419 502.562166 C 1703.989419 516.088208 1698.619627 529.062167 1689.051918 538.624668 C 1679.489418 548.187168 1666.515459 553.562168 1652.989416 553.562168 L 50.999752 553.562168 C 37.47371 553.562168 24.499751 548.187168 14.93725 538.624668 C 5.37475 529.062167 -0.000250318 516.088208 -0.000250318 502.562166 L -0.000250318 50.999643 C -0.000250318 37.473601 5.37475 24.499642 14.93725 14.937141 C 24.499751 5.374641 37.47371 -0.000359482 50.999752 -0.000359482 Z M 50.999752 -0.000359482 " stroke="#000000" stroke-width="26" stroke-opacity="1" stroke-miterlimit="4"/></g></g><g fill="#000000" fill-opacity="1"><g transform="translate(119.648754, 463.618027)"><g><path d="M 53.8125 -81.984375 C 45.71875 -96.503906 37.753906 -110.890625 29.921875 -125.140625 C 22.097656 -139.398438 14.054688 -153.703125 5.796875 -168.046875 C 4.285156 -170.710938 4.023438 -173.257812 5.015625 -175.6875 C 6.003906 -178.125 7.539062 -179.972656 9.625 -181.234375 C 11.71875 -182.492188 14.054688 -182.960938 16.640625 -182.640625 C 19.234375 -182.316406 21.375 -180.820312 23.0625 -178.15625 C 30.46875 -165.320312 37.664062 -152.519531 44.65625 -139.75 C 51.65625 -126.988281 58.691406 -114.1875 65.765625 -101.34375 C 74.242188 -115.09375 82.003906 -129.085938 89.046875 -143.328125 C 96.085938 -157.578125 102.160156 -172.316406 107.265625 -187.546875 C 108.265625 -190.554688 110.015625 -192.566406 112.515625 -193.578125 C 115.015625 -194.597656 117.476562 -194.773438 119.90625 -194.109375 C 122.34375 -193.453125 124.273438 -192.082031 125.703125 -190 C 127.140625 -187.914062 127.359375 -185.367188 126.359375 -182.359375 C 120.585938 -164.617188 113.597656 -147.578125 105.390625 -131.234375 C 97.191406 -114.898438 88.109375 -98.851562 78.140625 -83.09375 C 83.703125 -70.75 89.640625 -59.15625 95.953125 -48.3125 C 102.273438 -37.46875 108.972656 -26.628906 116.046875 -15.796875 C 117.734375 -13.128906 118.117188 -10.582031 117.203125 -8.15625 C 116.296875 -5.726562 114.757812 -3.878906 112.59375 -2.609375 C 110.425781 -1.347656 108.003906 -0.878906 105.328125 -1.203125 C 102.648438 -1.523438 100.472656 -3.019531 98.796875 -5.6875 C 92.734375 -15.03125 86.878906 -24.410156 81.234375 -33.828125 C 75.585938 -43.242188 70.070312 -52.789062 64.6875 -62.46875 L 51.21875 -43.609375 C 49.394531 -41.253906 47.484375 -38.691406 45.484375 -35.921875 C 43.484375 -33.160156 41.613281 -30.351562 39.875 -27.5 C 38.132812 -24.65625 36.726562 -21.722656 35.65625 -18.703125 C 34.582031 -15.691406 34.050781 -12.679688 34.0625 -9.671875 C 34.082031 -6.328125 33.09375 -3.859375 31.09375 -2.265625 C 29.09375 -0.671875 26.835938 0.128906 24.328125 0.140625 C 21.816406 0.148438 19.472656 -0.628906 17.296875 -2.203125 C 15.117188 -3.785156 14.019531 -6.25 14 -9.59375 C 13.96875 -17.113281 15.734375 -24.265625 19.296875 -31.046875 C 22.867188 -37.835938 26.8125 -44.171875 31.125 -50.046875 C 34.945312 -55.410156 38.769531 -60.734375 42.59375 -66.015625 C 46.425781 -71.296875 50.164062 -76.617188 53.8125 -81.984375 Z M 53.8125 -81.984375 "/></g></g></g><g fill="#000000" fill-opacity="1"><g transform="translate(257.623544, 463.02334)"><g/></g></g><g fill="#000000" fill-opacity="1"><g transform="translate(349.957893, 462.625369)"><g><path d="M 60.28125 20.296875 C 55.257812 21.648438 50.65625 21.878906 46.46875 20.984375 C 42.289062 20.085938 38.566406 18.347656 35.296875 15.765625 C 32.023438 13.191406 29.210938 10.03125 26.859375 6.28125 C 24.503906 2.53125 22.5625 -1.515625 21.03125 -5.859375 C 18.15625 -14.378906 16.15625 -23.066406 15.03125 -31.921875 C 13.914062 -40.773438 13.085938 -49.632812 12.546875 -58.5 C 12.003906 -65.84375 11.46875 -73.148438 10.9375 -80.421875 C 10.40625 -87.691406 10.039062 -95.003906 9.84375 -102.359375 C 9.632812 -111.390625 9.878906 -121.210938 10.578125 -131.828125 C 11.285156 -142.441406 13.164062 -152.644531 16.21875 -162.4375 C 19.269531 -172.238281 23.832031 -180.914062 29.90625 -188.46875 C 35.976562 -196.019531 44.273438 -201.234375 54.796875 -204.109375 C 57.972656 -204.972656 60.609375 -204.613281 62.703125 -203.03125 C 64.796875 -201.445312 66.179688 -199.441406 66.859375 -197.015625 C 67.546875 -194.597656 67.390625 -192.175781 66.390625 -189.75 C 65.398438 -187.320312 63.398438 -185.6875 60.390625 -184.84375 C 55.554688 -183.476562 51.515625 -181.410156 48.265625 -178.640625 C 45.015625 -175.867188 42.226562 -172.132812 39.90625 -167.4375 C 35.757812 -159.394531 33.078125 -150.601562 31.859375 -141.0625 C 30.648438 -131.53125 29.984375 -122.082031 29.859375 -112.71875 C 29.722656 -105.03125 29.921875 -97.425781 30.453125 -89.90625 C 30.984375 -82.394531 31.519531 -74.789062 32.0625 -67.09375 C 32.4375 -58.238281 32.972656 -49.882812 33.671875 -42.03125 C 34.378906 -34.175781 35.921875 -26.070312 38.296875 -17.71875 C 38.640625 -16.550781 38.976562 -15.46875 39.3125 -14.46875 C 39.644531 -13.46875 39.984375 -12.378906 40.328125 -11.203125 C 40.835938 -9.703125 41.132812 -8.910156 41.21875 -8.828125 C 41.300781 -8.742188 41.34375 -8.617188 41.34375 -8.453125 C 41.84375 -7.285156 42.304688 -6.367188 42.734375 -5.703125 C 43.160156 -5.035156 43.625 -4.367188 44.125 -3.703125 C 45.132812 -2.203125 45.640625 -1.453125 45.640625 -1.453125 L 47.90625 0.796875 C 49.40625 1.285156 50.238281 1.570312 50.40625 1.65625 C 50.582031 1.738281 50.753906 1.78125 50.921875 1.78125 C 52.753906 1.601562 53.753906 1.472656 53.921875 1.390625 C 54.085938 1.304688 54.335938 1.265625 54.671875 1.265625 C 57.847656 0.421875 60.484375 0.785156 62.578125 2.359375 C 64.671875 3.941406 66.054688 5.898438 66.734375 8.234375 C 67.410156 10.566406 67.253906 12.945312 66.265625 15.375 C 65.273438 17.8125 63.28125 19.453125 60.28125 20.296875 Z M 60.28125 20.296875 "/></g></g></g><g fill="#000000" fill-opacity="1"><g transform="translate(428.499813, 462.286844)"><g><path d="M 2.84375 -155 C 0.164062 -154.65625 -2.175781 -155.5625 -4.1875 -157.71875 C -6.195312 -159.882812 -7.207031 -162.304688 -7.21875 -164.984375 C -7.238281 -167.828125 -6.25 -170.128906 -4.25 -171.890625 C -2.25 -173.660156 0.0859375 -174.71875 2.765625 -175.0625 C 11.117188 -175.757812 19.390625 -176.125 27.578125 -176.15625 C 35.773438 -176.195312 44.054688 -175.988281 52.421875 -175.53125 C 54.742188 -176.375 57.25 -176.21875 59.9375 -175.0625 C 75.488281 -173.945312 91.210938 -172.007812 107.109375 -169.25 C 109.785156 -168.75 111.796875 -167.164062 113.140625 -164.5 C 114.492188 -161.832031 114.757812 -159.328125 113.9375 -156.984375 C 113.113281 -154.128906 111.570312 -152.15625 109.3125 -151.0625 C 107.0625 -149.96875 104.515625 -149.582031 101.671875 -149.90625 C 95.304688 -151.050781 89.03125 -152.023438 82.84375 -152.828125 C 76.664062 -153.640625 70.394531 -154.285156 64.03125 -154.765625 C 61.738281 -143.046875 60.410156 -131.332031 60.046875 -119.625 C 59.679688 -107.925781 60.109375 -96.0625 61.328125 -84.03125 C 62.554688 -71.65625 64.28125 -59.410156 66.5 -47.296875 C 68.726562 -35.191406 71.039062 -23.039062 73.4375 -10.84375 C 73.945312 -8 73.660156 -5.445312 72.578125 -3.1875 C 71.503906 -0.9375 69.546875 0.613281 66.703125 1.46875 C 64.210938 2.320312 61.664062 2.082031 59.0625 0.75 C 56.46875 -0.570312 54.914062 -2.570312 54.40625 -5.25 C 51.664062 -18.78125 49.054688 -32.1875 46.578125 -45.46875 C 44.097656 -58.75 42.238281 -72.15625 41 -85.6875 C 39.957031 -97.5625 39.660156 -109.347656 40.109375 -121.046875 C 40.554688 -132.742188 41.84375 -144.367188 43.96875 -155.921875 C 30.257812 -156.367188 16.550781 -156.0625 2.84375 -155 Z M 2.84375 -155 "/></g></g></g><g fill="#000000" fill-opacity="1"><g transform="translate(539.642076, 461.807809)"><g><path d="M 161.578125 -97.25 C 160.597656 -92.5625 159.445312 -87.914062 158.125 -83.3125 C 156.8125 -78.707031 155.332031 -74.144531 153.6875 -69.625 C 151.863281 -64.9375 150.125 -60.289062 148.46875 -55.6875 C 146.820312 -51.082031 144.835938 -46.597656 142.515625 -42.234375 C 140.359375 -38.046875 138.035156 -33.984375 135.546875 -30.046875 C 133.054688 -26.109375 130.898438 -21.960938 129.078125 -17.609375 C 127.421875 -13.753906 125.722656 -9.941406 123.984375 -6.171875 C 122.242188 -2.398438 120.039062 1.160156 117.375 4.515625 C 116.050781 6.179688 114.550781 7.1875 112.875 7.53125 C 111.207031 7.882812 109.578125 7.769531 107.984375 7.1875 C 106.398438 6.601562 104.894531 5.644531 103.46875 4.3125 C 102.039062 2.988281 101.070312 1.570312 100.5625 0.0625 C 97.6875 -7.78125 95.5625 -15.664062 94.1875 -23.59375 C 92.8125 -31.53125 91.023438 -39.507812 88.828125 -47.53125 C 88.316406 -49.863281 87.757812 -52.113281 87.15625 -54.28125 C 86.5625 -56.457031 85.925781 -58.632812 85.25 -60.8125 C 83.9375 -56.957031 82.492188 -53.1875 80.921875 -49.5 C 79.347656 -45.820312 77.648438 -42.054688 75.828125 -38.203125 C 73.828125 -34.335938 71.832031 -30.394531 69.84375 -26.375 C 67.851562 -22.351562 65.785156 -18.421875 63.640625 -14.578125 C 61.816406 -10.722656 59.65625 -7.160156 57.15625 -3.890625 C 54.664062 -0.617188 51.671875 2.195312 48.171875 4.5625 C 45.335938 6.40625 42.453125 6.582031 39.515625 5.09375 C 36.585938 3.601562 34.617188 1.441406 33.609375 -1.390625 C 31.066406 -8.898438 28.773438 -16.539062 26.734375 -24.3125 C 24.691406 -32.082031 22.648438 -39.847656 20.609375 -47.609375 C 18.578125 -55.378906 16.453125 -63.0625 14.234375 -70.65625 C 12.023438 -78.25 9.484375 -85.804688 6.609375 -93.328125 C 5.597656 -95.828125 5.878906 -98.289062 7.453125 -100.71875 C 9.035156 -103.15625 11 -104.796875 13.34375 -105.640625 C 16.1875 -106.484375 18.738281 -106.15625 21 -104.65625 C 23.257812 -103.164062 24.8125 -101.171875 25.65625 -98.671875 C 30.394531 -86.648438 34.289062 -74.546875 37.34375 -62.359375 C 40.40625 -50.171875 43.632812 -37.894531 47.03125 -25.53125 L 48.53125 -28.546875 C 50.351562 -32.234375 52.132812 -35.835938 53.875 -39.359375 C 55.613281 -42.878906 57.394531 -46.476562 59.21875 -50.15625 C 61.207031 -54.007812 62.984375 -57.988281 64.546875 -62.09375 C 66.117188 -66.195312 67.570312 -70.34375 68.90625 -74.53125 C 70.21875 -78.550781 71.453125 -82.566406 72.609375 -86.578125 C 73.765625 -90.597656 74.5 -94.785156 74.8125 -99.140625 C 74.96875 -101.804688 75.914062 -103.976562 77.65625 -105.65625 C 79.40625 -107.332031 81.40625 -108.34375 83.65625 -108.6875 C 85.914062 -109.039062 88.050781 -108.675781 90.0625 -107.59375 C 92.082031 -106.519531 93.515625 -104.5625 94.359375 -101.71875 C 96.742188 -93.207031 99.207031 -84.773438 101.75 -76.421875 C 104.289062 -68.078125 106.582031 -59.644531 108.625 -51.125 C 109.46875 -47.613281 110.226562 -44.144531 110.90625 -40.71875 C 111.59375 -37.300781 112.367188 -33.921875 113.234375 -30.578125 C 115.046875 -34.597656 117.15625 -38.492188 119.5625 -42.265625 C 121.976562 -46.035156 124.175781 -49.9375 126.15625 -53.96875 C 129.800781 -61.5 132.984375 -69.410156 135.703125 -77.703125 C 138.429688 -85.992188 140.613281 -94.234375 142.25 -102.421875 C 142.738281 -105.273438 144.273438 -107.375 146.859375 -108.71875 C 149.453125 -110.070312 152.003906 -110.335938 154.515625 -109.515625 C 157.359375 -108.679688 159.367188 -107.097656 160.546875 -104.765625 C 161.722656 -102.429688 162.066406 -99.925781 161.578125 -97.25 Z M 161.578125 -97.25 "/></g></g></g><g fill="#000000" fill-opacity="1"><g transform="translate(718.492601, 461.036943)"><g><path d="M 11.765625 -2.546875 C 13.078125 -10.585938 14.59375 -18.5 16.3125 -26.28125 C 18.039062 -34.0625 19.300781 -41.96875 20.09375 -50 C 20.726562 -57.851562 20.820312 -65.582031 20.375 -73.1875 C 19.925781 -80.800781 20.347656 -88.535156 21.640625 -96.390625 C 21.960938 -99.066406 23.5 -101.078125 26.25 -102.421875 C 29.007812 -103.773438 31.566406 -104.125 33.921875 -103.46875 C 36.765625 -102.644531 38.734375 -101.066406 39.828125 -98.734375 C 40.921875 -96.398438 41.304688 -93.890625 40.984375 -91.203125 C 40.335938 -87.359375 40.0625 -83.429688 40.15625 -79.421875 C 40.257812 -75.410156 40.398438 -71.394531 40.578125 -67.375 C 40.617188 -59.6875 40.15625 -52 39.1875 -44.3125 C 38.21875 -36.269531 36.957031 -28.398438 35.40625 -20.703125 C 33.851562 -13.015625 32.421875 -5.238281 31.109375 2.625 C 30.617188 5.300781 29.035156 7.3125 26.359375 8.65625 C 23.691406 10.007812 21.191406 10.359375 18.859375 9.703125 C 16.003906 8.878906 13.984375 7.296875 12.796875 4.953125 C 11.617188 2.617188 11.273438 0.117188 11.765625 -2.546875 Z M 23.328125 -117.96875 C 22.140625 -118.300781 20.960938 -118.835938 19.796875 -119.578125 C 18.628906 -120.328125 17.789062 -121.285156 17.28125 -122.453125 C 16.769531 -123.796875 16.34375 -124.960938 16 -125.953125 C 15.664062 -126.953125 15.492188 -128.125 15.484375 -129.46875 C 15.484375 -130.96875 15.726562 -132.476562 16.21875 -134 C 16.882812 -137 18.210938 -139.175781 20.203125 -140.53125 C 20.867188 -141.53125 21.789062 -142.28125 22.96875 -142.78125 C 24.789062 -143.96875 26.875 -144.609375 29.21875 -144.703125 C 31.5625 -144.796875 33.65625 -144.175781 35.5 -142.84375 C 36.332031 -142.175781 37.171875 -141.46875 38.015625 -140.71875 C 38.859375 -139.976562 39.53125 -139.019531 40.03125 -137.84375 C 40.363281 -137.007812 40.738281 -136.09375 41.15625 -135.09375 C 41.582031 -134.09375 41.71875 -133.09375 41.5625 -132.09375 C 41.394531 -130.925781 41.226562 -129.835938 41.0625 -128.828125 C 40.90625 -127.816406 40.492188 -126.894531 39.828125 -126.0625 C 39.003906 -124.894531 38.335938 -124.054688 37.828125 -123.546875 C 37.328125 -123.035156 36.5 -122.363281 35.34375 -121.53125 C 34.675781 -120.863281 33.675781 -120.359375 32.34375 -120.015625 C 28.832031 -117.992188 25.828125 -117.3125 23.328125 -117.96875 Z M 23.328125 -117.96875 "/></g></g></g><g fill="#000000" fill-opacity="1"><g transform="translate(789.00984, 460.733006)"><g><path d="M 87.140625 -87.890625 C 90.316406 -87.898438 92.703125 -86.90625 94.296875 -84.90625 C 95.898438 -82.914062 96.707031 -80.664062 96.71875 -78.15625 C 96.726562 -75.65625 95.941406 -73.351562 94.359375 -71.25 C 92.773438 -69.144531 90.394531 -68.085938 87.21875 -68.078125 C 83.207031 -67.890625 79.238281 -67.914062 75.3125 -68.15625 C 71.382812 -68.394531 67.5 -68.675781 63.65625 -69 C 63.882812 -55.789062 63.726562 -42.578125 63.1875 -29.359375 C 62.65625 -16.148438 61.335938 -3.019531 59.234375 10.03125 C 58.910156 12.875 57.410156 14.96875 54.734375 16.3125 C 52.066406 17.664062 49.476562 17.925781 46.96875 17.09375 C 44.113281 16.269531 42.140625 14.734375 41.046875 12.484375 C 39.960938 10.234375 39.660156 7.6875 40.140625 4.84375 C 42.097656 -7.875 43.175781 -20.582031 43.375 -33.28125 C 43.570312 -45.988281 43.472656 -58.78125 43.078125 -71.65625 C 36.722656 -72.625 30.28125 -73.640625 23.75 -74.703125 C 17.226562 -75.765625 10.789062 -76.695312 4.4375 -77.5 C 1.59375 -77.820312 -0.460938 -79.359375 -1.734375 -82.109375 C -3.003906 -84.867188 -3.304688 -87.421875 -2.640625 -89.765625 C -1.816406 -92.617188 -0.238281 -94.59375 2.09375 -95.6875 C 4.425781 -96.78125 6.929688 -97.164062 9.609375 -96.84375 C 15.140625 -96.03125 20.660156 -95.175781 26.171875 -94.28125 C 31.691406 -93.382812 37.300781 -92.53125 43 -91.71875 C 42.820312 -92.550781 42.734375 -93.804688 42.734375 -95.484375 C 42.671875 -110.523438 42.5625 -125.398438 42.40625 -140.109375 C 42.257812 -154.828125 42.90625 -169.710938 44.34375 -184.765625 C 44.664062 -187.441406 45.695312 -189.785156 47.4375 -191.796875 C 49.1875 -193.816406 51.484375 -194.832031 54.328125 -194.84375 C 56.835938 -194.851562 59.222656 -193.859375 61.484375 -191.859375 C 63.753906 -189.859375 64.726562 -187.523438 64.40625 -184.859375 C 62.800781 -168.796875 62.078125 -152.863281 62.234375 -137.0625 C 62.390625 -121.257812 62.671875 -105.253906 63.078125 -89.046875 C 67.085938 -88.734375 71.097656 -88.457031 75.109375 -88.21875 C 79.117188 -87.976562 83.128906 -87.867188 87.140625 -87.890625 Z M 87.140625 -87.890625 "/></g></g></g><g fill="#000000" fill-opacity="1"><g transform="translate(901.656689, 460.247485)"><g><path d="M 87.140625 -87.890625 C 90.316406 -87.898438 92.703125 -86.90625 94.296875 -84.90625 C 95.898438 -82.914062 96.707031 -80.664062 96.71875 -78.15625 C 96.726562 -75.65625 95.941406 -73.351562 94.359375 -71.25 C 92.773438 -69.144531 90.394531 -68.085938 87.21875 -68.078125 C 83.207031 -67.890625 79.238281 -67.914062 75.3125 -68.15625 C 71.382812 -68.394531 67.5 -68.675781 63.65625 -69 C 63.882812 -55.789062 63.726562 -42.578125 63.1875 -29.359375 C 62.65625 -16.148438 61.335938 -3.019531 59.234375 10.03125 C 58.910156 12.875 57.410156 14.96875 54.734375 16.3125 C 52.066406 17.664062 49.476562 17.925781 46.96875 17.09375 C 44.113281 16.269531 42.140625 14.734375 41.046875 12.484375 C 39.960938 10.234375 39.660156 7.6875 40.140625 4.84375 C 42.097656 -7.875 43.175781 -20.582031 43.375 -33.28125 C 43.570312 -45.988281 43.472656 -58.78125 43.078125 -71.65625 C 36.722656 -72.625 30.28125 -73.640625 23.75 -74.703125 C 17.226562 -75.765625 10.789062 -76.695312 4.4375 -77.5 C 1.59375 -77.820312 -0.460938 -79.359375 -1.734375 -82.109375 C -3.003906 -84.867188 -3.304688 -87.421875 -2.640625 -89.765625 C -1.816406 -92.617188 -0.238281 -94.59375 2.09375 -95.6875 C 4.425781 -96.78125 6.929688 -97.164062 9.609375 -96.84375 C 15.140625 -96.03125 20.660156 -95.175781 26.171875 -94.28125 C 31.691406 -93.382812 37.300781 -92.53125 43 -91.71875 C 42.820312 -92.550781 42.734375 -93.804688 42.734375 -95.484375 C 42.671875 -110.523438 42.5625 -125.398438 42.40625 -140.109375 C 42.257812 -154.828125 42.90625 -169.710938 44.34375 -184.765625 C 44.664062 -187.441406 45.695312 -189.785156 47.4375 -191.796875 C 49.1875 -193.816406 51.484375 -194.832031 54.328125 -194.84375 C 56.835938 -194.851562 59.222656 -193.859375 61.484375 -191.859375 C 63.753906 -189.859375 64.726562 -187.523438 64.40625 -184.859375 C 62.800781 -168.796875 62.078125 -152.863281 62.234375 -137.0625 C 62.390625 -121.257812 62.671875 -105.253906 63.078125 -89.046875 C 67.085938 -88.734375 71.097656 -88.457031 75.109375 -88.21875 C 79.117188 -87.976562 83.128906 -87.867188 87.140625 -87.890625 Z M 87.140625 -87.890625 "/></g></g></g><g fill="#000000" fill-opacity="1"><g transform="translate(1014.303584, 459.761964)"><g><path d="M 18.390625 -97.375 C 21.546875 -101.738281 25.332031 -105.601562 29.75 -108.96875 C 34.164062 -112.332031 38.875 -114.984375 43.875 -116.921875 C 48.882812 -118.867188 54.0625 -119.894531 59.40625 -120 C 64.757812 -120.113281 70.117188 -119.09375 75.484375 -116.9375 C 80.679688 -114.957031 85.375 -112.265625 89.5625 -108.859375 C 93.757812 -105.453125 97.039062 -101.070312 99.40625 -95.71875 C 101.25 -91.71875 102.347656 -87.378906 102.703125 -82.703125 C 103.066406 -78.023438 101.835938 -73.753906 99.015625 -69.890625 C 96.515625 -66.367188 93.472656 -63.679688 89.890625 -61.828125 C 86.304688 -59.972656 82.46875 -58.617188 78.375 -57.765625 C 74.28125 -56.910156 70.101562 -56.472656 65.84375 -56.453125 C 61.582031 -56.429688 57.523438 -56.5 53.671875 -56.65625 C 49.316406 -56.800781 45.007812 -57.117188 40.75 -57.609375 C 36.488281 -58.097656 32.1875 -58.582031 27.84375 -59.0625 C 29.207031 -51.53125 31.90625 -44.847656 35.9375 -39.015625 C 39.976562 -33.191406 45.429688 -28.785156 52.296875 -25.796875 C 54.140625 -25.140625 55.5625 -24.648438 56.5625 -24.328125 C 57.0625 -24.160156 57.523438 -24.035156 57.953125 -23.953125 C 58.378906 -23.867188 58.84375 -23.828125 59.34375 -23.828125 C 60.675781 -23.671875 61.800781 -23.550781 62.71875 -23.46875 C 63.644531 -23.394531 64.523438 -23.441406 65.359375 -23.609375 C 66.523438 -23.785156 67.316406 -23.914062 67.734375 -24 C 68.148438 -24.082031 68.609375 -24.207031 69.109375 -24.375 C 70.941406 -24.882812 72.566406 -25.472656 73.984375 -26.140625 C 75.410156 -26.816406 77.125 -27.914062 79.125 -29.4375 C 80.125 -30.269531 81.453125 -31.523438 83.109375 -33.203125 C 84.773438 -34.890625 86.191406 -36.398438 87.359375 -37.734375 C 89.023438 -40.085938 91.066406 -41.6875 93.484375 -42.53125 C 95.898438 -43.382812 98.367188 -43.0625 100.890625 -41.5625 C 103.066406 -40.238281 104.617188 -38.195312 105.546875 -35.4375 C 106.484375 -32.675781 106.117188 -30.125 104.453125 -27.78125 C 99.628906 -21.238281 93.925781 -15.65625 87.34375 -11.03125 C 80.757812 -6.40625 73.207031 -3.910156 64.6875 -3.546875 C 57.832031 -3.179688 51.222656 -4.363281 44.859375 -7.09375 C 38.492188 -9.820312 32.878906 -13.519531 28.015625 -18.1875 C 21.972656 -24 17.175781 -30.742188 13.625 -38.421875 C 10.082031 -46.097656 8.128906 -53.945312 7.765625 -61.96875 C 6.242188 -63.144531 5.101562 -64.609375 4.34375 -66.359375 C 3.59375 -68.109375 3.335938 -69.898438 3.578125 -71.734375 C 3.816406 -73.578125 4.429688 -75.296875 5.421875 -76.890625 C 6.421875 -78.484375 7.925781 -79.535156 9.9375 -80.046875 C 11.75 -86.242188 14.566406 -92.019531 18.390625 -97.375 Z M 78.609375 -91.625 C 76.753906 -93.957031 73.898438 -96.03125 70.046875 -97.84375 C 66.867188 -99.175781 63.148438 -99.832031 58.890625 -99.8125 C 54.628906 -99.800781 50.992188 -99.03125 47.984375 -97.5 C 44.140625 -95.65625 40.722656 -93.09375 37.734375 -89.8125 C 34.742188 -86.539062 32.332031 -82.894531 30.5 -78.875 C 34.519531 -78.382812 38.535156 -77.894531 42.546875 -77.40625 C 46.566406 -76.925781 50.582031 -76.613281 54.59375 -76.46875 C 56.769531 -76.476562 58.941406 -76.488281 61.109375 -76.5 C 63.285156 -76.507812 65.457031 -76.601562 67.625 -76.78125 C 68.300781 -76.78125 68.929688 -76.820312 69.515625 -76.90625 C 70.097656 -76.988281 70.722656 -77.035156 71.390625 -77.046875 C 72.898438 -77.378906 74.03125 -77.585938 74.78125 -77.671875 C 75.53125 -77.765625 76.320312 -77.976562 77.15625 -78.3125 C 77.820312 -78.5 78.65625 -78.757812 79.65625 -79.09375 C 80.488281 -79.425781 80.988281 -79.675781 81.15625 -79.84375 C 81.320312 -80.019531 81.570312 -80.191406 81.90625 -80.359375 L 82.640625 -83.359375 C 82.304688 -84.035156 82.09375 -84.664062 82 -85.25 C 81.914062 -85.832031 81.707031 -86.375 81.375 -86.875 C 81.207031 -87.363281 80.828125 -88.109375 80.234375 -89.109375 C 79.648438 -90.117188 79.109375 -90.957031 78.609375 -91.625 Z M 78.609375 -91.625 "/></g></g></g><g fill="#000000" fill-opacity="1"><g transform="translate(1139.739818, 459.22132)"><g><path d="M 14.359375 -102.125 C 14.515625 -105.300781 15.671875 -107.6875 17.828125 -109.28125 C 19.992188 -110.882812 22.332031 -111.691406 24.84375 -111.703125 C 27.351562 -111.710938 29.570312 -110.925781 31.5 -109.34375 C 33.4375 -107.769531 34.328125 -105.394531 34.171875 -102.21875 C 34.171875 -101.21875 34.128906 -100.171875 34.046875 -99.078125 C 33.972656 -97.984375 33.941406 -96.9375 33.953125 -95.9375 C 39.285156 -98.644531 44.914062 -100.972656 50.84375 -102.921875 C 56.769531 -104.867188 62.695312 -106.101562 68.625 -106.625 C 74.5625 -107.144531 80.332031 -106.707031 85.9375 -105.3125 C 91.550781 -103.914062 96.703125 -101.222656 101.390625 -97.234375 C 103.742188 -95.078125 104.800781 -92.742188 104.5625 -90.234375 C 104.320312 -87.722656 103.328125 -85.582031 101.578125 -83.8125 C 99.835938 -82.050781 97.628906 -80.957031 94.953125 -80.53125 C 92.273438 -80.101562 89.675781 -80.882812 87.15625 -82.875 C 85.320312 -84.375 83.269531 -85.453125 81 -86.109375 C 78.738281 -86.765625 76.3125 -87.046875 73.71875 -86.953125 C 71.132812 -86.859375 68.546875 -86.554688 65.953125 -86.046875 C 63.367188 -85.535156 60.910156 -84.941406 58.578125 -84.265625 C 49.722656 -81.390625 41.460938 -77.585938 33.796875 -72.859375 C 34.160156 -64.679688 34.695312 -56.5 35.40625 -48.3125 C 36.101562 -41.457031 36.71875 -34.390625 37.25 -27.109375 C 37.789062 -19.835938 39.238281 -12.945312 41.59375 -6.4375 C 42.625 -3.4375 42.429688 -0.890625 41.015625 1.203125 C 39.597656 3.296875 37.675781 4.679688 35.25 5.359375 C 32.832031 6.035156 30.328125 5.878906 27.734375 4.890625 C 25.140625 3.898438 23.332031 1.90625 22.3125 -1.09375 C 20.957031 -4.9375 20.019531 -8.863281 19.5 -12.875 C 18.988281 -16.882812 18.472656 -20.894531 17.953125 -24.90625 C 17.597656 -28.75 17.203125 -32.628906 16.765625 -36.546875 C 16.328125 -40.472656 15.9375 -44.363281 15.59375 -48.21875 C 14.71875 -57.238281 14.132812 -66.222656 13.84375 -75.171875 C 13.5625 -84.117188 13.734375 -93.101562 14.359375 -102.125 Z M 14.359375 -102.125 "/></g></g></g><g fill="#000000" fill-opacity="1"><g transform="translate(1257.652868, 458.713102)"><g><path d="M 4.640625 -203.90625 C 9.648438 -205.269531 14.203125 -205.5 18.296875 -204.59375 C 22.398438 -203.6875 26.085938 -201.945312 29.359375 -199.375 C 32.628906 -196.800781 35.484375 -193.597656 37.921875 -189.765625 C 40.359375 -185.929688 42.34375 -181.921875 43.875 -177.734375 C 46.757812 -169.222656 48.71875 -160.535156 49.75 -151.671875 C 50.789062 -142.816406 51.671875 -133.96875 52.390625 -125.125 C 52.753906 -117.769531 53.203125 -110.453125 53.734375 -103.171875 C 54.265625 -95.898438 54.628906 -88.585938 54.828125 -81.234375 C 55.023438 -72.203125 54.769531 -62.378906 54.0625 -51.765625 C 53.363281 -41.148438 51.53125 -30.941406 48.5625 -21.140625 C 45.59375 -11.347656 41.03125 -2.640625 34.875 4.984375 C 28.726562 12.617188 20.394531 17.796875 9.875 20.515625 C 6.863281 21.367188 4.269531 21.003906 2.09375 19.421875 C -0.0820312 17.835938 -1.507812 15.878906 -2.1875 13.546875 C -2.875 11.210938 -2.71875 8.832031 -1.71875 6.40625 C -0.726562 3.976562 1.347656 2.335938 4.515625 1.484375 C 9.359375 0.128906 13.363281 -1.972656 16.53125 -4.828125 C 19.695312 -7.691406 22.523438 -11.46875 25.015625 -16.15625 C 29.148438 -24.207031 31.820312 -33 33.03125 -42.53125 C 34.25 -52.0625 34.925781 -61.507812 35.0625 -70.875 C 35.1875 -78.5625 34.941406 -86.164062 34.328125 -93.6875 C 33.710938 -101.207031 33.222656 -108.8125 32.859375 -116.5 C 32.304688 -125.363281 31.722656 -133.71875 31.109375 -141.5625 C 30.492188 -149.414062 28.992188 -157.523438 26.609375 -165.890625 C 26.273438 -166.878906 25.9375 -167.914062 25.59375 -169 C 25.257812 -170.09375 24.925781 -171.140625 24.59375 -172.140625 C 23.914062 -173.816406 23.535156 -174.78125 23.453125 -175.03125 C 23.367188 -175.28125 23.242188 -175.488281 23.078125 -175.65625 C 22.566406 -177.3125 21.800781 -178.726562 20.78125 -179.90625 L 19.28125 -182.15625 C 17.9375 -183.488281 17.179688 -184.15625 17.015625 -184.15625 C 15.503906 -184.8125 14.625 -185.179688 14.375 -185.265625 C 14.125 -185.347656 13.914062 -185.390625 13.75 -185.390625 C 11.90625 -185.210938 10.648438 -184.957031 9.984375 -184.625 C 6.984375 -183.769531 4.429688 -184.128906 2.328125 -185.703125 C 0.234375 -187.285156 -1.148438 -189.285156 -1.828125 -191.703125 C -2.503906 -194.128906 -2.347656 -196.554688 -1.359375 -198.984375 C -0.367188 -201.410156 1.628906 -203.050781 4.640625 -203.90625 Z M 4.640625 -203.90625 "/></g></g></g></svg>